SplineFontDB: 3.0
FontName: RujisHandwritingFont
FullName: Ruji's Handwriting Font
FamilyName: Ruji's Handwriting Font
Weight: Book
Copyright: Ruji Chapnik (C) 2012
UComments: "This is version 1.0 of +ACIA-Ruji's Handwriting Font,+ACIA based on the handwriting of Ruji Chapnik. It has been used in the Don Depresso webcomic (http://dondepresso.rujic.net) and printed comic books.+AAoACgAA-For more information, visit http://rujic.net." 
FontLog: "This is version 1.0 of +ACIA-Ruji's Handwriting Font,+ACIA based on the handwriting of Ruji Chapnik. It has been used in the Don Depresso webcomic (http://dondepresso.rujic.net) and printed comic books.+AAoACgAA-For more information, visit http://rujic.net." 
Version: Lanier My Font Tool for Tablet PC 1.0
ItalicAngle: 0
UnderlinePosition: -73
UnderlineWidth: 119
Ascent: 1638
Descent: 410
sfntRevision: 0x00010000
LayerCount: 2
Layer: 0 1 "Back"  1
Layer: 1 1 "Fore"  0
XUID: [1021 314 1341 15124]
FSType: 2
OS2Version: 3
OS2_WeightWidthSlopeOnly: 0
OS2_UseTypoMetrics: 1
CreationTime: 1072915200
ModificationTime: 1376990798
PfmFamily: 81
TTFWeight: 400
TTFWidth: 5
LineGap: -2099
VLineGap: 0
Panose: 0 0 0 0 0 0 0 0 0 0
OS2TypoAscent: 2520
OS2TypoAOffset: 0
OS2TypoDescent: -1008
OS2TypoDOffset: 0
OS2TypoLinegap: -2099
OS2WinAscent: 2520
OS2WinAOffset: 0
OS2WinDescent: 1008
OS2WinDOffset: 0
HheadAscent: 2520
HheadAOffset: 0
HheadDescent: -1008
HheadDOffset: 0
OS2SubXSize: 700
OS2SubYSize: 650
OS2SubXOff: 0
OS2SubYOff: 140
OS2SupXSize: 700
OS2SupYSize: 650
OS2SupXOff: 0
OS2SupYOff: 477
OS2StrikeYSize: 50
OS2StrikeYPos: 250
OS2Vendor: 'PHIL'
OS2CodePages: 00000001.00000000
OS2UnicodeRanges: 80000003.00000000.00000000.00000000
MarkAttachClasses: 1
DEI: 91125
TtTable: prep
PUSHW_1
 10
CALL
PUSHW_1
 0
CALL
SVTCA[y-axis]
PUSHW_3
 1
 5
 2
CALL
SVTCA[x-axis]
PUSHW_3
 6
 6
 2
CALL
SVTCA[x-axis]
PUSHW_8
 6
 77
 69
 53
 32
 21
 0
 8
CALL
PUSHW_8
 7
 537
 439
 342
 244
 147
 0
 8
CALL
PUSHW_8
 8
 108
 88
 69
 42
 30
 0
 8
CALL
PUSHW_8
 9
 90
 69

StartChar: .notdef
Encoding: 65536 -1 0
Width: 500
Flags: W
LayerCount: 2
Fore
SplineSet
63 0 m 1,0,-1
 63 800 l 1,1,-1
 438 800 l 1,2,-1
 438 0 l 1,3,-1
 63 0 l 1,0,-1
125 63 m 1,4,-1
 375 63 l 1,5,-1
 375 738 l 1,6,-1
 125 738 l 1,7,-1
 125 63 l 1,4,-1
EndSplineSet
EndChar

StartChar: exclam
Encoding: 33 33 4
Width: 571
Flags: W
LayerCount: 2
Fore
SplineSet
273 399 m 1,0,-1
 336 378 l 1,1,-1
 357 378 l 1,2,-1
 399 189 l 1,3,-1
 378 168 l 1,4,-1
 336 126 l 1,5,-1
 273 105 l 1,6,-1
 252 105 l 1,7,-1
 231 378 l 1,8,-1
 273 399 l 1,0,-1
231 1134 m 1,9,-1
 210 1092 l 1,10,-1
 252 1806 l 1,11,-1
 252 1827 l 1,12,-1
 336 1848 l 1,13,-1
 357 1806 l 1,14,-1
 357 1092 l 1,15,-1
 336 966 l 1,16,-1
 315 714 l 1,17,-1
 231 693 l 1,18,-1
 210 693 l 1,19,-1
 189 987 l 1,20,-1
 231 1134 l 1,9,-1
EndSplineSet
EndChar

StartChar: numbersign
Encoding: 35 35 5
Width: 1365
Flags: W
LayerCount: 2
Fore
SplineSet
472 1302 m 1,0,-1
 451 1239 l 1,1,-1
 430 1197 l 1,2,-1
 682 1176 l 1,3,-1
 703 1218 l 1,4,-1
 724 1239 l 1,5,-1
 745 1281 l 1,6,-1
 766 1302 l 1,7,-1
 787 1344 l 1,8,-1
 724 1344 l 1,9,-1
 619 1323 l 1,10,-1
 556 1302 l 1,11,-1
 493 1302 l 1,12,-1
 472 1302 l 1,0,-1
52 1176 m 1,13,-1
 136 1176 l 1,14,-1
 178 1197 l 1,15,-1
 262 1176 l 1,16,-1
 304 1197 l 1,17,-1
 304 1218 l 1,18,-1
 346 1302 l 1,19,-1
 241 1323 l 1,20,-1
 220 1365 l 1,21,-1
 220 1386 l 1,22,-1
 241 1407 l 1,23,-1
 304 1428 l 1,24,-1
 346 1449 l 1,25,-1
 409 1470 l 1,26,-1
 430 1512 l 1,27,-1
 472 1596 l 1,28,-1
 472 1617 l 1,29,-1
 514 1701 l 1,30,-1
 598 1701 l 1,31,-1
 598 1575 l 1,32,-1
 577 1512 l 1,33,-1
 556 1491 l 1,34,-1
 577 1470 l 1,35,-1
 661 1491 l 1,36,-1
 913 1512 l 1,37,-1
 934 1554 l 1,38,-1
 955 1596 l 1,39,-1
 976 1617 l 1,40,-1
 1018 1680 l 1,41,-1
 1060 1701 l 1,42,-1
 1123 1680 l 1,43,-1
 1144 1575 l 1,44,-1
 1291 1554 l 1,45,-1
 1312 1512 l 1,46,-1
 1312 1428 l 1,47,-1
 1291 1407 l 1,48,-1
 997 1365 l 1,49,-1
 976 1344 l 1,50,-1
 934 1302 l 1,51,-1
 913 1260 l 1,52,-1
 892 1239 l 1,53,-1
 871 1197 l 1,54,-1
 1207 1176 l 1,55,-1
 1228 1176 l 1,56,-1
 1228 1155 l 1,57,-1
 1249 1071 l 1,58,-1
 1249 1050 l 1,59,-1
 745 1008 l 1,60,-1
 724 987 l 1,61,-1
 703 924 l 1,62,-1
 682 882 l 1,63,-1
 661 840 l 1,64,-1
 661 819 l 1,65,-1
 640 756 l 1,66,-1
 535 735 l 1,67,-1
 514 819 l 1,68,-1
 514 861 l 1,69,-1
 535 903 l 1,70,-1
 577 987 l 1,71,-1
 346 1008 l 1,72,-1
 325 966 l 1,73,-1
 304 924 l 1,74,-1
 283 882 l 1,75,-1
 262 840 l 1,76,-1
 262 819 l 1,77,-1
 241 756 l 1,78,-1
 178 735 l 1,79,-1
 157 756 l 1,80,-1
 157 882 l 1,81,-1
 178 924 l 1,82,-1
 199 966 l 1,83,-1
 241 1029 l 1,84,-1
 199 1029 l 1,85,-1
 199 1050 l 1,86,-1
 94 1050 l 1,87,-1
 73 1050 l 1,88,-1
 52 1155 l 1,89,-1
 52 1176 l 1,13,-1
EndSplineSet
EndChar

StartChar: dollar
Encoding: 36 36 6
Width: 756
Flags: W
LayerCount: 2
Fore
SplineSet
430 924 m 1,0,-1
 430 546 l 1,1,-1
 430 525 l 1,2,-1
 472 567 l 1,3,-1
 493 567 l 1,4,-1
 493 819 l 1,5,-1
 472 861 l 1,6,-1
 451 924 l 1,7,-1
 430 924 l 1,0,-1
325 1449 m 1,8,-1
 283 1428 l 1,9,-1
 262 1386 l 1,10,-1
 262 1302 l 1,11,-1
 283 1239 l 1,12,-1
 304 1281 l 1,13,-1
 325 1449 l 1,8,-1
73 693 m 1,14,-1
 94 714 l 1,15,-1
 157 693 l 1,16,-1
 178 651 l 1,17,-1
 199 609 l 1,18,-1
 241 588 l 1,19,-1
 262 1029 l 1,20,-1
 283 1050 l 1,21,-1
 241 1071 l 1,22,-1
 199 1092 l 1,23,-1
 157 1113 l 1,24,-1
 136 1197 l 1,25,-1
 136 1155 l 1,26,-1
 115 1407 l 1,27,-1
 115 1428 l 1,28,-1
 157 1512 l 1,29,-1
 178 1533 l 1,30,-1
 220 1596 l 1,31,-1
 241 1617 l 1,32,-1
 262 1617 l 1,33,-1
 283 1638 l 1,34,-1
 304 1659 l 1,35,-1
 325 1680 l 1,36,-1
 367 1785 l 1,37,-1
 388 1848 l 1,38,-1
 451 1869 l 1,39,-1
 472 1827 l 1,40,-1
 493 1764 l 1,41,-1
 514 1722 l 1,42,-1
 556 1722 l 1,43,-1
 598 1680 l 1,44,-1
 640 1659 l 1,45,-1
 682 1638 l 1,46,-1
 703 1596 l 1,47,-1
 703 1470 l 1,48,-1
 682 1428 l 1,49,-1
 619 1407 l 1,50,-1
 598 1428 l 1,51,-1
 577 1470 l 1,52,-1
 556 1554 l 1,53,-1
 472 1575 l 1,54,-1
 472 1491 l 1,55,-1
 451 1113 l 1,56,-1
 472 1071 l 1,57,-1
 514 1050 l 1,58,-1
 535 1008 l 1,59,-1
 577 987 l 1,60,-1
 598 945 l 1,61,-1
 619 882 l 1,62,-1
 619 504 l 1,63,-1
 598 462 l 1,64,-1
 577 441 l 1,65,-1
 535 420 l 1,66,-1
 472 399 l 1,67,-1
 430 357 l 1,68,-1
 430 168 l 1,69,-1
 409 105 l 1,70,-1
 304 63 l 1,71,-1
 283 84 l 1,72,-1
 283 63 l 1,73,-1
 262 315 l 1,74,-1
 241 378 l 1,75,-1
 220 378 l 1,76,-1
 220 399 l 1,77,-1
 136 420 l 1,78,-1
 136 462 l 1,79,-1
 94 483 l 1,80,-1
 73 525 l 1,81,-1
 73 504 l 1,82,-1
 52 672 l 1,83,-1
 73 693 l 1,14,-1
EndSplineSet
EndChar

StartChar: percent
Encoding: 37 37 7
Width: 966
Flags: W
LayerCount: 2
Fore
SplineSet
682 819 m 1,0,-1
 682 840 l 1,1,-1
 892 861 l 1,2,-1
 913 840 l 1,3,-1
 913 756 l 1,4,-1
 892 651 l 1,5,-1
 871 588 l 1,6,-1
 703 567 l 1,7,-1
 682 567 l 1,8,-1
 661 798 l 1,9,-1
 682 819 l 1,0,-1
94 504 m 1,10,-1
 115 525 l 1,11,-1
 136 567 l 1,12,-1
 178 609 l 1,13,-1
 199 630 l 1,14,-1
 241 693 l 1,15,-1
 262 714 l 1,16,-1
 304 777 l 1,17,-1
 325 798 l 1,18,-1
 367 861 l 1,19,-1
 388 882 l 1,20,-1
 409 924 l 1,21,-1
 430 966 l 1,22,-1
 451 1008 l 1,23,-1
 472 1050 l 1,24,-1
 514 1092 l 1,25,-1
 514 1113 l 1,26,-1
 493 1113 l 1,27,-1
 514 1113 l 1,28,-1
 493 1113 l 1,29,-1
 472 1092 l 1,30,-1
 262 1050 l 1,31,-1
 241 1071 l 1,32,-1
 241 1050 l 1,33,-1
 220 1218 l 1,34,-1
 241 1281 l 1,35,-1
 241 1302 l 1,36,-1
 367 1323 l 1,37,-1
 409 1302 l 1,38,-1
 451 1260 l 1,39,-1
 472 1260 l 1,40,-1
 514 1155 l 1,41,-1
 514 1113 l 1,42,-1
 556 1176 l 1,43,-1
 577 1176 l 1,44,-1
 598 1218 l 1,45,-1
 619 1281 l 1,46,-1
 661 1323 l 1,47,-1
 682 1344 l 1,48,-1
 703 1386 l 1,49,-1
 745 1449 l 1,50,-1
 745 1470 l 1,51,-1
 766 1491 l 1,52,-1
 850 1512 l 1,53,-1
 871 1491 l 1,54,-1
 892 1449 l 1,55,-1
 892 1386 l 1,56,-1
 871 1323 l 1,57,-1
 829 1281 l 1,58,-1
 808 1239 l 1,59,-1
 766 1197 l 1,60,-1
 745 1134 l 1,61,-1
 745 1113 l 1,62,-1
 703 1071 l 1,63,-1
 682 1050 l 1,64,-1
 640 1008 l 1,65,-1
 640 987 l 1,66,-1
 598 945 l 1,67,-1
 577 903 l 1,68,-1
 556 840 l 1,69,-1
 535 819 l 1,70,-1
 493 777 l 1,71,-1
 493 756 l 1,72,-1
 451 714 l 1,73,-1
 430 672 l 1,74,-1
 409 651 l 1,75,-1
 367 609 l 1,76,-1
 367 588 l 1,77,-1
 325 546 l 1,78,-1
 304 525 l 1,79,-1
 262 483 l 1,80,-1
 262 462 l 1,81,-1
 220 420 l 1,82,-1
 199 399 l 1,83,-1
 157 357 l 1,84,-1
 94 336 l 1,85,-1
 73 336 l 1,86,-1
 52 462 l 1,87,-1
 94 504 l 1,10,-1
EndSplineSet
EndChar

StartChar: ampersand
Encoding: 38 38 8
Width: 1113
Flags: W
LayerCount: 2
Fore
SplineSet
619 1071 m 1,0,-1
 640 1092 l 1,1,-1
 682 1134 l 1,2,-1
 703 1155 l 1,3,-1
 724 1197 l 1,4,-1
 745 1239 l 1,5,-1
 766 1260 l 1,6,-1
 766 1533 l 1,7,-1
 745 1596 l 1,8,-1
 640 1596 l 1,9,-1
 556 1575 l 1,10,-1
 535 1533 l 1,11,-1
 535 1554 l 1,12,-1
 514 1281 l 1,13,-1
 514 1239 l 1,14,-1
 535 1134 l 1,15,-1
 556 1050 l 1,16,-1
 598 1050 l 1,17,-1
 619 1071 l 1,0,-1
430 462 m 1,18,-1
 472 483 l 1,19,-1
 514 525 l 1,20,-1
 535 546 l 1,21,-1
 577 588 l 1,22,-1
 619 609 l 1,23,-1
 577 630 l 1,24,-1
 556 693 l 1,25,-1
 514 714 l 1,26,-1
 493 756 l 1,27,-1
 472 756 l 1,28,-1
 430 735 l 1,29,-1
 346 693 l 1,30,-1
 325 651 l 1,31,-1
 283 609 l 1,32,-1
 262 567 l 1,33,-1
 220 525 l 1,34,-1
 199 441 l 1,35,-1
 388 441 l 1,36,-1
 430 462 l 1,18,-1
73 588 m 1,37,-1
 94 630 l 1,38,-1
 136 714 l 1,39,-1
 157 735 l 1,40,-1
 199 777 l 1,41,-1
 220 798 l 1,42,-1
 262 840 l 1,43,-1
 325 861 l 1,44,-1
 367 882 l 1,45,-1
 388 903 l 1,46,-1
 388 1071 l 1,47,-1
 367 1155 l 1,48,-1
 367 1134 l 1,49,-1
 346 1512 l 1,50,-1
 346 1533 l 1,51,-1
 367 1575 l 1,52,-1
 409 1659 l 1,53,-1
 430 1680 l 1,54,-1
 472 1722 l 1,55,-1
 514 1743 l 1,56,-1
 787 1743 l 1,57,-1
 829 1722 l 1,58,-1
 871 1701 l 1,59,-1
 892 1659 l 1,60,-1
 913 1596 l 1,61,-1
 913 1197 l 1,62,-1
 913 1176 l 1,63,-1
 871 1134 l 1,64,-1
 850 1092 l 1,65,-1
 850 1071 l 1,66,-1
 808 1029 l 1,67,-1
 787 987 l 1,68,-1
 766 966 l 1,69,-1
 703 924 l 1,70,-1
 682 903 l 1,71,-1
 661 903 l 1,72,-1
 640 840 l 1,73,-1
 661 819 l 1,74,-1
 682 777 l 1,75,-1
 703 735 l 1,76,-1
 724 693 l 1,77,-1
 766 672 l 1,78,-1
 787 672 l 1,79,-1
 829 735 l 1,80,-1
 850 756 l 1,81,-1
 871 798 l 1,82,-1
 913 840 l 1,83,-1
 955 840 l 1,84,-1
 997 819 l 1,85,-1
 1018 777 l 1,86,-1
 1018 756 l 1,87,-1
 997 693 l 1,88,-1
 955 651 l 1,89,-1
 934 609 l 1,90,-1
 892 567 l 1,91,-1
 871 546 l 1,92,-1
 829 525 l 1,93,-1
 850 483 l 1,94,-1
 892 462 l 1,95,-1
 913 420 l 1,96,-1
 955 399 l 1,97,-1
 976 357 l 1,98,-1
 997 315 l 1,99,-1
 1018 315 l 1,100,-1
 1018 294 l 1,101,-1
 1060 189 l 1,102,-1
 1018 147 l 1,103,-1
 997 126 l 1,104,-1
 934 147 l 1,105,-1
 913 189 l 1,106,-1
 871 210 l 1,107,-1
 850 252 l 1,108,-1
 829 294 l 1,109,-1
 766 315 l 1,110,-1
 766 357 l 1,111,-1
 724 378 l 1,112,-1
 703 420 l 1,113,-1
 640 441 l 1,114,-1
 619 420 l 1,115,-1
 577 378 l 1,116,-1
 556 357 l 1,117,-1
 493 315 l 1,118,-1
 472 294 l 1,119,-1
 430 273 l 1,120,-1
 178 252 l 1,121,-1
 178 273 l 1,122,-1
 94 294 l 1,123,-1
 73 315 l 1,124,-1
 73 294 l 1,125,-1
 52 546 l 1,126,-1
 73 588 l 1,37,-1
EndSplineSet
EndChar

StartChar: quotesingle
Encoding: 65537 -1 9
Width: 2048
Flags: W
LayerCount: 2
Fore
SplineSet
933 1489 m 1,0,-1
 885 1698 l 1,1,-1
 828 1811 l 1,2,3
 884 1865 884 1865 925 1892 c 0,4,5
 943 1904 943 1904 959 1911 c 128,-1,6
 975 1918 975 1918 987 1916 c 128,-1,7
 999 1914 999 1914 1005 1900.5 c 128,-1,8
 1011 1887 1011 1887 1008 1859 c 0,9,10
 1001 1802 1001 1802 988.5 1737 c 128,-1,11
 976 1672 976 1672 964 1617 c 0,12,13
 949 1552 949 1552 933 1489 c 1,0,-1
EndSplineSet
EndChar

StartChar: parenleft
Encoding: 40 40 10
Width: 714
Flags: W
LayerCount: 2
Fore
SplineSet
73 1071 m 1,0,-1
 94 1218 l 1,1,-1
 115 1281 l 1,2,-1
 136 1407 l 1,3,-1
 157 1449 l 1,4,-1
 199 1533 l 1,5,-1
 220 1554 l 1,6,-1
 241 1617 l 1,7,-1
 283 1680 l 1,8,-1
 304 1701 l 1,9,-1
 325 1743 l 1,10,-1
 367 1785 l 1,11,-1
 388 1806 l 1,12,-1
 430 1848 l 1,13,-1
 472 1869 l 1,14,-1
 493 1869 l 1,15,-1
 514 1890 l 1,16,-1
 577 1911 l 1,17,-1
 640 1890 l 1,18,-1
 661 1827 l 1,19,-1
 619 1785 l 1,20,-1
 598 1764 l 1,21,-1
 535 1722 l 1,22,-1
 514 1701 l 1,23,-1
 472 1680 l 1,24,-1
 451 1638 l 1,25,-1
 409 1596 l 1,26,-1
 388 1533 l 1,27,-1
 367 1491 l 1,28,-1
 346 1449 l 1,29,-1
 325 1407 l 1,30,-1
 304 1323 l 1,31,-1
 283 1281 l 1,32,-1
 262 1176 l 1,33,-1
 262 1218 l 1,34,-1
 241 1029 l 1,35,-1
 241 1134 l 1,36,-1
 220 336 l 1,37,-1
 220 294 l 1,38,-1
 262 231 l 1,39,-1
 283 189 l 1,40,-1
 304 147 l 1,41,-1
 325 105 l 1,42,-1
 346 63 l 1,43,-1
 367 21 l 1,44,-1
 388 -20 l 1,45,-1
 430 -62 l 1,46,-1
 451 -104 l 1,47,-1
 472 -146 l 1,48,-1
 451 -230 l 1,49,-1
 346 -230 l 1,50,-1
 304 -209 l 1,51,-1
 283 -167 l 1,52,-1
 241 -146 l 1,53,-1
 220 -104 l 1,54,-1
 220 -62 l 1,55,-1
 178 -41 l 1,56,-1
 157 0 l 1,57,-1
 157 84 l 1,58,-1
 115 105 l 1,59,-1
 94 168 l 1,60,-1
 94 189 l 1,61,-1
 73 189 l 1,62,-1
 52 1050 l 1,63,-1
 73 1071 l 1,0,-1
EndSplineSet
EndChar

StartChar: parenright
Encoding: 41 41 11
Width: 756
Flags: W
LayerCount: 2
Fore
SplineSet
73 2100 m 1,0,-1
 115 2121 l 1,1,-1
 178 2121 l 1,2,-1
 241 2100 l 1,3,-1
 262 2058 l 1,4,-1
 304 2037 l 1,5,-1
 346 2016 l 1,6,-1
 367 1974 l 1,7,-1
 409 1932 l 1,8,-1
 430 1890 l 1,9,-1
 472 1848 l 1,10,-1
 451 1848 l 1,11,-1
 493 1743 l 1,12,-1
 514 1722 l 1,13,-1
 535 1680 l 1,14,-1
 556 1638 l 1,15,-1
 598 1575 l 1,16,-1
 619 1533 l 1,17,-1
 640 1491 l 1,18,-1
 661 1407 l 1,19,-1
 682 1365 l 1,20,-1
 703 1302 l 1,21,-1
 703 840 l 1,22,-1
 682 609 l 1,23,-1
 661 483 l 1,24,-1
 640 378 l 1,25,-1
 619 315 l 1,26,-1
 598 210 l 1,27,-1
 577 168 l 1,28,-1
 556 105 l 1,29,-1
 514 63 l 1,30,-1
 493 21 l 1,31,-1
 472 -20 l 1,32,-1
 451 -83 l 1,33,-1
 451 -104 l 1,34,-1
 409 -146 l 1,35,-1
 388 -188 l 1,36,-1
 346 -230 l 1,37,-1
 325 -251 l 1,38,-1
 262 -293 l 1,39,-1
 241 -314 l 1,40,-1
 178 -335 l 1,41,-1
 178 -314 l 1,42,-1
 157 -314 l 1,43,-1
 136 -230 l 1,44,-1
 157 -209 l 1,45,-1
 199 -167 l 1,46,-1
 220 -167 l 1,47,-1
 241 -125 l 1,48,-1
 283 -83 l 1,49,-1
 304 -62 l 1,50,-1
 325 -20 l 1,51,-1
 346 21 l 1,52,-1
 367 84 l 1,53,-1
 388 126 l 1,54,-1
 409 168 l 1,55,-1
 430 210 l 1,56,-1
 451 273 l 1,57,-1
 472 336 l 1,58,-1
 493 399 l 1,59,-1
 514 525 l 1,60,-1
 535 651 l 1,61,-1
 556 903 l 1,62,-1
 556 1239 l 1,63,-1
 535 1281 l 1,64,-1
 514 1344 l 1,65,-1
 493 1407 l 1,66,-1
 472 1449 l 1,67,-1
 472 1491 l 1,68,-1
 430 1512 l 1,69,-1
 430 1575 l 1,70,-1
 388 1596 l 1,71,-1
 367 1638 l 1,72,-1
 346 1680 l 1,73,-1
 325 1722 l 1,74,-1
 304 1806 l 1,75,-1
 262 1827 l 1,76,-1
 241 1869 l 1,77,-1
 220 1911 l 1,78,-1
 178 1911 l 1,79,-1
 157 1953 l 1,80,-1
 115 1974 l 1,81,-1
 73 1995 l 1,82,-1
 52 2058 l 1,83,-1
 73 2100 l 1,0,-1
EndSplineSet
EndChar

StartChar: asterisk
Encoding: 42 42 12
Width: 840
Flags: W
LayerCount: 2
Fore
SplineSet
73 1218 m 1,0,-1
 136 1239 l 1,1,-1
 115 1260 l 1,2,-1
 115 1365 l 1,3,-1
 199 1365 l 1,4,-1
 262 1344 l 1,5,-1
 304 1302 l 1,6,-1
 346 1449 l 1,7,-1
 409 1449 l 1,8,-1
 430 1407 l 1,9,-1
 451 1281 l 1,10,-1
 493 1323 l 1,11,-1
 514 1344 l 1,12,-1
 556 1386 l 1,13,-1
 661 1407 l 1,14,-1
 682 1386 l 1,15,-1
 703 1365 l 1,16,-1
 682 1302 l 1,17,-1
 661 1281 l 1,18,-1
 682 1260 l 1,19,-1
 745 1239 l 1,20,-1
 766 1239 l 1,21,-1
 787 1197 l 1,22,-1
 787 1176 l 1,23,-1
 766 1155 l 1,24,-1
 577 1113 l 1,25,-1
 598 1092 l 1,26,-1
 619 1050 l 1,27,-1
 640 1008 l 1,28,-1
 661 966 l 1,29,-1
 661 945 l 1,30,-1
 640 924 l 1,31,-1
 577 924 l 1,32,-1
 514 945 l 1,33,-1
 493 987 l 1,34,-1
 451 1008 l 1,35,-1
 430 987 l 1,36,-1
 346 945 l 1,37,-1
 325 1008 l 1,38,-1
 304 987 l 1,39,-1
 262 945 l 1,40,-1
 241 903 l 1,41,-1
 199 882 l 1,42,-1
 178 903 l 1,43,-1
 157 945 l 1,44,-1
 178 1008 l 1,45,-1
 199 1029 l 1,46,-1
 220 1071 l 1,47,-1
 262 1113 l 1,48,-1
 304 1134 l 1,49,-1
 73 1134 l 1,50,-1
 52 1197 l 1,51,-1
 73 1218 l 1,0,-1
EndSplineSet
EndChar

StartChar: plus
Encoding: 43 43 13
Width: 945
Flags: W
LayerCount: 2
Fore
SplineSet
73 1029 m 1,0,-1
 178 1050 l 1,1,-1
 262 1050 l 1,2,-1
 304 1029 l 1,3,-1
 367 1029 l 1,4,-1
 388 1029 l 1,5,-1
 409 1092 l 1,6,-1
 430 1281 l 1,7,-1
 451 1302 l 1,8,-1
 493 1323 l 1,9,-1
 514 1323 l 1,10,-1
 535 1302 l 1,11,-1
 556 1260 l 1,12,-1
 556 1092 l 1,13,-1
 556 1050 l 1,14,-1
 850 1029 l 1,15,-1
 871 1008 l 1,16,-1
 892 966 l 1,17,-1
 892 903 l 1,18,-1
 871 882 l 1,19,-1
 514 861 l 1,20,-1
 493 735 l 1,21,-1
 472 567 l 1,22,-1
 451 546 l 1,23,-1
 388 525 l 1,24,-1
 367 546 l 1,25,-1
 346 588 l 1,26,-1
 346 735 l 1,27,-1
 367 798 l 1,28,-1
 388 861 l 1,29,-1
 262 882 l 1,30,-1
 220 903 l 1,31,-1
 94 903 l 1,32,-1
 94 924 l 1,33,-1
 73 924 l 1,34,-1
 52 1008 l 1,35,-1
 73 1029 l 1,0,-1
EndSplineSet
EndChar

StartChar: comma
Encoding: 44 44 14
Width: 546
Flags: W
LayerCount: 2
Fore
SplineSet
73 -146 m 1,0,-1
 115 -125 l 1,1,-1
 157 -83 l 1,2,-1
 199 -62 l 1,3,-1
 220 -20 l 1,4,-1
 241 21 l 1,5,-1
 262 42 l 1,6,-1
 283 84 l 1,7,-1
 304 126 l 1,8,-1
 325 168 l 1,9,-1
 346 399 l 1,10,-1
 388 483 l 1,11,-1
 409 504 l 1,12,-1
 493 483 l 1,13,-1
 493 126 l 1,14,-1
 472 105 l 1,15,-1
 430 63 l 1,16,-1
 409 21 l 1,17,-1
 388 -41 l 1,18,-1
 367 -62 l 1,19,-1
 367 -83 l 1,20,-1
 367 -104 l 1,21,-1
 346 -125 l 1,22,-1
 325 -146 l 1,23,-1
 304 -167 l 1,24,-1
 283 -188 l 1,25,-1
 262 -209 l 1,26,-1
 178 -251 l 1,27,-1
 94 -272 l 1,28,-1
 73 -272 l 1,29,-1
 52 -167 l 1,30,-1
 73 -146 l 1,0,-1
EndSplineSet
EndChar

StartChar: period
Encoding: 46 46 15
Width: 670
Flags: W
LayerCount: 2
Fore
SplineSet
230 231 m 1,0,-1
 272 252 l 1,1,-1
 293 252 l 1,2,-1
 314 252 l 1,3,-1
 482 210 l 1,4,-1
 503 210 l 1,5,-1
 503 189 l 1,6,-1
 545 0 l 1,7,-1
 482 -41 l 1,8,-1
 461 -62 l 1,9,-1
 377 -83 l 1,10,-1
 230 -104 l 1,11,-1
 230 -83 l 1,12,-1
 209 -83 l 1,13,-1
 188 210 l 1,14,-1
 230 231 l 1,0,-1
EndSplineSet
EndChar

StartChar: slash
Encoding: 47 47 16
Width: 1159
Flags: W
LayerCount: 2
Fore
SplineSet
235 504 m 1,0,-1
 256 546 l 1,1,-1
 277 588 l 1,2,-1
 298 630 l 1,3,-1
 340 714 l 1,4,-1
 382 735 l 1,5,-1
 403 777 l 1,6,-1
 424 819 l 1,7,-1
 445 861 l 1,8,-1
 466 903 l 1,9,-1
 487 945 l 1,10,-1
 529 1008 l 1,11,-1
 529 1029 l 1,12,-1
 571 1113 l 1,13,-1
 592 1134 l 1,14,-1
 613 1176 l 1,15,-1
 634 1239 l 1,16,-1
 655 1281 l 1,17,-1
 676 1323 l 1,18,-1
 718 1407 l 1,19,-1
 739 1428 l 1,20,-1
 760 1470 l 1,21,-1
 781 1512 l 1,22,-1
 802 1554 l 1,23,-1
 823 1596 l 1,24,-1
 865 1659 l 1,25,-1
 886 1680 l 1,26,-1
 928 1743 l 1,27,-1
 1033 1764 l 1,28,-1
 1075 1701 l 1,29,-1
 1054 1722 l 1,30,-1
 1054 1638 l 1,31,-1
 1012 1596 l 1,32,-1
 991 1554 l 1,33,-1
 970 1512 l 1,34,-1
 928 1470 l 1,35,-1
 907 1407 l 1,36,-1
 886 1365 l 1,37,-1
 886 1344 l 1,38,-1
 844 1302 l 1,39,-1
 844 1281 l 1,40,-1
 802 1239 l 1,41,-1
 781 1176 l 1,42,-1
 760 1134 l 1,43,-1
 739 1071 l 1,44,-1
 697 1029 l 1,45,-1
 676 966 l 1,46,-1
 634 924 l 1,47,-1
 613 882 l 1,48,-1
 592 840 l 1,49,-1
 571 798 l 1,50,-1
 550 756 l 1,51,-1
 529 693 l 1,52,-1
 508 651 l 1,53,-1
 487 630 l 1,54,-1
 445 588 l 1,55,-1
 424 546 l 1,56,-1
 403 483 l 1,57,-1
 361 441 l 1,58,-1
 340 336 l 1,59,-1
 340 273 l 1,60,-1
 256 252 l 1,61,-1
 235 252 l 1,62,-1
 214 483 l 1,63,-1
 235 504 l 1,0,-1
EndSplineSet
EndChar

StartChar: zero
Encoding: 48 48 17
Width: 1260
Flags: W
LayerCount: 2
Fore
SplineSet
388 1596 m 1,0,-1
 367 1533 l 1,1,-1
 325 1491 l 1,2,-1
 304 1386 l 1,3,-1
 304 1365 l 1,4,-1
 325 1323 l 1,5,-1
 367 1302 l 1,6,-1
 388 1260 l 1,7,-1
 430 1239 l 1,8,-1
 451 1197 l 1,9,-1
 493 1176 l 1,10,-1
 514 1134 l 1,11,-1
 535 1092 l 1,12,-1
 556 1050 l 1,13,-1
 598 1008 l 1,14,-1
 619 966 l 1,15,-1
 640 945 l 1,16,-1
 661 903 l 1,17,-1
 682 882 l 1,18,-1
 703 840 l 1,19,-1
 745 819 l 1,20,-1
 787 777 l 1,21,-1
 829 735 l 1,22,-1
 871 714 l 1,23,-1
 913 672 l 1,24,-1
 934 735 l 1,25,-1
 955 1155 l 1,26,-1
 955 1344 l 1,27,-1
 934 1386 l 1,28,-1
 913 1428 l 1,29,-1
 913 1491 l 1,30,-1
 871 1512 l 1,31,-1
 850 1554 l 1,32,-1
 829 1596 l 1,33,-1
 766 1617 l 1,34,-1
 745 1659 l 1,35,-1
 703 1680 l 1,36,-1
 682 1680 l 1,37,-1
 619 1638 l 1,38,-1
 598 1617 l 1,39,-1
 514 1596 l 1,40,-1
 409 1596 l 1,41,-1
 388 1596 l 1,0,-1
262 1155 m 1,42,-1
 241 1050 l 1,43,-1
 241 546 l 1,44,-1
 262 483 l 1,45,-1
 283 420 l 1,46,-1
 325 378 l 1,47,-1
 346 336 l 1,48,-1
 388 315 l 1,49,-1
 430 294 l 1,50,-1
 514 273 l 1,51,-1
 682 252 l 1,52,-1
 745 252 l 1,53,-1
 787 273 l 1,54,-1
 808 294 l 1,55,-1
 829 336 l 1,56,-1
 850 378 l 1,57,-1
 871 441 l 1,58,-1
 871 462 l 1,59,-1
 850 504 l 1,60,-1
 808 525 l 1,61,-1
 787 567 l 1,62,-1
 724 588 l 1,63,-1
 703 630 l 1,64,-1
 661 651 l 1,65,-1
 640 693 l 1,66,-1
 598 714 l 1,67,-1
 577 756 l 1,68,-1
 535 777 l 1,69,-1
 514 840 l 1,70,-1
 472 861 l 1,71,-1
 451 903 l 1,72,-1
 430 945 l 1,73,-1
 409 1008 l 1,74,-1
 388 1050 l 1,75,-1
 346 1071 l 1,76,-1
 325 1113 l 1,77,-1
 283 1155 l 1,78,-1
 262 1155 l 1,42,-1
73 1617 m 1,79,-1
 157 1617 l 1,80,-1
 199 1596 l 1,81,-1
 220 1596 l 1,82,-1
 241 1617 l 1,83,-1
 262 1659 l 1,84,-1
 283 1701 l 1,85,-1
 304 1722 l 1,86,-1
 346 1764 l 1,87,-1
 388 1785 l 1,88,-1
 514 1764 l 1,89,-1
 535 1764 l 1,90,-1
 556 1785 l 1,91,-1
 682 1806 l 1,92,-1
 808 1785 l 1,93,-1
 850 1764 l 1,94,-1
 913 1722 l 1,95,-1
 955 1701 l 1,96,-1
 976 1659 l 1,97,-1
 997 1617 l 1,98,-1
 1018 1554 l 1,99,-1
 1039 1533 l 1,100,-1
 1060 1491 l 1,101,-1
 1081 1470 l 1,102,-1
 1102 1428 l 1,103,-1
 1102 1092 l 1,104,-1
 1081 672 l 1,105,-1
 1081 609 l 1,106,-1
 1102 483 l 1,107,-1
 1123 441 l 1,108,-1
 1165 399 l 1,109,-1
 1207 357 l 1,110,-1
 1207 210 l 1,111,-1
 1186 189 l 1,112,-1
 1123 189 l 1,113,-1
 1081 210 l 1,114,-1
 1060 252 l 1,115,-1
 1039 294 l 1,116,-1
 997 315 l 1,117,-1
 997 294 l 1,118,-1
 955 252 l 1,119,-1
 934 189 l 1,120,-1
 892 168 l 1,121,-1
 871 147 l 1,122,-1
 829 126 l 1,123,-1
 787 105 l 1,124,-1
 598 105 l 1,125,-1
 451 126 l 1,126,-1
 367 147 l 1,127,-1
 325 168 l 1,128,-1
 262 189 l 1,129,-1
 241 252 l 1,130,-1
 178 273 l 1,131,-1
 157 357 l 1,132,-1
 136 399 l 1,133,-1
 115 462 l 1,134,-1
 115 441 l 1,135,-1
 94 861 l 1,136,-1
 115 1239 l 1,137,-1
 115 1260 l 1,138,-1
 157 1365 l 1,139,-1
 136 1386 l 1,140,-1
 94 1407 l 1,141,-1
 73 1449 l 1,142,-1
 52 1596 l 1,143,-1
 73 1617 l 1,79,-1
EndSplineSet
EndChar

StartChar: one
Encoding: 49 49 18
Width: 945
Flags: W
LayerCount: 2
Fore
SplineSet
73 126 m 1,0,-1
 136 147 l 1,1,-1
 73 147 l 1,2,-1
 325 168 l 1,3,-1
 367 252 l 1,4,-1
 346 168 l 1,5,-1
 388 525 l 1,6,-1
 388 546 l 1,7,-1
 388 1113 l 1,8,-1
 409 1638 l 1,9,-1
 346 1617 l 1,10,-1
 325 1596 l 1,11,-1
 178 1554 l 1,12,-1
 157 1617 l 1,13,-1
 178 1638 l 1,14,-1
 220 1680 l 1,15,-1
 262 1701 l 1,16,-1
 304 1722 l 1,17,-1
 346 1743 l 1,18,-1
 367 1743 l 1,19,-1
 388 1764 l 1,20,-1
 451 1785 l 1,21,-1
 472 1785 l 1,22,-1
 514 1617 l 1,23,-1
 493 1764 l 1,24,-1
 535 1197 l 1,25,-1
 535 840 l 1,26,-1
 535 483 l 1,27,-1
 514 210 l 1,28,-1
 514 189 l 1,29,-1
 850 168 l 1,30,-1
 871 126 l 1,31,-1
 892 42 l 1,32,-1
 850 21 l 1,33,-1
 115 21 l 1,34,-1
 73 21 l 1,35,-1
 52 105 l 1,36,-1
 73 126 l 1,0,-1
EndSplineSet
EndChar

StartChar: two
Encoding: 50 50 19
Width: 1302
Flags: W
LayerCount: 2
Fore
SplineSet
73 1407 m 1,0,-1
 94 1470 l 1,1,-1
 136 1533 l 1,2,-1
 157 1554 l 1,3,-1
 199 1596 l 1,4,-1
 220 1617 l 1,5,-1
 262 1680 l 1,6,-1
 304 1701 l 1,7,-1
 346 1722 l 1,8,-1
 577 1743 l 1,9,-1
 640 1722 l 1,10,-1
 682 1722 l 1,11,-1
 745 1680 l 1,12,-1
 787 1659 l 1,13,-1
 808 1617 l 1,14,-1
 829 1575 l 1,15,-1
 871 1491 l 1,16,-1
 892 1449 l 1,17,-1
 913 1407 l 1,18,-1
 934 1365 l 1,19,-1
 934 924 l 1,20,-1
 913 882 l 1,21,-1
 892 840 l 1,22,-1
 892 819 l 1,23,-1
 850 777 l 1,24,-1
 850 756 l 1,25,-1
 808 714 l 1,26,-1
 787 693 l 1,27,-1
 745 651 l 1,28,-1
 745 630 l 1,29,-1
 703 588 l 1,30,-1
 682 546 l 1,31,-1
 640 504 l 1,32,-1
 619 483 l 1,33,-1
 577 441 l 1,34,-1
 556 420 l 1,35,-1
 514 378 l 1,36,-1
 493 336 l 1,37,-1
 598 294 l 1,38,-1
 1165 315 l 1,39,-1
 1228 294 l 1,40,-1
 1249 252 l 1,41,-1
 1249 210 l 1,42,-1
 1228 168 l 1,43,-1
 1249 189 l 1,44,-1
 1060 147 l 1,45,-1
 1207 168 l 1,46,-1
 493 126 l 1,47,-1
 472 126 l 1,48,-1
 262 105 l 1,49,-1
 199 126 l 1,50,-1
 178 189 l 1,51,-1
 199 252 l 1,52,-1
 220 273 l 1,53,-1
 262 315 l 1,54,-1
 283 336 l 1,55,-1
 325 399 l 1,56,-1
 346 420 l 1,57,-1
 388 462 l 1,58,-1
 409 483 l 1,59,-1
 430 525 l 1,60,-1
 472 567 l 1,61,-1
 493 588 l 1,62,-1
 535 630 l 1,63,-1
 535 651 l 1,64,-1
 577 693 l 1,65,-1
 598 714 l 1,66,-1
 640 777 l 1,67,-1
 661 798 l 1,68,-1
 682 840 l 1,69,-1
 703 861 l 1,70,-1
 745 903 l 1,71,-1
 766 966 l 1,72,-1
 787 987 l 1,73,-1
 787 1281 l 1,74,-1
 766 1386 l 1,75,-1
 724 1407 l 1,76,-1
 703 1449 l 1,77,-1
 682 1512 l 1,78,-1
 640 1533 l 1,79,-1
 619 1575 l 1,80,-1
 577 1596 l 1,81,-1
 472 1596 l 1,82,-1
 430 1575 l 1,83,-1
 388 1554 l 1,84,-1
 346 1533 l 1,85,-1
 304 1512 l 1,86,-1
 262 1470 l 1,87,-1
 241 1428 l 1,88,-1
 199 1386 l 1,89,-1
 178 1344 l 1,90,-1
 136 1323 l 1,91,-1
 73 1323 l 1,92,-1
 52 1407 l 1,93,-1
 73 1407 l 1,0,-1
EndSplineSet
EndChar

StartChar: three
Encoding: 51 51 20
Width: 1134
Flags: W
LayerCount: 2
Fore
SplineSet
73 1701 m 1,0,-1
 199 1722 l 1,1,-1
 682 1722 l 1,2,-1
 745 1701 l 1,3,-1
 787 1680 l 1,4,-1
 850 1659 l 1,5,-1
 934 1638 l 1,6,-1
 976 1596 l 1,7,-1
 997 1554 l 1,8,-1
 997 1470 l 1,9,-1
 997 1449 l 1,10,-1
 955 1428 l 1,11,-1
 913 1407 l 1,12,-1
 871 1386 l 1,13,-1
 829 1344 l 1,14,-1
 808 1323 l 1,15,-1
 745 1302 l 1,16,-1
 724 1281 l 1,17,-1
 682 1260 l 1,18,-1
 556 1218 l 1,19,-1
 556 1197 l 1,20,-1
 619 1176 l 1,21,-1
 682 1155 l 1,22,-1
 724 1134 l 1,23,-1
 766 1092 l 1,24,-1
 808 1071 l 1,25,-1
 829 1029 l 1,26,-1
 871 1008 l 1,27,-1
 913 966 l 1,28,-1
 934 924 l 1,29,-1
 976 882 l 1,30,-1
 997 840 l 1,31,-1
 1039 819 l 1,32,-1
 1018 819 l 1,33,-1
 1060 693 l 1,34,-1
 1039 777 l 1,35,-1
 1081 315 l 1,36,-1
 1060 273 l 1,37,-1
 1039 252 l 1,38,-1
 997 210 l 1,39,-1
 976 189 l 1,40,-1
 934 168 l 1,41,-1
 892 147 l 1,42,-1
 787 105 l 1,43,-1
 829 126 l 1,44,-1
 388 84 l 1,45,-1
 367 105 l 1,46,-1
 241 126 l 1,47,-1
 220 168 l 1,48,-1
 157 189 l 1,49,-1
 136 210 l 1,50,-1
 136 189 l 1,51,-1
 115 336 l 1,52,-1
 136 357 l 1,53,-1
 199 357 l 1,54,-1
 262 336 l 1,55,-1
 304 315 l 1,56,-1
 367 294 l 1,57,-1
 409 273 l 1,58,-1
 472 252 l 1,59,-1
 682 252 l 1,60,-1
 745 273 l 1,61,-1
 829 294 l 1,62,-1
 871 315 l 1,63,-1
 892 336 l 1,64,-1
 913 378 l 1,65,-1
 913 588 l 1,66,-1
 892 714 l 1,67,-1
 871 777 l 1,68,-1
 829 798 l 1,69,-1
 808 840 l 1,70,-1
 766 861 l 1,71,-1
 766 903 l 1,72,-1
 724 924 l 1,73,-1
 703 966 l 1,74,-1
 640 987 l 1,75,-1
 598 1008 l 1,76,-1
 535 1029 l 1,77,-1
 493 1050 l 1,78,-1
 451 1071 l 1,79,-1
 388 1071 l 1,80,-1
 367 1113 l 1,81,-1
 325 1113 l 1,82,-1
 325 1134 l 1,83,-1
 304 1134 l 1,84,-1
 283 1260 l 1,85,-1
 304 1281 l 1,86,-1
 346 1302 l 1,87,-1
 388 1323 l 1,88,-1
 451 1344 l 1,89,-1
 493 1365 l 1,90,-1
 535 1386 l 1,91,-1
 577 1407 l 1,92,-1
 619 1428 l 1,93,-1
 661 1428 l 1,94,-1
 703 1470 l 1,95,-1
 745 1491 l 1,96,-1
 745 1533 l 1,97,-1
 661 1554 l 1,98,-1
 703 1554 l 1,99,-1
 94 1575 l 1,100,-1
 73 1596 l 1,101,-1
 52 1659 l 1,102,-1
 73 1701 l 1,0,-1
EndSplineSet
EndChar

StartChar: four
Encoding: 52 52 21
Width: 1113
Flags: W
LayerCount: 2
Fore
SplineSet
73 1197 m 1,0,-1
 94 1344 l 1,1,-1
 115 1449 l 1,2,-1
 136 1512 l 1,3,-1
 157 1554 l 1,4,-1
 178 1617 l 1,5,-1
 199 1743 l 1,6,-1
 220 1785 l 1,7,-1
 262 1869 l 1,8,-1
 304 1890 l 1,9,-1
 325 1890 l 1,10,-1
 346 1848 l 1,11,-1
 346 1743 l 1,12,-1
 325 1680 l 1,13,-1
 304 1596 l 1,14,-1
 283 1491 l 1,15,-1
 262 1428 l 1,16,-1
 241 1386 l 1,17,-1
 220 1260 l 1,18,-1
 220 1197 l 1,19,-1
 262 1176 l 1,20,-1
 325 1134 l 1,21,-1
 325 1155 l 1,22,-1
 493 1113 l 1,23,-1
 535 1659 l 1,24,-1
 535 1680 l 1,25,-1
 598 1701 l 1,26,-1
 640 1638 l 1,27,-1
 619 1701 l 1,28,-1
 661 1155 l 1,29,-1
 997 1113 l 1,30,-1
 1039 1113 l 1,31,-1
 1060 1071 l 1,32,-1
 1060 1008 l 1,33,-1
 1039 987 l 1,34,-1
 640 966 l 1,35,-1
 619 735 l 1,36,-1
 619 105 l 1,37,-1
 598 42 l 1,38,-1
 556 21 l 1,39,-1
 472 21 l 1,40,-1
 451 63 l 1,41,-1
 451 714 l 1,42,-1
 472 777 l 1,43,-1
 493 966 l 1,44,-1
 304 987 l 1,45,-1
 220 1008 l 1,46,-1
 178 1029 l 1,47,-1
 136 1050 l 1,48,-1
 94 1050 l 1,49,-1
 94 1071 l 1,50,-1
 73 1071 l 1,51,-1
 52 1155 l 1,52,-1
 73 1197 l 1,0,-1
EndSplineSet
EndChar

StartChar: five
Encoding: 53 53 22
Width: 987
Flags: W
LayerCount: 2
Fore
SplineSet
94 1344 m 1,0,-1
 115 1365 l 1,1,-1
 157 1554 l 1,2,-1
 136 1470 l 1,3,-1
 178 1743 l 1,4,-1
 178 1764 l 1,5,-1
 199 1785 l 1,6,-1
 850 1806 l 1,7,-1
 913 1785 l 1,8,-1
 934 1743 l 1,9,-1
 934 1722 l 1,10,-1
 913 1659 l 1,11,-1
 850 1659 l 1,12,-1
 346 1659 l 1,13,-1
 325 1533 l 1,14,-1
 304 1470 l 1,15,-1
 283 1323 l 1,16,-1
 262 1281 l 1,17,-1
 241 1239 l 1,18,-1
 220 1176 l 1,19,-1
 220 1071 l 1,20,-1
 283 1071 l 1,21,-1
 451 1092 l 1,22,-1
 493 1113 l 1,23,-1
 661 1113 l 1,24,-1
 703 1071 l 1,25,-1
 745 1050 l 1,26,-1
 766 1008 l 1,27,-1
 808 987 l 1,28,-1
 829 945 l 1,29,-1
 850 903 l 1,30,-1
 871 819 l 1,31,-1
 892 714 l 1,32,-1
 913 651 l 1,33,-1
 892 399 l 1,34,-1
 850 357 l 1,35,-1
 829 315 l 1,36,-1
 787 273 l 1,37,-1
 766 231 l 1,38,-1
 745 189 l 1,39,-1
 724 147 l 1,40,-1
 682 126 l 1,41,-1
 598 105 l 1,42,-1
 619 126 l 1,43,-1
 367 84 l 1,44,-1
 346 126 l 1,45,-1
 283 147 l 1,46,-1
 241 168 l 1,47,-1
 178 189 l 1,48,-1
 157 231 l 1,49,-1
 115 252 l 1,50,-1
 94 336 l 1,51,-1
 115 399 l 1,52,-1
 199 399 l 1,53,-1
 241 378 l 1,54,-1
 262 357 l 1,55,-1
 304 336 l 1,56,-1
 346 315 l 1,57,-1
 388 273 l 1,58,-1
 388 294 l 1,59,-1
 514 252 l 1,60,-1
 430 273 l 1,61,-1
 619 273 l 1,62,-1
 661 315 l 1,63,-1
 682 378 l 1,64,-1
 682 399 l 1,65,-1
 724 441 l 1,66,-1
 745 441 l 1,67,-1
 766 525 l 1,68,-1
 766 630 l 1,69,-1
 745 693 l 1,70,-1
 724 840 l 1,71,-1
 682 840 l 1,72,-1
 661 882 l 1,73,-1
 640 924 l 1,74,-1
 556 945 l 1,75,-1
 535 945 l 1,76,-1
 241 903 l 1,77,-1
 220 882 l 1,78,-1
 199 882 l 1,79,-1
 94 840 l 1,80,-1
 73 882 l 1,81,-1
 73 861 l 1,82,-1
 52 1218 l 1,83,-1
 94 1344 l 1,0,-1
EndSplineSet
EndChar

StartChar: six
Encoding: 54 54 23
Width: 966
Flags: W
LayerCount: 2
Fore
SplineSet
241 735 m 1,0,-1
 241 483 l 1,1,-1
 241 462 l 1,2,-1
 283 357 l 1,3,-1
 283 315 l 1,4,-1
 325 252 l 1,5,-1
 409 231 l 1,6,-1
 577 231 l 1,7,-1
 619 252 l 1,8,-1
 640 273 l 1,9,-1
 682 315 l 1,10,-1
 703 336 l 1,11,-1
 724 378 l 1,12,-1
 766 504 l 1,13,-1
 745 462 l 1,14,-1
 745 567 l 1,15,-1
 703 588 l 1,16,-1
 682 651 l 1,17,-1
 640 672 l 1,18,-1
 619 714 l 1,19,-1
 577 735 l 1,20,-1
 598 735 l 1,21,-1
 388 756 l 1,22,-1
 367 735 l 1,23,-1
 262 735 l 1,24,-1
 241 735 l 1,0,-1
73 987 m 1,25,-1
 94 1071 l 1,26,-1
 115 1176 l 1,27,-1
 136 1260 l 1,28,-1
 157 1302 l 1,29,-1
 178 1323 l 1,30,-1
 220 1386 l 1,31,-1
 199 1365 l 1,32,-1
 241 1491 l 1,33,-1
 262 1512 l 1,34,-1
 283 1554 l 1,35,-1
 304 1596 l 1,36,-1
 346 1659 l 1,37,-1
 367 1680 l 1,38,-1
 409 1722 l 1,39,-1
 430 1743 l 1,40,-1
 640 1764 l 1,41,-1
 661 1764 l 1,42,-1
 661 1743 l 1,43,-1
 682 1701 l 1,44,-1
 682 1680 l 1,45,-1
 556 1638 l 1,46,-1
 535 1617 l 1,47,-1
 514 1596 l 1,48,-1
 472 1575 l 1,49,-1
 451 1533 l 1,50,-1
 430 1491 l 1,51,-1
 409 1449 l 1,52,-1
 388 1407 l 1,53,-1
 367 1365 l 1,54,-1
 346 1302 l 1,55,-1
 325 1260 l 1,56,-1
 304 1218 l 1,57,-1
 283 1134 l 1,58,-1
 262 1029 l 1,59,-1
 241 987 l 1,60,-1
 220 924 l 1,61,-1
 220 861 l 1,62,-1
 220 840 l 1,63,-1
 241 861 l 1,64,-1
 262 882 l 1,65,-1
 283 903 l 1,66,-1
 619 924 l 1,67,-1
 661 903 l 1,68,-1
 703 861 l 1,69,-1
 724 840 l 1,70,-1
 745 798 l 1,71,-1
 787 777 l 1,72,-1
 829 735 l 1,73,-1
 850 693 l 1,74,-1
 871 651 l 1,75,-1
 892 609 l 1,76,-1
 913 567 l 1,77,-1
 913 399 l 1,78,-1
 892 336 l 1,79,-1
 871 252 l 1,80,-1
 829 210 l 1,81,-1
 808 189 l 1,82,-1
 766 147 l 1,83,-1
 745 126 l 1,84,-1
 703 105 l 1,85,-1
 661 84 l 1,86,-1
 325 84 l 1,87,-1
 241 105 l 1,88,-1
 199 105 l 1,89,-1
 199 126 l 1,90,-1
 178 126 l 1,91,-1
 157 210 l 1,92,-1
 136 231 l 1,93,-1
 115 378 l 1,94,-1
 115 294 l 1,95,-1
 94 651 l 1,96,-1
 73 735 l 1,97,-1
 73 714 l 1,98,-1
 52 945 l 1,99,-1
 73 987 l 1,25,-1
EndSplineSet
EndChar

StartChar: seven
Encoding: 55 55 24
Width: 1323
Flags: W
LayerCount: 2
Fore
SplineSet
73 1806 m 1,0,-1
 178 1827 l 1,1,-1
 304 1848 l 1,2,-1
 850 1848 l 1,3,-1
 1039 1827 l 1,4,-1
 1186 1806 l 1,5,-1
 1228 1785 l 1,6,-1
 1270 1743 l 1,7,-1
 1270 1617 l 1,8,-1
 1249 1596 l 1,9,-1
 1207 1575 l 1,10,-1
 1186 1533 l 1,11,-1
 1144 1491 l 1,12,-1
 1123 1470 l 1,13,-1
 1081 1428 l 1,14,-1
 1060 1407 l 1,15,-1
 1018 1365 l 1,16,-1
 997 1344 l 1,17,-1
 955 1302 l 1,18,-1
 934 1281 l 1,19,-1
 892 1260 l 1,20,-1
 871 1218 l 1,21,-1
 829 1176 l 1,22,-1
 808 1134 l 1,23,-1
 787 1092 l 1,24,-1
 766 1050 l 1,25,-1
 724 1008 l 1,26,-1
 703 945 l 1,27,-1
 682 882 l 1,28,-1
 640 840 l 1,29,-1
 619 777 l 1,30,-1
 598 714 l 1,31,-1
 577 672 l 1,32,-1
 556 609 l 1,33,-1
 535 567 l 1,34,-1
 514 504 l 1,35,-1
 493 399 l 1,36,-1
 472 315 l 1,37,-1
 451 273 l 1,38,-1
 430 126 l 1,39,-1
 409 105 l 1,40,-1
 346 105 l 1,41,-1
 304 126 l 1,42,-1
 304 357 l 1,43,-1
 325 441 l 1,44,-1
 346 546 l 1,45,-1
 367 630 l 1,46,-1
 388 672 l 1,47,-1
 409 714 l 1,48,-1
 430 756 l 1,49,-1
 451 798 l 1,50,-1
 472 861 l 1,51,-1
 493 903 l 1,52,-1
 514 945 l 1,53,-1
 556 1050 l 1,54,-1
 577 1071 l 1,55,-1
 598 1092 l 1,56,-1
 640 1176 l 1,57,-1
 661 1197 l 1,58,-1
 682 1239 l 1,59,-1
 724 1302 l 1,60,-1
 745 1323 l 1,61,-1
 766 1365 l 1,62,-1
 808 1407 l 1,63,-1
 850 1428 l 1,64,-1
 892 1470 l 1,65,-1
 913 1491 l 1,66,-1
 955 1533 l 1,67,-1
 976 1554 l 1,68,-1
 1018 1596 l 1,69,-1
 1039 1617 l 1,70,-1
 1018 1638 l 1,71,-1
 1060 1638 l 1,72,-1
 808 1659 l 1,73,-1
 997 1659 l 1,74,-1
 367 1680 l 1,75,-1
 346 1680 l 1,76,-1
 178 1659 l 1,77,-1
 178 1680 l 1,78,-1
 94 1680 l 1,79,-1
 73 1680 l 1,80,-1
 52 1785 l 1,81,-1
 73 1806 l 1,0,-1
EndSplineSet
EndChar

StartChar: eight
Encoding: 56 56 25
Width: 966
Flags: W
LayerCount: 2
Fore
SplineSet
451 945 m 1,0,-1
 388 924 l 1,1,-1
 367 903 l 1,2,-1
 325 861 l 1,3,-1
 304 819 l 1,4,-1
 283 777 l 1,5,-1
 262 714 l 1,6,-1
 241 672 l 1,7,-1
 220 630 l 1,8,-1
 199 504 l 1,9,-1
 220 483 l 1,10,-1
 262 462 l 1,11,-1
 283 441 l 1,12,-1
 325 420 l 1,13,-1
 388 378 l 1,14,-1
 430 357 l 1,15,-1
 472 336 l 1,16,-1
 640 336 l 1,17,-1
 661 357 l 1,18,-1
 682 399 l 1,19,-1
 703 420 l 1,20,-1
 724 462 l 1,21,-1
 745 504 l 1,22,-1
 766 546 l 1,23,-1
 766 651 l 1,24,-1
 745 693 l 1,25,-1
 724 735 l 1,26,-1
 703 798 l 1,27,-1
 661 819 l 1,28,-1
 640 861 l 1,29,-1
 598 882 l 1,30,-1
 556 882 l 1,31,-1
 535 924 l 1,32,-1
 472 945 l 1,33,-1
 451 945 l 1,0,-1
514 1218 m 1,34,-1
 556 1239 l 1,35,-1
 598 1260 l 1,36,-1
 619 1281 l 1,37,-1
 661 1323 l 1,38,-1
 682 1344 l 1,39,-1
 724 1491 l 1,40,-1
 703 1407 l 1,41,-1
 703 1575 l 1,42,-1
 661 1596 l 1,43,-1
 640 1638 l 1,44,-1
 556 1638 l 1,45,-1
 388 1617 l 1,46,-1
 325 1575 l 1,47,-1
 304 1554 l 1,48,-1
 283 1386 l 1,49,-1
 304 1344 l 1,50,-1
 346 1281 l 1,51,-1
 367 1239 l 1,52,-1
 409 1218 l 1,53,-1
 472 1197 l 1,54,-1
 514 1218 l 1,34,-1
73 693 m 1,55,-1
 94 777 l 1,56,-1
 115 798 l 1,57,-1
 136 840 l 1,58,-1
 157 882 l 1,59,-1
 199 987 l 1,60,-1
 220 1008 l 1,61,-1
 262 1050 l 1,62,-1
 283 1071 l 1,63,-1
 283 1092 l 1,64,-1
 283 1134 l 1,65,-1
 241 1155 l 1,66,-1
 199 1176 l 1,67,-1
 178 1218 l 1,68,-1
 157 1260 l 1,69,-1
 136 1323 l 1,70,-1
 136 1302 l 1,71,-1
 115 1512 l 1,72,-1
 115 1533 l 1,73,-1
 136 1575 l 1,74,-1
 157 1617 l 1,75,-1
 178 1638 l 1,76,-1
 199 1680 l 1,77,-1
 220 1701 l 1,78,-1
 262 1743 l 1,79,-1
 409 1764 l 1,80,-1
 493 1785 l 1,81,-1
 661 1806 l 1,82,-1
 682 1806 l 1,83,-1
 682 1785 l 1,84,-1
 703 1785 l 1,85,-1
 766 1743 l 1,86,-1
 808 1680 l 1,87,-1
 829 1638 l 1,88,-1
 850 1575 l 1,89,-1
 871 1533 l 1,90,-1
 871 1386 l 1,91,-1
 850 1344 l 1,92,-1
 829 1260 l 1,93,-1
 808 1239 l 1,94,-1
 766 1197 l 1,95,-1
 745 1176 l 1,96,-1
 703 1134 l 1,97,-1
 682 1113 l 1,98,-1
 619 1071 l 1,99,-1
 619 1050 l 1,100,-1
 661 1029 l 1,101,-1
 703 1008 l 1,102,-1
 745 987 l 1,103,-1
 766 945 l 1,104,-1
 808 924 l 1,105,-1
 829 882 l 1,106,-1
 871 819 l 1,107,-1
 892 777 l 1,108,-1
 913 735 l 1,109,-1
 913 462 l 1,110,-1
 913 420 l 1,111,-1
 871 378 l 1,112,-1
 850 336 l 1,113,-1
 808 294 l 1,114,-1
 787 252 l 1,115,-1
 787 231 l 1,116,-1
 745 210 l 1,117,-1
 724 210 l 1,118,-1
 493 168 l 1,119,-1
 472 147 l 1,120,-1
 451 168 l 1,121,-1
 325 189 l 1,122,-1
 304 210 l 1,123,-1
 283 252 l 1,124,-1
 241 273 l 1,125,-1
 220 273 l 1,126,-1
 220 294 l 1,127,-1
 136 315 l 1,128,-1
 115 357 l 1,129,-1
 73 378 l 1,130,-1
 73 357 l 1,131,-1
 52 609 l 1,132,-1
 73 693 l 1,55,-1
EndSplineSet
EndChar

StartChar: nine
Encoding: 57 57 26
Width: 777
Flags: W
LayerCount: 2
Fore
SplineSet
472 987 m 1,0,-1
 493 1008 l 1,1,-1
 514 1050 l 1,2,-1
 535 1071 l 1,3,-1
 577 1113 l 1,4,-1
 556 1092 l 1,5,-1
 598 1407 l 1,6,-1
 556 1428 l 1,7,-1
 535 1470 l 1,8,-1
 409 1491 l 1,9,-1
 388 1491 l 1,10,-1
 325 1449 l 1,11,-1
 304 1407 l 1,12,-1
 304 1386 l 1,13,-1
 262 1344 l 1,14,-1
 241 1302 l 1,15,-1
 220 1008 l 1,16,-1
 241 987 l 1,17,-1
 283 966 l 1,18,-1
 451 966 l 1,19,-1
 472 987 l 1,0,-1
73 1344 m 1,20,-1
 94 1386 l 1,21,-1
 115 1428 l 1,22,-1
 136 1449 l 1,23,-1
 178 1533 l 1,24,-1
 199 1554 l 1,25,-1
 241 1596 l 1,26,-1
 262 1596 l 1,27,-1
 304 1638 l 1,28,-1
 619 1638 l 1,29,-1
 640 1596 l 1,30,-1
 682 1575 l 1,31,-1
 703 1533 l 1,32,-1
 724 1491 l 1,33,-1
 724 1113 l 1,34,-1
 703 945 l 1,35,-1
 682 903 l 1,36,-1
 661 777 l 1,37,-1
 640 672 l 1,38,-1
 640 651 l 1,39,-1
 619 525 l 1,40,-1
 577 483 l 1,41,-1
 556 399 l 1,42,-1
 535 357 l 1,43,-1
 514 315 l 1,44,-1
 493 273 l 1,45,-1
 451 231 l 1,46,-1
 430 189 l 1,47,-1
 409 147 l 1,48,-1
 367 147 l 1,49,-1
 346 273 l 1,50,-1
 367 294 l 1,51,-1
 388 336 l 1,52,-1
 409 378 l 1,53,-1
 430 420 l 1,54,-1
 451 504 l 1,55,-1
 472 546 l 1,56,-1
 493 588 l 1,57,-1
 514 714 l 1,58,-1
 535 798 l 1,59,-1
 493 798 l 1,60,-1
 241 798 l 1,61,-1
 199 819 l 1,62,-1
 157 840 l 1,63,-1
 94 861 l 1,64,-1
 73 903 l 1,65,-1
 73 882 l 1,66,-1
 52 1302 l 1,67,-1
 73 1344 l 1,20,-1
EndSplineSet
EndChar

StartChar: colon
Encoding: 58 58 27
Width: 603
Flags: W
LayerCount: 2
Fore
SplineSet
230 1353 m 1,0,-1
 356 1353 l 1,1,-1
 377 1353 l 1,2,-1
 419 1143 l 1,3,-1
 377 1122 l 1,4,-1
 314 1101 l 1,5,-1
 251 1122 l 1,6,-1
 230 1332 l 1,7,-1
 230 1353 l 1,0,-1
209 366 m 1,8,-1
 335 366 l 1,9,-1
 398 345 l 1,10,-1
 419 219 l 1,11,-1
 398 156 l 1,12,-1
 251 135 l 1,13,-1
 251 156 l 1,14,-1
 230 156 l 1,15,-1
 209 345 l 1,16,-1
 209 366 l 1,8,-1
EndSplineSet
EndChar

StartChar: semicolon
Encoding: 59 59 28
Width: 622
Flags: W
LayerCount: 2
Fore
SplineSet
313 1458 m 1,0,-1
 418 1458 l 1,1,-1
 439 1437 l 1,2,-1
 439 1269 l 1,3,-1
 355 1248 l 1,4,-1
 334 1248 l 1,5,-1
 313 1437 l 1,6,-1
 313 1458 l 1,0,-1
208 282 m 1,7,-1
 250 324 l 1,8,-1
 250 345 l 1,9,-1
 292 429 l 1,10,-1
 313 492 l 1,11,-1
 313 513 l 1,12,-1
 334 534 l 1,13,-1
 418 555 l 1,14,-1
 439 534 l 1,15,-1
 439 429 l 1,16,-1
 418 324 l 1,17,-1
 418 303 l 1,18,-1
 376 261 l 1,19,-1
 355 240 l 1,20,-1
 313 198 l 1,21,-1
 292 156 l 1,22,-1
 229 135 l 1,23,-1
 208 135 l 1,24,-1
 187 240 l 1,25,-1
 208 282 l 1,7,-1
EndSplineSet
EndChar

StartChar: less
Encoding: 60 60 29
Width: 903
Flags: W
LayerCount: 2
Fore
SplineSet
73 1029 m 1,0,-1
 94 1050 l 1,1,-1
 136 1092 l 1,2,-1
 157 1113 l 1,3,-1
 199 1155 l 1,4,-1
 241 1176 l 1,5,-1
 262 1197 l 1,6,-1
 304 1239 l 1,7,-1
 367 1239 l 1,8,-1
 409 1281 l 1,9,-1
 451 1281 l 1,10,-1
 493 1323 l 1,11,-1
 535 1344 l 1,12,-1
 577 1365 l 1,13,-1
 619 1386 l 1,14,-1
 745 1407 l 1,15,-1
 829 1386 l 1,16,-1
 829 1302 l 1,17,-1
 808 1281 l 1,18,-1
 661 1239 l 1,19,-1
 640 1218 l 1,20,-1
 577 1176 l 1,21,-1
 556 1155 l 1,22,-1
 472 1134 l 1,23,-1
 451 1113 l 1,24,-1
 409 1092 l 1,25,-1
 367 1071 l 1,26,-1
 346 1050 l 1,27,-1
 304 1008 l 1,28,-1
 283 987 l 1,29,-1
 241 945 l 1,30,-1
 262 924 l 1,31,-1
 283 903 l 1,32,-1
 325 882 l 1,33,-1
 388 840 l 1,34,-1
 430 819 l 1,35,-1
 472 798 l 1,36,-1
 493 756 l 1,37,-1
 535 735 l 1,38,-1
 577 693 l 1,39,-1
 619 672 l 1,40,-1
 682 651 l 1,41,-1
 724 630 l 1,42,-1
 745 609 l 1,43,-1
 787 588 l 1,44,-1
 808 546 l 1,45,-1
 850 483 l 1,46,-1
 829 462 l 1,47,-1
 829 441 l 1,48,-1
 724 399 l 1,49,-1
 703 420 l 1,50,-1
 682 462 l 1,51,-1
 640 483 l 1,52,-1
 661 483 l 1,53,-1
 514 504 l 1,54,-1
 493 525 l 1,55,-1
 472 567 l 1,56,-1
 430 588 l 1,57,-1
 409 630 l 1,58,-1
 367 630 l 1,59,-1
 346 672 l 1,60,-1
 325 672 l 1,61,-1
 325 693 l 1,62,-1
 241 714 l 1,63,-1
 220 756 l 1,64,-1
 157 777 l 1,65,-1
 136 819 l 1,66,-1
 94 840 l 1,67,-1
 73 882 l 1,68,-1
 73 861 l 1,69,-1
 52 1008 l 1,70,-1
 73 1029 l 1,0,-1
EndSplineSet
EndChar

StartChar: equal
Encoding: 61 61 30
Width: 1029
Flags: W
LayerCount: 2
Fore
SplineSet
115 798 m 1,0,-1
 157 819 l 1,1,-1
 934 819 l 1,2,-1
 955 777 l 1,3,-1
 976 756 l 1,4,-1
 955 693 l 1,5,-1
 913 672 l 1,6,-1
 262 651 l 1,7,-1
 262 672 l 1,8,-1
 136 672 l 1,9,-1
 115 672 l 1,10,-1
 94 777 l 1,11,-1
 115 798 l 1,0,-1
94 1344 m 1,12,-1
 703 1344 l 1,13,-1
 892 1323 l 1,14,-1
 934 1302 l 1,15,-1
 976 1281 l 1,16,-1
 976 1239 l 1,17,-1
 976 1176 l 1,18,-1
 934 1155 l 1,19,-1
 640 1155 l 1,20,-1
 619 1176 l 1,21,-1
 178 1197 l 1,22,-1
 157 1197 l 1,23,-1
 94 1176 l 1,24,-1
 73 1197 l 1,25,-1
 52 1281 l 1,26,-1
 94 1344 l 1,12,-1
EndSplineSet
EndChar

StartChar: greater
Encoding: 62 62 31
Width: 966
Flags: W
LayerCount: 2
Fore
SplineSet
94 1512 m 1,0,-1
 199 1512 l 1,1,-1
 304 1470 l 1,2,-1
 346 1428 l 1,3,-1
 367 1407 l 1,4,-1
 409 1386 l 1,5,-1
 430 1365 l 1,6,-1
 472 1344 l 1,7,-1
 535 1302 l 1,8,-1
 577 1281 l 1,9,-1
 619 1260 l 1,10,-1
 661 1218 l 1,11,-1
 703 1197 l 1,12,-1
 745 1176 l 1,13,-1
 787 1155 l 1,14,-1
 829 1134 l 1,15,-1
 871 1092 l 1,16,-1
 892 1092 l 1,17,-1
 892 1071 l 1,18,-1
 913 987 l 1,19,-1
 913 966 l 1,20,-1
 892 945 l 1,21,-1
 745 903 l 1,22,-1
 724 882 l 1,23,-1
 682 861 l 1,24,-1
 577 840 l 1,25,-1
 535 819 l 1,26,-1
 451 777 l 1,27,-1
 430 756 l 1,28,-1
 388 714 l 1,29,-1
 367 693 l 1,30,-1
 283 672 l 1,31,-1
 241 651 l 1,32,-1
 157 651 l 1,33,-1
 115 672 l 1,34,-1
 115 756 l 1,35,-1
 157 798 l 1,36,-1
 199 819 l 1,37,-1
 262 840 l 1,38,-1
 304 861 l 1,39,-1
 346 903 l 1,40,-1
 388 924 l 1,41,-1
 430 945 l 1,42,-1
 472 966 l 1,43,-1
 514 987 l 1,44,-1
 640 1008 l 1,45,-1
 640 1029 l 1,46,-1
 619 1071 l 1,47,-1
 577 1092 l 1,48,-1
 514 1113 l 1,49,-1
 493 1155 l 1,50,-1
 430 1176 l 1,51,-1
 388 1197 l 1,52,-1
 367 1239 l 1,53,-1
 325 1239 l 1,54,-1
 304 1281 l 1,55,-1
 262 1302 l 1,56,-1
 220 1323 l 1,57,-1
 199 1365 l 1,58,-1
 136 1365 l 1,59,-1
 136 1386 l 1,60,-1
 94 1386 l 1,61,-1
 73 1386 l 1,62,-1
 52 1491 l 1,63,-1
 94 1512 l 1,0,-1
EndSplineSet
EndChar

StartChar: question
Encoding: 63 63 32
Width: 756
Flags: W
LayerCount: 2
Fore
SplineSet
283 399 m 1,0,-1
 388 399 l 1,1,-1
 409 378 l 1,2,-1
 409 294 l 1,3,-1
 388 189 l 1,4,-1
 325 168 l 1,5,-1
 304 168 l 1,6,-1
 283 378 l 1,7,-1
 283 399 l 1,0,-1
73 1701 m 1,8,-1
 115 1722 l 1,9,-1
 157 1764 l 1,10,-1
 178 1785 l 1,11,-1
 577 1806 l 1,12,-1
 619 1785 l 1,13,-1
 661 1743 l 1,14,-1
 682 1701 l 1,15,-1
 703 1575 l 1,16,-1
 682 1449 l 1,17,-1
 640 1407 l 1,18,-1
 619 1386 l 1,19,-1
 577 1344 l 1,20,-1
 556 1302 l 1,21,-1
 535 1281 l 1,22,-1
 493 1239 l 1,23,-1
 472 1218 l 1,24,-1
 451 1197 l 1,25,-1
 451 1155 l 1,26,-1
 451 1134 l 1,27,-1
 430 1113 l 1,28,-1
 409 1050 l 1,29,-1
 388 1008 l 1,30,-1
 367 882 l 1,31,-1
 367 945 l 1,32,-1
 346 714 l 1,33,-1
 325 693 l 1,34,-1
 283 672 l 1,35,-1
 241 672 l 1,36,-1
 199 693 l 1,37,-1
 199 924 l 1,38,-1
 220 987 l 1,39,-1
 241 1050 l 1,40,-1
 262 1092 l 1,41,-1
 283 1197 l 1,42,-1
 304 1260 l 1,43,-1
 346 1302 l 1,44,-1
 346 1323 l 1,45,-1
 367 1344 l 1,46,-1
 388 1365 l 1,47,-1
 409 1386 l 1,48,-1
 430 1407 l 1,49,-1
 451 1428 l 1,50,-1
 472 1449 l 1,51,-1
 493 1470 l 1,52,-1
 514 1491 l 1,53,-1
 556 1638 l 1,54,-1
 514 1638 l 1,55,-1
 493 1680 l 1,56,-1
 367 1680 l 1,57,-1
 241 1659 l 1,58,-1
 199 1638 l 1,59,-1
 178 1638 l 1,60,-1
 157 1617 l 1,61,-1
 136 1554 l 1,62,-1
 73 1512 l 1,63,-1
 52 1680 l 1,64,-1
 73 1701 l 1,8,-1
EndSplineSet
EndChar

StartChar: at
Encoding: 64 64 33
Width: 1239
Flags: W
LayerCount: 2
Fore
SplineSet
619 567 m 1,0,-1
 640 609 l 1,1,-1
 682 672 l 1,2,-1
 703 693 l 1,3,-1
 724 756 l 1,4,-1
 745 945 l 1,5,-1
 766 1071 l 1,6,-1
 703 1071 l 1,7,-1
 640 1050 l 1,8,-1
 598 1029 l 1,9,-1
 556 987 l 1,10,-1
 535 945 l 1,11,-1
 514 924 l 1,12,-1
 472 882 l 1,13,-1
 451 840 l 1,14,-1
 430 798 l 1,15,-1
 409 609 l 1,16,-1
 430 588 l 1,17,-1
 472 567 l 1,18,-1
 598 567 l 1,19,-1
 619 567 l 1,0,-1
73 882 m 1,20,-1
 94 987 l 1,21,-1
 115 1092 l 1,22,-1
 136 1134 l 1,23,-1
 157 1176 l 1,24,-1
 178 1197 l 1,25,-1
 220 1281 l 1,26,-1
 262 1302 l 1,27,-1
 304 1365 l 1,28,-1
 325 1386 l 1,29,-1
 346 1428 l 1,30,-1
 388 1470 l 1,31,-1
 409 1470 l 1,32,-1
 451 1512 l 1,33,-1
 493 1533 l 1,34,-1
 535 1554 l 1,35,-1
 913 1575 l 1,36,-1
 955 1575 l 1,37,-1
 997 1533 l 1,38,-1
 1039 1512 l 1,39,-1
 1060 1470 l 1,40,-1
 1102 1449 l 1,41,-1
 1123 1407 l 1,42,-1
 1144 1365 l 1,43,-1
 1165 1323 l 1,44,-1
 1186 1281 l 1,45,-1
 1186 756 l 1,46,-1
 1165 714 l 1,47,-1
 1144 630 l 1,48,-1
 1123 588 l 1,49,-1
 1102 546 l 1,50,-1
 1081 483 l 1,51,-1
 1060 420 l 1,52,-1
 1039 378 l 1,53,-1
 997 357 l 1,54,-1
 871 357 l 1,55,-1
 829 357 l 1,56,-1
 808 399 l 1,57,-1
 787 483 l 1,58,-1
 745 462 l 1,59,-1
 724 441 l 1,60,-1
 682 420 l 1,61,-1
 640 399 l 1,62,-1
 451 399 l 1,63,-1
 409 420 l 1,64,-1
 367 420 l 1,65,-1
 304 441 l 1,66,-1
 283 483 l 1,67,-1
 262 525 l 1,68,-1
 262 819 l 1,69,-1
 283 882 l 1,70,-1
 304 924 l 1,71,-1
 346 987 l 1,72,-1
 367 1008 l 1,73,-1
 409 1050 l 1,74,-1
 430 1071 l 1,75,-1
 472 1113 l 1,76,-1
 493 1134 l 1,77,-1
 535 1176 l 1,78,-1
 577 1197 l 1,79,-1
 661 1218 l 1,80,-1
 850 1239 l 1,81,-1
 913 1218 l 1,82,-1
 955 1155 l 1,83,-1
 913 1113 l 1,84,-1
 892 840 l 1,85,-1
 892 693 l 1,86,-1
 913 567 l 1,87,-1
 934 546 l 1,88,-1
 955 609 l 1,89,-1
 976 651 l 1,90,-1
 1018 735 l 1,91,-1
 997 693 l 1,92,-1
 1039 1281 l 1,93,-1
 997 1302 l 1,94,-1
 976 1344 l 1,95,-1
 955 1386 l 1,96,-1
 913 1407 l 1,97,-1
 934 1407 l 1,98,-1
 661 1428 l 1,99,-1
 640 1428 l 1,100,-1
 598 1407 l 1,101,-1
 556 1386 l 1,102,-1
 535 1365 l 1,103,-1
 472 1323 l 1,104,-1
 451 1281 l 1,105,-1
 409 1239 l 1,106,-1
 388 1218 l 1,107,-1
 346 1176 l 1,108,-1
 325 1134 l 1,109,-1
 283 1092 l 1,110,-1
 262 1050 l 1,111,-1
 241 882 l 1,112,-1
 241 945 l 1,113,-1
 220 546 l 1,114,-1
 220 504 l 1,115,-1
 241 483 l 1,116,-1
 262 441 l 1,117,-1
 283 399 l 1,118,-1
 304 357 l 1,119,-1
 325 315 l 1,120,-1
 346 294 l 1,121,-1
 367 252 l 1,122,-1
 409 231 l 1,123,-1
 430 189 l 1,124,-1
 451 189 l 1,125,-1
 451 168 l 1,126,-1
 472 168 l 1,127,-1
 535 126 l 1,128,-1
 493 147 l 1,129,-1
 850 105 l 1,130,-1
 913 84 l 1,131,-1
 976 105 l 1,132,-1
 997 105 l 1,133,-1
 1039 -20 l 1,134,-1
 1018 -41 l 1,135,-1
 850 -41 l 1,136,-1
 556 -20 l 1,137,-1
 472 -20 l 1,138,-1
 409 0 l 1,139,-1
 388 42 l 1,140,-1
 346 63 l 1,141,-1
 325 105 l 1,142,-1
 283 126 l 1,143,-1
 262 168 l 1,144,-1
 220 189 l 1,145,-1
 199 231 l 1,146,-1
 178 273 l 1,147,-1
 178 315 l 1,148,-1
 136 336 l 1,149,-1
 136 378 l 1,150,-1
 94 399 l 1,151,-1
 73 483 l 1,152,-1
 73 441 l 1,153,-1
 52 798 l 1,154,-1
 73 882 l 1,20,-1
EndSplineSet
EndChar

StartChar: A
Encoding: 65 65 34
Width: 924
Flags: W
LayerCount: 2
Fore
SplineSet
556 1407 m 1,0,-1
 535 1365 l 1,1,-1
 514 1260 l 1,2,-1
 493 1218 l 1,3,-1
 472 1113 l 1,4,-1
 451 1071 l 1,5,-1
 430 945 l 1,6,-1
 598 924 l 1,7,-1
 598 1197 l 1,8,-1
 577 1407 l 1,9,-1
 556 1407 l 1,0,-1
73 231 m 1,10,-1
 94 294 l 1,11,-1
 115 336 l 1,12,-1
 136 378 l 1,13,-1
 157 441 l 1,14,-1
 178 504 l 1,15,-1
 199 567 l 1,16,-1
 220 672 l 1,17,-1
 241 819 l 1,18,-1
 262 861 l 1,19,-1
 283 966 l 1,20,-1
 325 1092 l 1,21,-1
 325 1113 l 1,22,-1
 367 1302 l 1,23,-1
 388 1323 l 1,24,-1
 409 1428 l 1,25,-1
 430 1470 l 1,26,-1
 451 1512 l 1,27,-1
 472 1554 l 1,28,-1
 514 1659 l 1,29,-1
 598 1680 l 1,30,-1
 640 1659 l 1,31,-1
 661 1617 l 1,32,-1
 682 1512 l 1,33,-1
 682 1491 l 1,34,-1
 703 1491 l 1,35,-1
 724 1407 l 1,36,-1
 703 1407 l 1,37,-1
 745 1281 l 1,38,-1
 724 1365 l 1,39,-1
 766 945 l 1,40,-1
 829 903 l 1,41,-1
 850 903 l 1,42,-1
 850 882 l 1,43,-1
 871 882 l 1,44,-1
 850 819 l 1,45,-1
 787 777 l 1,46,-1
 787 735 l 1,47,-1
 808 630 l 1,48,-1
 829 588 l 1,49,-1
 850 399 l 1,50,-1
 850 210 l 1,51,-1
 829 189 l 1,52,-1
 766 189 l 1,53,-1
 724 210 l 1,54,-1
 703 336 l 1,55,-1
 682 567 l 1,56,-1
 661 609 l 1,57,-1
 640 777 l 1,58,-1
 388 777 l 1,59,-1
 367 672 l 1,60,-1
 346 630 l 1,61,-1
 325 525 l 1,62,-1
 304 483 l 1,63,-1
 283 399 l 1,64,-1
 262 357 l 1,65,-1
 241 315 l 1,66,-1
 220 273 l 1,67,-1
 199 231 l 1,68,-1
 178 147 l 1,69,-1
 157 126 l 1,70,-1
 157 105 l 1,71,-1
 157 84 l 1,72,-1
 73 42 l 1,73,-1
 52 147 l 1,74,-1
 73 231 l 1,10,-1
EndSplineSet
EndChar

StartChar: B
Encoding: 66 66 35
Width: 966
Flags: W
LayerCount: 2
Fore
SplineSet
409 882 m 1,0,-1
 283 882 l 1,1,-1
 262 756 l 1,2,-1
 241 525 l 1,3,-1
 220 420 l 1,4,-1
 220 336 l 1,5,-1
 199 273 l 1,6,-1
 409 231 l 1,7,-1
 472 252 l 1,8,-1
 514 294 l 1,9,-1
 556 315 l 1,10,-1
 598 357 l 1,11,-1
 619 378 l 1,12,-1
 640 420 l 1,13,-1
 661 441 l 1,14,-1
 703 483 l 1,15,-1
 724 504 l 1,16,-1
 745 546 l 1,17,-1
 787 630 l 1,18,-1
 745 651 l 1,19,-1
 703 672 l 1,20,-1
 682 735 l 1,21,-1
 640 756 l 1,22,-1
 619 819 l 1,23,-1
 577 840 l 1,24,-1
 493 861 l 1,25,-1
 430 882 l 1,26,-1
 409 882 l 1,0,-1
304 1512 m 1,27,-1
 304 1281 l 1,28,-1
 304 1218 l 1,29,-1
 283 1176 l 1,30,-1
 283 1071 l 1,31,-1
 451 1071 l 1,32,-1
 535 1092 l 1,33,-1
 556 1092 l 1,34,-1
 598 1134 l 1,35,-1
 661 1155 l 1,36,-1
 703 1197 l 1,37,-1
 724 1218 l 1,38,-1
 745 1260 l 1,39,-1
 787 1365 l 1,40,-1
 745 1386 l 1,41,-1
 766 1386 l 1,42,-1
 640 1407 l 1,43,-1
 619 1449 l 1,44,-1
 577 1470 l 1,45,-1
 514 1491 l 1,46,-1
 325 1512 l 1,47,-1
 304 1512 l 1,27,-1
94 546 m 1,48,-1
 94 567 l 1,49,-1
 136 798 l 1,50,-1
 115 693 l 1,51,-1
 157 1008 l 1,52,-1
 178 1323 l 1,53,-1
 199 1764 l 1,54,-1
 199 1785 l 1,55,-1
 262 1806 l 1,56,-1
 283 1785 l 1,57,-1
 304 1638 l 1,58,-1
 577 1617 l 1,59,-1
 640 1596 l 1,60,-1
 682 1575 l 1,61,-1
 745 1554 l 1,62,-1
 787 1533 l 1,63,-1
 829 1512 l 1,64,-1
 871 1491 l 1,65,-1
 892 1449 l 1,66,-1
 913 1407 l 1,67,-1
 913 1344 l 1,68,-1
 892 1239 l 1,69,-1
 871 1176 l 1,70,-1
 871 1155 l 1,71,-1
 829 1113 l 1,72,-1
 808 1092 l 1,73,-1
 766 1050 l 1,74,-1
 745 1029 l 1,75,-1
 661 1008 l 1,76,-1
 640 966 l 1,77,-1
 682 945 l 1,78,-1
 724 924 l 1,79,-1
 745 882 l 1,80,-1
 766 819 l 1,81,-1
 808 798 l 1,82,-1
 829 756 l 1,83,-1
 871 735 l 1,84,-1
 892 693 l 1,85,-1
 913 651 l 1,86,-1
 913 588 l 1,87,-1
 892 546 l 1,88,-1
 871 504 l 1,89,-1
 850 462 l 1,90,-1
 829 420 l 1,91,-1
 808 378 l 1,92,-1
 766 336 l 1,93,-1
 745 294 l 1,94,-1
 703 252 l 1,95,-1
 682 231 l 1,96,-1
 619 189 l 1,97,-1
 598 168 l 1,98,-1
 556 126 l 1,99,-1
 94 105 l 1,100,-1
 73 105 l 1,101,-1
 52 315 l 1,102,-1
 94 546 l 1,48,-1
EndSplineSet
EndChar

StartChar: C
Encoding: 67 67 36
Width: 945
Flags: W
LayerCount: 2
Fore
SplineSet
94 1029 m 1,0,-1
 115 1092 l 1,1,-1
 136 1155 l 1,2,-1
 157 1218 l 1,3,-1
 178 1239 l 1,4,-1
 199 1281 l 1,5,-1
 220 1344 l 1,6,-1
 262 1386 l 1,7,-1
 283 1407 l 1,8,-1
 325 1470 l 1,9,-1
 346 1491 l 1,10,-1
 388 1533 l 1,11,-1
 409 1554 l 1,12,-1
 451 1596 l 1,13,-1
 493 1617 l 1,14,-1
 535 1638 l 1,15,-1
 766 1638 l 1,16,-1
 829 1617 l 1,17,-1
 871 1596 l 1,18,-1
 892 1554 l 1,19,-1
 892 1470 l 1,20,-1
 871 1449 l 1,21,-1
 808 1449 l 1,22,-1
 766 1470 l 1,23,-1
 724 1491 l 1,24,-1
 598 1491 l 1,25,-1
 514 1449 l 1,26,-1
 493 1428 l 1,27,-1
 451 1386 l 1,28,-1
 430 1344 l 1,29,-1
 409 1323 l 1,30,-1
 367 1281 l 1,31,-1
 346 1197 l 1,32,-1
 325 1155 l 1,33,-1
 283 1113 l 1,34,-1
 262 1071 l 1,35,-1
 241 945 l 1,36,-1
 241 1029 l 1,37,-1
 220 651 l 1,38,-1
 220 609 l 1,39,-1
 262 546 l 1,40,-1
 283 504 l 1,41,-1
 304 462 l 1,42,-1
 325 420 l 1,43,-1
 346 378 l 1,44,-1
 367 336 l 1,45,-1
 388 315 l 1,46,-1
 409 273 l 1,47,-1
 451 231 l 1,48,-1
 661 231 l 1,49,-1
 682 252 l 1,50,-1
 724 273 l 1,51,-1
 724 294 l 1,52,-1
 745 315 l 1,53,-1
 829 336 l 1,54,-1
 850 336 l 1,55,-1
 892 252 l 1,56,-1
 892 315 l 1,57,-1
 871 189 l 1,58,-1
 829 147 l 1,59,-1
 808 126 l 1,60,-1
 766 105 l 1,61,-1
 745 84 l 1,62,-1
 367 84 l 1,63,-1
 325 105 l 1,64,-1
 283 126 l 1,65,-1
 283 189 l 1,66,-1
 241 210 l 1,67,-1
 220 315 l 1,68,-1
 199 315 l 1,69,-1
 199 336 l 1,70,-1
 178 336 l 1,71,-1
 157 420 l 1,72,-1
 136 441 l 1,73,-1
 94 462 l 1,74,-1
 73 546 l 1,75,-1
 73 525 l 1,76,-1
 52 945 l 1,77,-1
 94 1029 l 1,0,-1
EndSplineSet
EndChar

StartChar: D
Encoding: 68 68 37
Width: 987
Flags: W
LayerCount: 2
Fore
SplineSet
325 294 m 1,0,-1
 346 294 l 1,1,-1
 388 336 l 1,2,-1
 430 357 l 1,3,-1
 472 399 l 1,4,-1
 535 420 l 1,5,-1
 577 483 l 1,6,-1
 619 504 l 1,7,-1
 661 546 l 1,8,-1
 682 567 l 1,9,-1
 703 609 l 1,10,-1
 745 714 l 1,11,-1
 766 735 l 1,12,-1
 787 798 l 1,13,-1
 787 1134 l 1,14,-1
 766 1176 l 1,15,-1
 724 1197 l 1,16,-1
 703 1239 l 1,17,-1
 682 1281 l 1,18,-1
 682 1323 l 1,19,-1
 640 1344 l 1,20,-1
 598 1365 l 1,21,-1
 535 1386 l 1,22,-1
 472 1386 l 1,23,-1
 325 1407 l 1,24,-1
 325 1239 l 1,25,-1
 346 903 l 1,26,-1
 346 840 l 1,27,-1
 325 798 l 1,28,-1
 304 651 l 1,29,-1
 304 630 l 1,30,-1
 283 546 l 1,31,-1
 262 252 l 1,32,-1
 283 252 l 1,33,-1
 325 294 l 1,0,-1
73 252 m 1,34,-1
 94 504 l 1,35,-1
 115 546 l 1,36,-1
 157 693 l 1,37,-1
 136 630 l 1,38,-1
 178 840 l 1,39,-1
 157 714 l 1,40,-1
 199 1218 l 1,41,-1
 178 1239 l 1,42,-1
 199 1596 l 1,43,-1
 199 1617 l 1,44,-1
 262 1638 l 1,45,-1
 283 1617 l 1,46,-1
 325 1596 l 1,47,-1
 367 1575 l 1,48,-1
 409 1554 l 1,49,-1
 556 1533 l 1,50,-1
 619 1512 l 1,51,-1
 682 1491 l 1,52,-1
 724 1449 l 1,53,-1
 766 1428 l 1,54,-1
 787 1386 l 1,55,-1
 808 1344 l 1,56,-1
 850 1302 l 1,57,-1
 871 1260 l 1,58,-1
 913 1239 l 1,59,-1
 934 1197 l 1,60,-1
 934 735 l 1,61,-1
 913 693 l 1,62,-1
 892 651 l 1,63,-1
 850 609 l 1,64,-1
 829 525 l 1,65,-1
 787 483 l 1,66,-1
 766 441 l 1,67,-1
 745 420 l 1,68,-1
 703 399 l 1,69,-1
 682 378 l 1,70,-1
 640 336 l 1,71,-1
 619 315 l 1,72,-1
 577 294 l 1,73,-1
 556 273 l 1,74,-1
 514 231 l 1,75,-1
 493 210 l 1,76,-1
 451 189 l 1,77,-1
 409 168 l 1,78,-1
 367 126 l 1,79,-1
 346 105 l 1,80,-1
 304 84 l 1,81,-1
 241 42 l 1,82,-1
 262 63 l 1,83,-1
 94 21 l 1,84,-1
 73 42 l 1,85,-1
 73 21 l 1,86,-1
 52 147 l 1,87,-1
 73 252 l 1,34,-1
EndSplineSet
EndChar

StartChar: E
Encoding: 69 69 38
Width: 1008
Flags: W
LayerCount: 2
Fore
SplineSet
94 252 m 1,0,-1
 73 189 l 1,1,-1
 115 651 l 1,2,-1
 136 735 l 1,3,-1
 115 714 l 1,4,-1
 157 1071 l 1,5,-1
 136 1512 l 1,6,-1
 157 1596 l 1,7,-1
 199 1617 l 1,8,-1
 220 1617 l 1,9,-1
 220 1596 l 1,10,-1
 262 1533 l 1,11,-1
 325 1533 l 1,12,-1
 367 1554 l 1,13,-1
 514 1575 l 1,14,-1
 640 1596 l 1,15,-1
 619 1596 l 1,16,-1
 892 1617 l 1,17,-1
 913 1617 l 1,18,-1
 913 1596 l 1,19,-1
 955 1512 l 1,20,-1
 934 1491 l 1,21,-1
 892 1470 l 1,22,-1
 661 1449 l 1,23,-1
 493 1428 l 1,24,-1
 409 1407 l 1,25,-1
 283 1365 l 1,26,-1
 304 987 l 1,27,-1
 682 987 l 1,28,-1
 745 966 l 1,29,-1
 766 966 l 1,30,-1
 808 882 l 1,31,-1
 766 840 l 1,32,-1
 787 861 l 1,33,-1
 472 819 l 1,34,-1
 430 840 l 1,35,-1
 346 840 l 1,36,-1
 304 819 l 1,37,-1
 283 693 l 1,38,-1
 262 273 l 1,39,-1
 241 189 l 1,40,-1
 577 147 l 1,41,-1
 640 168 l 1,42,-1
 724 147 l 1,43,-1
 724 42 l 1,44,-1
 703 21 l 1,45,-1
 94 0 l 1,46,-1
 94 21 l 1,47,-1
 73 21 l 1,48,-1
 52 105 l 1,49,-1
 94 252 l 1,0,-1
EndSplineSet
EndChar

StartChar: F
Encoding: 70 70 39
Width: 1008
Flags: W
LayerCount: 2
Fore
SplineSet
73 1491 m 1,0,-1
 94 1512 l 1,1,-1
 136 1554 l 1,2,-1
 787 1575 l 1,3,-1
 829 1575 l 1,4,-1
 850 1533 l 1,5,-1
 850 1491 l 1,6,-1
 829 1449 l 1,7,-1
 199 1407 l 1,8,-1
 199 1050 l 1,9,-1
 934 1029 l 1,10,-1
 955 987 l 1,11,-1
 955 924 l 1,12,-1
 934 882 l 1,13,-1
 955 903 l 1,14,-1
 199 861 l 1,15,-1
 178 882 l 1,16,-1
 157 147 l 1,17,-1
 157 42 l 1,18,-1
 94 21 l 1,19,-1
 73 21 l 1,20,-1
 52 924 l 1,21,-1
 73 1491 l 1,0,-1
EndSplineSet
EndChar

StartChar: G
Encoding: 71 71 40
Width: 1302
Flags: W
LayerCount: 2
Fore
SplineSet
73 1113 m 1,0,-1
 94 1218 l 1,1,-1
 115 1281 l 1,2,-1
 136 1323 l 1,3,-1
 157 1386 l 1,4,-1
 199 1428 l 1,5,-1
 220 1449 l 1,6,-1
 262 1491 l 1,7,-1
 283 1512 l 1,8,-1
 325 1554 l 1,9,-1
 367 1575 l 1,10,-1
 409 1617 l 1,11,-1
 451 1638 l 1,12,-1
 493 1659 l 1,13,-1
 892 1680 l 1,14,-1
 913 1680 l 1,15,-1
 913 1659 l 1,16,-1
 955 1533 l 1,17,-1
 913 1512 l 1,18,-1
 871 1491 l 1,19,-1
 850 1512 l 1,20,-1
 829 1554 l 1,21,-1
 556 1533 l 1,22,-1
 535 1512 l 1,23,-1
 493 1491 l 1,24,-1
 451 1449 l 1,25,-1
 430 1428 l 1,26,-1
 367 1386 l 1,27,-1
 346 1344 l 1,28,-1
 304 1302 l 1,29,-1
 283 1239 l 1,30,-1
 262 1197 l 1,31,-1
 241 1113 l 1,32,-1
 241 1155 l 1,33,-1
 220 630 l 1,34,-1
 220 588 l 1,35,-1
 241 546 l 1,36,-1
 262 504 l 1,37,-1
 283 462 l 1,38,-1
 304 420 l 1,39,-1
 346 399 l 1,40,-1
 388 378 l 1,41,-1
 640 378 l 1,42,-1
 661 399 l 1,43,-1
 703 462 l 1,44,-1
 724 483 l 1,45,-1
 745 567 l 1,46,-1
 766 630 l 1,47,-1
 787 693 l 1,48,-1
 808 735 l 1,49,-1
 808 777 l 1,50,-1
 787 819 l 1,51,-1
 766 882 l 1,52,-1
 619 903 l 1,53,-1
 514 924 l 1,54,-1
 493 945 l 1,55,-1
 430 966 l 1,56,-1
 409 1008 l 1,57,-1
 409 1050 l 1,58,-1
 430 1092 l 1,59,-1
 577 1113 l 1,60,-1
 619 1092 l 1,61,-1
 766 1092 l 1,62,-1
 829 1092 l 1,63,-1
 892 1071 l 1,64,-1
 1018 1050 l 1,65,-1
 1081 1029 l 1,66,-1
 1144 1008 l 1,67,-1
 1186 987 l 1,68,-1
 1228 945 l 1,69,-1
 1249 924 l 1,70,-1
 1228 861 l 1,71,-1
 1186 840 l 1,72,-1
 1060 819 l 1,73,-1
 1039 861 l 1,74,-1
 997 882 l 1,75,-1
 955 882 l 1,76,-1
 955 840 l 1,77,-1
 955 672 l 1,78,-1
 934 630 l 1,79,-1
 913 588 l 1,80,-1
 892 525 l 1,81,-1
 871 420 l 1,82,-1
 850 378 l 1,83,-1
 829 357 l 1,84,-1
 787 315 l 1,85,-1
 766 294 l 1,86,-1
 724 252 l 1,87,-1
 703 231 l 1,88,-1
 661 210 l 1,89,-1
 346 210 l 1,90,-1
 304 231 l 1,91,-1
 262 252 l 1,92,-1
 220 273 l 1,93,-1
 199 315 l 1,94,-1
 157 336 l 1,95,-1
 136 378 l 1,96,-1
 115 441 l 1,97,-1
 94 483 l 1,98,-1
 73 588 l 1,99,-1
 73 546 l 1,100,-1
 52 1029 l 1,101,-1
 73 1113 l 1,0,-1
EndSplineSet
EndChar

StartChar: H
Encoding: 72 72 41
Width: 1092
Flags: W
LayerCount: 2
Fore
SplineSet
73 840 m 1,0,-1
 52 357 l 1,1,-1
 94 1764 l 1,2,-1
 94 1785 l 1,3,-1
 115 1806 l 1,4,-1
 178 1827 l 1,5,-1
 199 1806 l 1,6,-1
 220 1764 l 1,7,-1
 241 966 l 1,8,-1
 388 966 l 1,9,-1
 766 966 l 1,10,-1
 766 1407 l 1,11,-1
 745 1722 l 1,12,-1
 745 1785 l 1,13,-1
 787 1827 l 1,14,-1
 850 1827 l 1,15,-1
 871 1785 l 1,16,-1
 892 1491 l 1,17,-1
 913 987 l 1,18,-1
 955 945 l 1,19,-1
 976 924 l 1,20,-1
 955 861 l 1,21,-1
 913 819 l 1,22,-1
 913 672 l 1,23,-1
 934 609 l 1,24,-1
 955 420 l 1,25,-1
 976 378 l 1,26,-1
 997 273 l 1,27,-1
 1018 105 l 1,28,-1
 1018 84 l 1,29,-1
 1039 0 l 1,30,-1
 1039 -20 l 1,31,-1
 934 -62 l 1,32,-1
 913 -41 l 1,33,-1
 892 21 l 1,34,-1
 871 210 l 1,35,-1
 850 273 l 1,36,-1
 829 399 l 1,37,-1
 829 336 l 1,38,-1
 808 588 l 1,39,-1
 808 420 l 1,40,-1
 787 819 l 1,41,-1
 493 819 l 1,42,-1
 493 840 l 1,43,-1
 472 840 l 1,44,-1
 493 840 l 1,45,-1
 472 840 l 1,46,-1
 220 798 l 1,47,-1
 199 777 l 1,48,-1
 178 294 l 1,49,-1
 157 -20 l 1,50,-1
 94 -41 l 1,51,-1
 73 -41 l 1,52,-1
 52 357 l 1,53,-1
 73 840 l 1,0,-1
EndSplineSet
EndChar

StartChar: I
Encoding: 73 73 42
Width: 1281
Flags: W
LayerCount: 2
Fore
SplineSet
792 1618 m 1,0,-1
 1044 1637 l 1,1,-1
 1107 1618 l 1,2,-1
 1128 1618 l 1,3,-1
 1128 1599 l 1,4,-1
 1149 1561 l 1,5,-1
 1149 1542 l 1,6,-1
 1128 1524 l 1,7,-1
 1044 1486 l 1,8,-1
 1107 1505 l 1,9,-1
 582 1467 l 1,10,-1
 598 233 l 1,11,-1
 745 233 l 1,12,-1
 787 252 l 1,13,-1
 1186 271 l 1,14,-1
 1207 252 l 1,15,-1
 1228 214 l 1,16,-1
 1228 195 l 1,17,-1
 1207 158 l 1,18,-1
 1144 139 l 1,19,-1
 1102 120 l 1,20,-1
 1060 101 l 1,21,-1
 745 82 l 1,22,-1
 850 101 l 1,23,-1
 535 63 l 1,24,-1
 514 63 l 1,25,-1
 493 63 l 1,26,-1
 241 63 l 1,27,-1
 178 82 l 1,28,-1
 157 195 l 1,29,-1
 409 214 l 1,30,-1
 451 990 l 1,31,-1
 430 1008 l 1,32,-1
 435 1467 l 1,33,-1
 225 1486 l 1,34,-1
 183 1486 l 1,35,-1
 183 1505 l 1,36,-1
 99 1505 l 1,37,-1
 78 1505 l 1,38,-1
 57 1599 l 1,39,-1
 792 1618 l 1,0,-1
EndSplineSet
EndChar

StartChar: J
Encoding: 74 74 43
Width: 1113
Flags: W
LayerCount: 2
Fore
SplineSet
94 819 m 1,0,-1
 136 819 l 1,1,-1
 178 798 l 1,2,-1
 157 798 l 1,3,-1
 199 651 l 1,4,-1
 199 609 l 1,5,-1
 241 483 l 1,6,-1
 262 441 l 1,7,-1
 304 399 l 1,8,-1
 325 357 l 1,9,-1
 367 336 l 1,10,-1
 388 294 l 1,11,-1
 430 273 l 1,12,-1
 451 252 l 1,13,-1
 472 273 l 1,14,-1
 493 315 l 1,15,-1
 535 399 l 1,16,-1
 514 378 l 1,17,-1
 556 1008 l 1,18,-1
 556 1029 l 1,19,-1
 577 1554 l 1,20,-1
 514 1575 l 1,21,-1
 451 1596 l 1,22,-1
 409 1617 l 1,23,-1
 241 1617 l 1,24,-1
 241 1638 l 1,25,-1
 220 1638 l 1,26,-1
 199 1722 l 1,27,-1
 199 1743 l 1,28,-1
 220 1764 l 1,29,-1
 556 1785 l 1,30,-1
 598 1785 l 1,31,-1
 640 1764 l 1,32,-1
 661 1743 l 1,33,-1
 703 1722 l 1,34,-1
 829 1680 l 1,35,-1
 955 1701 l 1,36,-1
 1018 1680 l 1,37,-1
 1039 1680 l 1,38,-1
 1039 1659 l 1,39,-1
 1060 1596 l 1,40,-1
 1060 1575 l 1,41,-1
 1039 1554 l 1,42,-1
 745 1512 l 1,43,-1
 724 1008 l 1,44,-1
 703 966 l 1,45,-1
 703 546 l 1,46,-1
 682 294 l 1,47,-1
 640 252 l 1,48,-1
 619 210 l 1,49,-1
 598 168 l 1,50,-1
 577 126 l 1,51,-1
 556 105 l 1,52,-1
 409 105 l 1,53,-1
 346 126 l 1,54,-1
 325 168 l 1,55,-1
 262 189 l 1,56,-1
 241 231 l 1,57,-1
 199 252 l 1,58,-1
 178 294 l 1,59,-1
 157 336 l 1,60,-1
 115 357 l 1,61,-1
 94 399 l 1,62,-1
 73 525 l 1,63,-1
 73 462 l 1,64,-1
 52 777 l 1,65,-1
 94 819 l 1,0,-1
EndSplineSet
EndChar

StartChar: K
Encoding: 75 75 44
Width: 966
Flags: W
LayerCount: 2
Fore
SplineSet
73 1680 m 1,0,-1
 115 1701 l 1,1,-1
 178 1680 l 1,2,-1
 220 1617 l 1,3,-1
 199 1617 l 1,4,-1
 241 1365 l 1,5,-1
 220 1575 l 1,6,-1
 262 966 l 1,7,-1
 262 945 l 1,8,-1
 283 987 l 1,9,-1
 304 1029 l 1,10,-1
 325 1071 l 1,11,-1
 367 1113 l 1,12,-1
 409 1134 l 1,13,-1
 430 1176 l 1,14,-1
 472 1239 l 1,15,-1
 514 1260 l 1,16,-1
 556 1302 l 1,17,-1
 556 1323 l 1,18,-1
 577 1344 l 1,19,-1
 598 1365 l 1,20,-1
 619 1386 l 1,21,-1
 640 1407 l 1,22,-1
 661 1428 l 1,23,-1
 682 1449 l 1,24,-1
 703 1470 l 1,25,-1
 724 1491 l 1,26,-1
 745 1512 l 1,27,-1
 871 1533 l 1,28,-1
 892 1512 l 1,29,-1
 913 1470 l 1,30,-1
 913 1449 l 1,31,-1
 892 1407 l 1,32,-1
 871 1386 l 1,33,-1
 829 1344 l 1,34,-1
 808 1323 l 1,35,-1
 745 1281 l 1,36,-1
 724 1260 l 1,37,-1
 682 1218 l 1,38,-1
 661 1176 l 1,39,-1
 640 1155 l 1,40,-1
 598 1113 l 1,41,-1
 577 1092 l 1,42,-1
 535 1050 l 1,43,-1
 514 1029 l 1,44,-1
 472 987 l 1,45,-1
 451 945 l 1,46,-1
 409 903 l 1,47,-1
 388 861 l 1,48,-1
 367 840 l 1,49,-1
 325 819 l 1,50,-1
 346 798 l 1,51,-1
 367 756 l 1,52,-1
 388 735 l 1,53,-1
 409 693 l 1,54,-1
 430 651 l 1,55,-1
 451 630 l 1,56,-1
 472 588 l 1,57,-1
 493 546 l 1,58,-1
 514 525 l 1,59,-1
 535 483 l 1,60,-1
 556 441 l 1,61,-1
 577 399 l 1,62,-1
 598 357 l 1,63,-1
 619 315 l 1,64,-1
 640 294 l 1,65,-1
 661 252 l 1,66,-1
 682 210 l 1,67,-1
 703 168 l 1,68,-1
 745 42 l 1,69,-1
 724 21 l 1,70,-1
 682 0 l 1,71,-1
 619 0 l 1,72,-1
 556 21 l 1,73,-1
 535 147 l 1,74,-1
 493 168 l 1,75,-1
 472 210 l 1,76,-1
 451 252 l 1,77,-1
 430 315 l 1,78,-1
 409 357 l 1,79,-1
 409 399 l 1,80,-1
 367 420 l 1,81,-1
 346 462 l 1,82,-1
 325 504 l 1,83,-1
 304 546 l 1,84,-1
 283 588 l 1,85,-1
 262 630 l 1,86,-1
 241 147 l 1,87,-1
 241 126 l 1,88,-1
 157 105 l 1,89,-1
 136 105 l 1,90,-1
 115 987 l 1,91,-1
 94 1428 l 1,92,-1
 73 1512 l 1,93,-1
 73 1491 l 1,94,-1
 52 1638 l 1,95,-1
 73 1680 l 1,0,-1
EndSplineSet
EndChar

StartChar: L
Encoding: 76 76 45
Width: 1197
Flags: W
LayerCount: 2
Fore
SplineSet
52 1764 m 1,0,-1
 136 1764 l 1,1,-1
 178 1722 l 1,2,-1
 157 1764 l 1,3,-1
 199 1365 l 1,4,-1
 199 1323 l 1,5,-1
 220 210 l 1,6,-1
 367 210 l 1,7,-1
 388 210 l 1,8,-1
 409 189 l 1,9,-1
 409 210 l 1,10,-1
 913 168 l 1,11,-1
 955 168 l 1,12,-1
 976 147 l 1,13,-1
 997 168 l 1,14,-1
 1039 210 l 1,15,-1
 1081 210 l 1,16,-1
 1102 168 l 1,17,-1
 1123 126 l 1,18,-1
 1144 84 l 1,19,-1
 1123 21 l 1,20,-1
 1081 0 l 1,21,-1
 892 0 l 1,22,-1
 850 21 l 1,23,-1
 367 42 l 1,24,-1
 157 63 l 1,25,-1
 136 63 l 1,26,-1
 136 84 l 1,27,-1
 115 84 l 1,28,-1
 94 84 l 1,29,-1
 73 357 l 1,30,-1
 52 1743 l 1,31,-1
 52 1764 l 1,0,-1
EndSplineSet
EndChar

StartChar: M
Encoding: 77 77 46
Width: 1323
Flags: W
LayerCount: 2
Fore
SplineSet
73 210 m 1,0,-1
 94 357 l 1,1,-1
 115 483 l 1,2,-1
 136 525 l 1,3,-1
 157 756 l 1,4,-1
 178 1323 l 1,5,-1
 199 1365 l 1,6,-1
 220 1491 l 1,7,-1
 241 1617 l 1,8,-1
 262 1659 l 1,9,-1
 283 1701 l 1,10,-1
 304 1743 l 1,11,-1
 346 1785 l 1,12,-1
 388 1785 l 1,13,-1
 430 1764 l 1,14,-1
 451 1722 l 1,15,-1
 493 1596 l 1,16,-1
 493 1554 l 1,17,-1
 535 1470 l 1,18,-1
 556 1428 l 1,19,-1
 577 1386 l 1,20,-1
 598 1323 l 1,21,-1
 619 1197 l 1,22,-1
 640 1134 l 1,23,-1
 682 1071 l 1,24,-1
 703 1050 l 1,25,-1
 724 1155 l 1,26,-1
 745 1302 l 1,27,-1
 766 1344 l 1,28,-1
 787 1428 l 1,29,-1
 808 1512 l 1,30,-1
 829 1617 l 1,31,-1
 871 1680 l 1,32,-1
 892 1743 l 1,33,-1
 892 1764 l 1,34,-1
 997 1785 l 1,35,-1
 1018 1764 l 1,36,-1
 1039 1722 l 1,37,-1
 1060 1596 l 1,38,-1
 1081 1533 l 1,39,-1
 1102 1239 l 1,40,-1
 1123 1134 l 1,41,-1
 1144 798 l 1,42,-1
 1165 735 l 1,43,-1
 1186 567 l 1,44,-1
 1207 336 l 1,45,-1
 1228 315 l 1,46,-1
 1228 294 l 1,47,-1
 1270 168 l 1,48,-1
 1249 273 l 1,49,-1
 1249 42 l 1,50,-1
 1228 21 l 1,51,-1
 1186 0 l 1,52,-1
 1165 0 l 1,53,-1
 1123 21 l 1,54,-1
 1102 126 l 1,55,-1
 1081 210 l 1,56,-1
 1081 189 l 1,57,-1
 1060 462 l 1,58,-1
 1018 483 l 1,59,-1
 997 693 l 1,60,-1
 976 735 l 1,61,-1
 955 1134 l 1,62,-1
 934 1365 l 1,63,-1
 913 1281 l 1,64,-1
 892 1239 l 1,65,-1
 871 1071 l 1,66,-1
 850 1008 l 1,67,-1
 829 882 l 1,68,-1
 808 819 l 1,69,-1
 787 777 l 1,70,-1
 766 735 l 1,71,-1
 724 714 l 1,72,-1
 682 714 l 1,73,-1
 640 735 l 1,74,-1
 598 756 l 1,75,-1
 577 840 l 1,76,-1
 556 924 l 1,77,-1
 535 1008 l 1,78,-1
 514 1050 l 1,79,-1
 493 1092 l 1,80,-1
 472 1155 l 1,81,-1
 451 1260 l 1,82,-1
 430 1344 l 1,83,-1
 409 1386 l 1,84,-1
 409 1428 l 1,85,-1
 367 1407 l 1,86,-1
 346 1323 l 1,87,-1
 325 1281 l 1,88,-1
 304 714 l 1,89,-1
 283 672 l 1,90,-1
 283 630 l 1,91,-1
 262 378 l 1,92,-1
 262 441 l 1,93,-1
 241 210 l 1,94,-1
 199 168 l 1,95,-1
 178 42 l 1,96,-1
 157 0 l 1,97,-1
 94 -20 l 1,98,-1
 94 0 l 1,99,-1
 73 0 l 1,100,-1
 52 84 l 1,101,-1
 73 210 l 1,0,-1
EndSplineSet
EndChar

StartChar: N
Encoding: 78 78 47
Width: 756
Flags: W
LayerCount: 2
Fore
SplineSet
73 1449 m 1,0,-1
 73 1470 l 1,1,-1
 115 1533 l 1,2,-1
 220 1533 l 1,3,-1
 241 1491 l 1,4,-1
 262 1365 l 1,5,-1
 283 1239 l 1,6,-1
 304 1155 l 1,7,-1
 325 1092 l 1,8,-1
 346 1029 l 1,9,-1
 367 924 l 1,10,-1
 388 840 l 1,11,-1
 409 756 l 1,12,-1
 430 714 l 1,13,-1
 451 672 l 1,14,-1
 472 609 l 1,15,-1
 493 504 l 1,16,-1
 514 546 l 1,17,-1
 535 630 l 1,18,-1
 514 609 l 1,19,-1
 556 777 l 1,20,-1
 535 651 l 1,21,-1
 577 1596 l 1,22,-1
 577 1617 l 1,23,-1
 682 1638 l 1,24,-1
 703 1617 l 1,25,-1
 703 756 l 1,26,-1
 682 609 l 1,27,-1
 682 399 l 1,28,-1
 661 315 l 1,29,-1
 640 147 l 1,30,-1
 598 126 l 1,31,-1
 535 105 l 1,32,-1
 535 126 l 1,33,-1
 514 126 l 1,34,-1
 493 210 l 1,35,-1
 451 231 l 1,36,-1
 430 294 l 1,37,-1
 409 336 l 1,38,-1
 367 357 l 1,39,-1
 346 420 l 1,40,-1
 325 546 l 1,41,-1
 304 588 l 1,42,-1
 283 651 l 1,43,-1
 262 714 l 1,44,-1
 241 777 l 1,45,-1
 220 945 l 1,46,-1
 199 966 l 1,47,-1
 178 105 l 1,48,-1
 136 84 l 1,49,-1
 94 63 l 1,50,-1
 94 84 l 1,51,-1
 73 84 l 1,52,-1
 52 504 l 1,53,-1
 73 1449 l 1,0,-1
EndSplineSet
EndChar

StartChar: O
Encoding: 79 79 48
Width: 1176
Flags: W
LayerCount: 2
Fore
SplineSet
577 1470 m 1,0,-1
 535 1470 l 1,1,-1
 493 1428 l 1,2,-1
 472 1407 l 1,3,-1
 430 1365 l 1,4,-1
 409 1344 l 1,5,-1
 367 1302 l 1,6,-1
 346 1260 l 1,7,-1
 325 1197 l 1,8,-1
 283 1155 l 1,9,-1
 262 1092 l 1,10,-1
 241 1029 l 1,11,-1
 220 966 l 1,12,-1
 199 903 l 1,13,-1
 199 756 l 1,14,-1
 220 630 l 1,15,-1
 241 588 l 1,16,-1
 262 504 l 1,17,-1
 304 483 l 1,18,-1
 367 462 l 1,19,-1
 409 441 l 1,20,-1
 472 399 l 1,21,-1
 451 420 l 1,22,-1
 619 378 l 1,23,-1
 640 399 l 1,24,-1
 682 441 l 1,25,-1
 724 462 l 1,26,-1
 745 483 l 1,27,-1
 787 525 l 1,28,-1
 808 546 l 1,29,-1
 850 609 l 1,30,-1
 871 630 l 1,31,-1
 892 672 l 1,32,-1
 934 735 l 1,33,-1
 913 714 l 1,34,-1
 955 840 l 1,35,-1
 934 756 l 1,36,-1
 976 1218 l 1,37,-1
 955 1281 l 1,38,-1
 913 1302 l 1,39,-1
 892 1344 l 1,40,-1
 850 1365 l 1,41,-1
 829 1407 l 1,42,-1
 787 1428 l 1,43,-1
 745 1449 l 1,44,-1
 598 1470 l 1,45,-1
 577 1470 l 1,0,-1
73 1050 m 1,46,-1
 94 1113 l 1,47,-1
 115 1176 l 1,48,-1
 157 1260 l 1,49,-1
 178 1281 l 1,50,-1
 199 1344 l 1,51,-1
 241 1386 l 1,52,-1
 262 1407 l 1,53,-1
 283 1449 l 1,54,-1
 325 1491 l 1,55,-1
 346 1512 l 1,56,-1
 367 1512 l 1,57,-1
 388 1533 l 1,58,-1
 409 1554 l 1,59,-1
 430 1575 l 1,60,-1
 451 1596 l 1,61,-1
 472 1617 l 1,62,-1
 493 1638 l 1,63,-1
 514 1659 l 1,64,-1
 577 1680 l 1,65,-1
 703 1659 l 1,66,-1
 745 1638 l 1,67,-1
 808 1617 l 1,68,-1
 850 1596 l 1,69,-1
 892 1575 l 1,70,-1
 934 1533 l 1,71,-1
 976 1512 l 1,72,-1
 997 1470 l 1,73,-1
 1039 1449 l 1,74,-1
 1060 1407 l 1,75,-1
 1102 1386 l 1,76,-1
 1123 1344 l 1,77,-1
 1123 819 l 1,78,-1
 1102 714 l 1,79,-1
 1081 630 l 1,80,-1
 1060 609 l 1,81,-1
 1060 588 l 1,82,-1
 1039 567 l 1,83,-1
 1018 546 l 1,84,-1
 997 483 l 1,85,-1
 955 441 l 1,86,-1
 934 420 l 1,87,-1
 892 378 l 1,88,-1
 871 357 l 1,89,-1
 829 336 l 1,90,-1
 808 315 l 1,91,-1
 766 294 l 1,92,-1
 745 273 l 1,93,-1
 703 231 l 1,94,-1
 724 252 l 1,95,-1
 451 210 l 1,96,-1
 430 252 l 1,97,-1
 367 273 l 1,98,-1
 325 294 l 1,99,-1
 262 315 l 1,100,-1
 220 336 l 1,101,-1
 178 357 l 1,102,-1
 157 399 l 1,103,-1
 115 420 l 1,104,-1
 94 462 l 1,105,-1
 73 546 l 1,106,-1
 73 525 l 1,107,-1
 52 966 l 1,108,-1
 73 1050 l 1,46,-1
EndSplineSet
EndChar

StartChar: P
Encoding: 80 80 49
Width: 1008
Flags: W
LayerCount: 2
Fore
SplineSet
535 1113 m 1,0,-1
 577 1134 l 1,1,-1
 640 1155 l 1,2,-1
 682 1197 l 1,3,-1
 745 1218 l 1,4,-1
 766 1281 l 1,5,-1
 787 1302 l 1,6,-1
 787 1386 l 1,7,-1
 766 1512 l 1,8,-1
 745 1554 l 1,9,-1
 724 1596 l 1,10,-1
 640 1617 l 1,11,-1
 619 1659 l 1,12,-1
 577 1680 l 1,13,-1
 514 1701 l 1,14,-1
 283 1701 l 1,15,-1
 220 1680 l 1,16,-1
 199 1092 l 1,17,-1
 493 1092 l 1,18,-1
 535 1113 l 1,0,-1
94 1806 m 1,19,-1
 157 1827 l 1,20,-1
 136 1827 l 1,21,-1
 514 1848 l 1,22,-1
 577 1827 l 1,23,-1
 640 1806 l 1,24,-1
 703 1785 l 1,25,-1
 745 1764 l 1,26,-1
 766 1743 l 1,27,-1
 808 1722 l 1,28,-1
 829 1701 l 1,29,-1
 871 1680 l 1,30,-1
 892 1638 l 1,31,-1
 913 1596 l 1,32,-1
 934 1470 l 1,33,-1
 955 1239 l 1,34,-1
 913 1197 l 1,35,-1
 892 1134 l 1,36,-1
 871 1113 l 1,37,-1
 808 1071 l 1,38,-1
 787 1050 l 1,39,-1
 766 1029 l 1,40,-1
 724 1008 l 1,41,-1
 682 987 l 1,42,-1
 619 966 l 1,43,-1
 598 945 l 1,44,-1
 199 924 l 1,45,-1
 199 672 l 1,46,-1
 199 63 l 1,47,-1
 199 42 l 1,48,-1
 178 21 l 1,49,-1
 94 42 l 1,50,-1
 73 630 l 1,51,-1
 73 378 l 1,52,-1
 52 1743 l 1,53,-1
 94 1806 l 1,19,-1
EndSplineSet
EndChar

StartChar: Q
Encoding: 81 81 50
Width: 1512
Flags: W
LayerCount: 2
Fore
SplineSet
682 1554 m 1,0,-1
 640 1533 l 1,1,-1
 619 1512 l 1,2,-1
 556 1470 l 1,3,-1
 535 1449 l 1,4,-1
 493 1407 l 1,5,-1
 472 1365 l 1,6,-1
 451 1344 l 1,7,-1
 409 1302 l 1,8,-1
 388 1260 l 1,9,-1
 367 1239 l 1,10,-1
 325 1197 l 1,11,-1
 304 1155 l 1,12,-1
 262 1113 l 1,13,-1
 241 1008 l 1,14,-1
 241 1050 l 1,15,-1
 220 546 l 1,16,-1
 199 525 l 1,17,-1
 220 441 l 1,18,-1
 199 441 l 1,19,-1
 241 336 l 1,20,-1
 262 294 l 1,21,-1
 304 273 l 1,22,-1
 346 252 l 1,23,-1
 409 210 l 1,24,-1
 430 168 l 1,25,-1
 451 126 l 1,26,-1
 493 105 l 1,27,-1
 535 84 l 1,28,-1
 598 63 l 1,29,-1
 892 63 l 1,30,-1
 955 84 l 1,31,-1
 976 105 l 1,32,-1
 1018 147 l 1,33,-1
 1081 168 l 1,34,-1
 1102 189 l 1,35,-1
 1102 210 l 1,36,-1
 1081 294 l 1,37,-1
 1039 315 l 1,38,-1
 1018 357 l 1,39,-1
 976 378 l 1,40,-1
 976 462 l 1,41,-1
 1018 504 l 1,42,-1
 1060 504 l 1,43,-1
 1081 462 l 1,44,-1
 1123 441 l 1,45,-1
 1165 420 l 1,46,-1
 1186 378 l 1,47,-1
 1228 504 l 1,48,-1
 1249 525 l 1,49,-1
 1270 588 l 1,50,-1
 1291 693 l 1,51,-1
 1291 903 l 1,52,-1
 1270 966 l 1,53,-1
 1249 1092 l 1,54,-1
 1228 1134 l 1,55,-1
 1207 1239 l 1,56,-1
 1186 1281 l 1,57,-1
 1165 1365 l 1,58,-1
 1144 1449 l 1,59,-1
 1102 1470 l 1,60,-1
 1018 1491 l 1,61,-1
 766 1512 l 1,62,-1
 703 1554 l 1,63,-1
 682 1554 l 1,0,-1
73 1092 m 1,64,-1
 115 1218 l 1,65,-1
 136 1239 l 1,66,-1
 178 1302 l 1,67,-1
 199 1323 l 1,68,-1
 241 1365 l 1,69,-1
 262 1386 l 1,70,-1
 304 1428 l 1,71,-1
 325 1449 l 1,72,-1
 367 1512 l 1,73,-1
 388 1533 l 1,74,-1
 430 1575 l 1,75,-1
 451 1596 l 1,76,-1
 493 1638 l 1,77,-1
 535 1659 l 1,78,-1
 577 1701 l 1,79,-1
 829 1701 l 1,80,-1
 871 1680 l 1,81,-1
 1081 1659 l 1,82,-1
 1186 1638 l 1,83,-1
 1207 1596 l 1,84,-1
 1249 1575 l 1,85,-1
 1291 1533 l 1,86,-1
 1312 1491 l 1,87,-1
 1333 1407 l 1,88,-1
 1354 1365 l 1,89,-1
 1375 1323 l 1,90,-1
 1396 1176 l 1,91,-1
 1417 1071 l 1,92,-1
 1438 1008 l 1,93,-1
 1459 924 l 1,94,-1
 1459 672 l 1,95,-1
 1438 546 l 1,96,-1
 1417 483 l 1,97,-1
 1396 441 l 1,98,-1
 1375 273 l 1,99,-1
 1354 252 l 1,100,-1
 1312 210 l 1,101,-1
 1312 189 l 1,102,-1
 1333 168 l 1,103,-1
 1354 126 l 1,104,-1
 1375 84 l 1,105,-1
 1396 42 l 1,106,-1
 1396 -104 l 1,107,-1
 1375 -125 l 1,108,-1
 1312 -125 l 1,109,-1
 1270 -104 l 1,110,-1
 1249 -62 l 1,111,-1
 1228 -20 l 1,112,-1
 1228 21 l 1,113,-1
 1186 42 l 1,114,-1
 1165 21 l 1,115,-1
 1102 -20 l 1,116,-1
 1081 -41 l 1,117,-1
 1039 -62 l 1,118,-1
 997 -83 l 1,119,-1
 535 -83 l 1,120,-1
 451 -62 l 1,121,-1
 409 -41 l 1,122,-1
 367 -20 l 1,123,-1
 325 -20 l 1,124,-1
 304 21 l 1,125,-1
 262 42 l 1,126,-1
 241 105 l 1,127,-1
 157 126 l 1,128,-1
 136 168 l 1,129,-1
 115 210 l 1,130,-1
 73 231 l 1,131,-1
 52 273 l 1,132,-1
 73 357 l 1,133,-1
 52 336 l 1,134,-1
 94 945 l 1,135,-1
 73 966 l 1,136,-1
 52 1071 l 1,137,-1
 73 1092 l 1,64,-1
EndSplineSet
EndChar

StartChar: R
Encoding: 82 82 51
Width: 903
Flags: W
LayerCount: 2
Fore
SplineSet
430 903 m 1,0,-1
 472 924 l 1,1,-1
 493 945 l 1,2,-1
 535 987 l 1,3,-1
 577 1008 l 1,4,-1
 619 1050 l 1,5,-1
 640 1071 l 1,6,-1
 682 1134 l 1,7,-1
 661 1113 l 1,8,-1
 703 1239 l 1,9,-1
 682 1260 l 1,10,-1
 661 1449 l 1,11,-1
 619 1470 l 1,12,-1
 598 1512 l 1,13,-1
 556 1512 l 1,14,-1
 535 1554 l 1,15,-1
 493 1575 l 1,16,-1
 451 1575 l 1,17,-1
 451 1596 l 1,18,-1
 262 1596 l 1,19,-1
 241 1596 l 1,20,-1
 220 1365 l 1,21,-1
 199 1323 l 1,22,-1
 220 882 l 1,23,-1
 367 882 l 1,24,-1
 430 903 l 1,0,-1
73 1680 m 1,25,-1
 115 1722 l 1,26,-1
 157 1743 l 1,27,-1
 493 1743 l 1,28,-1
 556 1722 l 1,29,-1
 577 1701 l 1,30,-1
 619 1680 l 1,31,-1
 661 1638 l 1,32,-1
 703 1617 l 1,33,-1
 724 1575 l 1,34,-1
 766 1554 l 1,35,-1
 787 1512 l 1,36,-1
 808 1449 l 1,37,-1
 829 1323 l 1,38,-1
 850 1218 l 1,39,-1
 850 1134 l 1,40,-1
 829 1092 l 1,41,-1
 808 1050 l 1,42,-1
 787 1008 l 1,43,-1
 787 987 l 1,44,-1
 745 945 l 1,45,-1
 724 903 l 1,46,-1
 682 882 l 1,47,-1
 619 840 l 1,48,-1
 619 819 l 1,49,-1
 577 798 l 1,50,-1
 493 756 l 1,51,-1
 472 756 l 1,52,-1
 409 714 l 1,53,-1
 430 693 l 1,54,-1
 472 672 l 1,55,-1
 493 630 l 1,56,-1
 535 609 l 1,57,-1
 556 567 l 1,58,-1
 598 525 l 1,59,-1
 619 483 l 1,60,-1
 661 462 l 1,61,-1
 682 420 l 1,62,-1
 703 378 l 1,63,-1
 745 357 l 1,64,-1
 766 315 l 1,65,-1
 787 273 l 1,66,-1
 808 189 l 1,67,-1
 850 126 l 1,68,-1
 829 105 l 1,69,-1
 829 84 l 1,70,-1
 829 63 l 1,71,-1
 724 21 l 1,72,-1
 703 63 l 1,73,-1
 661 84 l 1,74,-1
 640 147 l 1,75,-1
 619 189 l 1,76,-1
 598 231 l 1,77,-1
 577 294 l 1,78,-1
 535 315 l 1,79,-1
 514 357 l 1,80,-1
 493 399 l 1,81,-1
 451 420 l 1,82,-1
 430 462 l 1,83,-1
 388 483 l 1,84,-1
 367 525 l 1,85,-1
 325 546 l 1,86,-1
 304 588 l 1,87,-1
 262 588 l 1,88,-1
 241 630 l 1,89,-1
 220 630 l 1,90,-1
 220 84 l 1,91,-1
 220 63 l 1,92,-1
 115 21 l 1,93,-1
 94 42 l 1,94,-1
 94 21 l 1,95,-1
 73 861 l 1,96,-1
 52 1365 l 1,97,-1
 73 1680 l 1,25,-1
EndSplineSet
EndChar

StartChar: S
Encoding: 83 83 52
Width: 1155
Flags: W
LayerCount: 2
Fore
SplineSet
73 1617 m 1,0,-1
 94 1659 l 1,1,-1
 115 1722 l 1,2,-1
 157 1743 l 1,3,-1
 199 1785 l 1,4,-1
 262 1806 l 1,5,-1
 514 1806 l 1,6,-1
 640 1785 l 1,7,-1
 682 1764 l 1,8,-1
 703 1743 l 1,9,-1
 745 1722 l 1,10,-1
 787 1680 l 1,11,-1
 829 1638 l 1,12,-1
 871 1596 l 1,13,-1
 913 1575 l 1,14,-1
 934 1533 l 1,15,-1
 955 1491 l 1,16,-1
 997 1449 l 1,17,-1
 1039 1407 l 1,18,-1
 1081 1365 l 1,19,-1
 1102 1323 l 1,20,-1
 1102 1281 l 1,21,-1
 1102 1260 l 1,22,-1
 1018 1218 l 1,23,-1
 997 1239 l 1,24,-1
 934 1260 l 1,25,-1
 913 1302 l 1,26,-1
 892 1344 l 1,27,-1
 850 1365 l 1,28,-1
 829 1407 l 1,29,-1
 808 1449 l 1,30,-1
 766 1470 l 1,31,-1
 745 1512 l 1,32,-1
 703 1533 l 1,33,-1
 682 1575 l 1,34,-1
 640 1596 l 1,35,-1
 598 1617 l 1,36,-1
 472 1638 l 1,37,-1
 430 1659 l 1,38,-1
 325 1638 l 1,39,-1
 304 1617 l 1,40,-1
 283 1617 l 1,41,-1
 262 1575 l 1,42,-1
 241 1533 l 1,43,-1
 220 1407 l 1,44,-1
 220 1470 l 1,45,-1
 241 1323 l 1,46,-1
 262 1281 l 1,47,-1
 304 1239 l 1,48,-1
 346 1197 l 1,49,-1
 388 1176 l 1,50,-1
 409 1134 l 1,51,-1
 451 1092 l 1,52,-1
 493 1071 l 1,53,-1
 535 1029 l 1,54,-1
 577 1008 l 1,55,-1
 619 987 l 1,56,-1
 640 945 l 1,57,-1
 682 903 l 1,58,-1
 703 861 l 1,59,-1
 724 798 l 1,60,-1
 745 798 l 1,61,-1
 745 777 l 1,62,-1
 787 693 l 1,63,-1
 808 651 l 1,64,-1
 829 525 l 1,65,-1
 829 315 l 1,66,-1
 829 273 l 1,67,-1
 787 231 l 1,68,-1
 766 210 l 1,69,-1
 724 168 l 1,70,-1
 703 147 l 1,71,-1
 598 126 l 1,72,-1
 283 105 l 1,73,-1
 220 126 l 1,74,-1
 199 168 l 1,75,-1
 157 189 l 1,76,-1
 157 252 l 1,77,-1
 94 273 l 1,78,-1
 73 315 l 1,79,-1
 52 399 l 1,80,-1
 52 420 l 1,81,-1
 52 357 l 1,82,-1
 73 462 l 1,83,-1
 94 546 l 1,84,-1
 136 546 l 1,85,-1
 157 504 l 1,86,-1
 178 462 l 1,87,-1
 199 420 l 1,88,-1
 241 399 l 1,89,-1
 283 357 l 1,90,-1
 325 315 l 1,91,-1
 451 273 l 1,92,-1
 577 294 l 1,93,-1
 640 315 l 1,94,-1
 661 357 l 1,95,-1
 661 462 l 1,96,-1
 640 609 l 1,97,-1
 619 651 l 1,98,-1
 598 693 l 1,99,-1
 598 735 l 1,100,-1
 556 756 l 1,101,-1
 535 798 l 1,102,-1
 514 840 l 1,103,-1
 472 861 l 1,104,-1
 451 903 l 1,105,-1
 409 924 l 1,106,-1
 346 945 l 1,107,-1
 325 987 l 1,108,-1
 283 1008 l 1,109,-1
 262 1050 l 1,110,-1
 220 1071 l 1,111,-1
 199 1113 l 1,112,-1
 157 1134 l 1,113,-1
 136 1176 l 1,114,-1
 115 1176 l 1,115,-1
 115 1197 l 1,116,-1
 94 1197 l 1,117,-1
 73 1281 l 1,118,-1
 73 1218 l 1,119,-1
 52 1512 l 1,120,-1
 73 1617 l 1,0,-1
EndSplineSet
EndChar

StartChar: T
Encoding: 84 84 53
Width: 1323
Flags: W
LayerCount: 2
Fore
SplineSet
52 1764 m 1,0,-1
 136 1764 l 1,1,-1
 73 1764 l 1,2,-1
 493 1785 l 1,3,-1
 535 1785 l 1,4,-1
 178 1785 l 1,5,-1
 703 1764 l 1,6,-1
 829 1743 l 1,7,-1
 808 1764 l 1,8,-1
 1207 1722 l 1,9,-1
 1249 1722 l 1,10,-1
 1270 1680 l 1,11,-1
 1270 1617 l 1,12,-1
 1270 1596 l 1,13,-1
 1228 1575 l 1,14,-1
 808 1575 l 1,15,-1
 766 1596 l 1,16,-1
 640 1596 l 1,17,-1
 619 924 l 1,18,-1
 598 672 l 1,19,-1
 577 462 l 1,20,-1
 577 189 l 1,21,-1
 535 147 l 1,22,-1
 514 126 l 1,23,-1
 430 147 l 1,24,-1
 409 252 l 1,25,-1
 430 630 l 1,26,-1
 451 714 l 1,27,-1
 430 693 l 1,28,-1
 472 966 l 1,29,-1
 451 735 l 1,30,-1
 493 1407 l 1,31,-1
 514 1596 l 1,32,-1
 472 1617 l 1,33,-1
 136 1617 l 1,34,-1
 73 1638 l 1,35,-1
 52 1743 l 1,36,-1
 52 1764 l 1,0,-1
EndSplineSet
EndChar

StartChar: U
Encoding: 85 85 54
Width: 1029
Flags: W
LayerCount: 2
Fore
SplineSet
73 1491 m 1,0,-1
 115 1743 l 1,1,-1
 136 1764 l 1,2,-1
 241 1764 l 1,3,-1
 262 1722 l 1,4,-1
 262 1701 l 1,5,-1
 241 1659 l 1,6,-1
 220 1596 l 1,7,-1
 220 1575 l 1,8,-1
 220 1470 l 1,9,-1
 199 1407 l 1,10,-1
 199 1155 l 1,11,-1
 220 588 l 1,12,-1
 241 462 l 1,13,-1
 262 399 l 1,14,-1
 283 357 l 1,15,-1
 325 315 l 1,16,-1
 367 294 l 1,17,-1
 388 273 l 1,18,-1
 430 252 l 1,19,-1
 472 231 l 1,20,-1
 514 210 l 1,21,-1
 535 189 l 1,22,-1
 577 231 l 1,23,-1
 598 252 l 1,24,-1
 640 294 l 1,25,-1
 661 315 l 1,26,-1
 682 378 l 1,27,-1
 703 504 l 1,28,-1
 724 546 l 1,29,-1
 745 924 l 1,30,-1
 766 1197 l 1,31,-1
 808 1491 l 1,32,-1
 829 1617 l 1,33,-1
 871 1638 l 1,34,-1
 934 1638 l 1,35,-1
 976 1596 l 1,36,-1
 976 1512 l 1,37,-1
 955 1344 l 1,38,-1
 934 1155 l 1,39,-1
 913 1113 l 1,40,-1
 892 861 l 1,41,-1
 871 462 l 1,42,-1
 850 315 l 1,43,-1
 829 252 l 1,44,-1
 787 210 l 1,45,-1
 766 189 l 1,46,-1
 724 147 l 1,47,-1
 703 105 l 1,48,-1
 682 84 l 1,49,-1
 640 63 l 1,50,-1
 409 63 l 1,51,-1
 367 84 l 1,52,-1
 304 105 l 1,53,-1
 283 147 l 1,54,-1
 220 168 l 1,55,-1
 199 210 l 1,56,-1
 157 231 l 1,57,-1
 136 273 l 1,58,-1
 115 315 l 1,59,-1
 94 357 l 1,60,-1
 73 483 l 1,61,-1
 73 420 l 1,62,-1
 52 1428 l 1,63,-1
 73 1491 l 1,0,-1
EndSplineSet
EndChar

StartChar: V
Encoding: 86 86 55
Width: 1155
Flags: W
LayerCount: 2
Fore
SplineSet
52 1827 m 1,0,-1
 115 1827 l 1,1,-1
 157 1806 l 1,2,-1
 178 1764 l 1,3,-1
 199 1596 l 1,4,-1
 220 1428 l 1,5,-1
 241 1386 l 1,6,-1
 262 1323 l 1,7,-1
 283 1197 l 1,8,-1
 304 1092 l 1,9,-1
 325 1008 l 1,10,-1
 346 945 l 1,11,-1
 367 903 l 1,12,-1
 388 756 l 1,13,-1
 409 630 l 1,14,-1
 430 546 l 1,15,-1
 451 504 l 1,16,-1
 493 357 l 1,17,-1
 514 357 l 1,18,-1
 535 378 l 1,19,-1
 556 441 l 1,20,-1
 577 525 l 1,21,-1
 598 567 l 1,22,-1
 619 609 l 1,23,-1
 640 735 l 1,24,-1
 661 777 l 1,25,-1
 682 819 l 1,26,-1
 682 840 l 1,27,-1
 682 924 l 1,28,-1
 703 987 l 1,29,-1
 724 1071 l 1,30,-1
 766 1239 l 1,31,-1
 787 1260 l 1,32,-1
 808 1281 l 1,33,-1
 829 1323 l 1,34,-1
 850 1365 l 1,35,-1
 892 1449 l 1,36,-1
 892 1470 l 1,37,-1
 934 1533 l 1,38,-1
 955 1596 l 1,39,-1
 976 1659 l 1,40,-1
 976 1680 l 1,41,-1
 1081 1701 l 1,42,-1
 1102 1659 l 1,43,-1
 1102 1533 l 1,44,-1
 1081 1470 l 1,45,-1
 1060 1428 l 1,46,-1
 1039 1386 l 1,47,-1
 1018 1344 l 1,48,-1
 997 1302 l 1,49,-1
 976 1260 l 1,50,-1
 955 1218 l 1,51,-1
 913 1176 l 1,52,-1
 892 1113 l 1,53,-1
 871 1029 l 1,54,-1
 850 903 l 1,55,-1
 829 777 l 1,56,-1
 808 735 l 1,57,-1
 787 693 l 1,58,-1
 766 567 l 1,59,-1
 745 525 l 1,60,-1
 724 441 l 1,61,-1
 703 399 l 1,62,-1
 682 315 l 1,63,-1
 640 273 l 1,64,-1
 619 210 l 1,65,-1
 598 168 l 1,66,-1
 577 126 l 1,67,-1
 556 84 l 1,68,-1
 535 63 l 1,69,-1
 451 42 l 1,70,-1
 430 84 l 1,71,-1
 388 105 l 1,72,-1
 367 147 l 1,73,-1
 346 210 l 1,74,-1
 325 336 l 1,75,-1
 304 399 l 1,76,-1
 283 504 l 1,77,-1
 262 567 l 1,78,-1
 241 714 l 1,79,-1
 220 861 l 1,80,-1
 199 924 l 1,81,-1
 178 1029 l 1,82,-1
 157 1113 l 1,83,-1
 136 1176 l 1,84,-1
 115 1323 l 1,85,-1
 94 1386 l 1,86,-1
 73 1554 l 1,87,-1
 52 1806 l 1,88,-1
 52 1827 l 1,0,-1
EndSplineSet
EndChar

StartChar: W
Encoding: 87 87 56
Width: 1932
Flags: W
LayerCount: 2
Fore
SplineSet
73 1701 m 1,0,-1
 115 1722 l 1,1,-1
 136 1722 l 1,2,-1
 178 1701 l 1,3,-1
 157 1701 l 1,4,-1
 199 1596 l 1,5,-1
 220 1554 l 1,6,-1
 241 1470 l 1,7,-1
 262 1407 l 1,8,-1
 283 1323 l 1,9,-1
 304 1281 l 1,10,-1
 325 1239 l 1,11,-1
 346 1155 l 1,12,-1
 367 861 l 1,13,-1
 388 819 l 1,14,-1
 409 630 l 1,15,-1
 430 483 l 1,16,-1
 451 357 l 1,17,-1
 472 462 l 1,18,-1
 493 504 l 1,19,-1
 514 588 l 1,20,-1
 535 630 l 1,21,-1
 556 693 l 1,22,-1
 577 798 l 1,23,-1
 598 840 l 1,24,-1
 619 882 l 1,25,-1
 640 903 l 1,26,-1
 661 945 l 1,27,-1
 703 1029 l 1,28,-1
 745 1050 l 1,29,-1
 829 1050 l 1,30,-1
 871 1029 l 1,31,-1
 892 987 l 1,32,-1
 913 924 l 1,33,-1
 934 882 l 1,34,-1
 955 819 l 1,35,-1
 976 693 l 1,36,-1
 997 651 l 1,37,-1
 1018 504 l 1,38,-1
 1039 399 l 1,39,-1
 1060 336 l 1,40,-1
 1081 273 l 1,41,-1
 1123 252 l 1,42,-1
 1144 252 l 1,43,-1
 1165 273 l 1,44,-1
 1186 315 l 1,45,-1
 1207 357 l 1,46,-1
 1228 399 l 1,47,-1
 1249 441 l 1,48,-1
 1270 483 l 1,49,-1
 1291 504 l 1,50,-1
 1312 546 l 1,51,-1
 1333 609 l 1,52,-1
 1354 630 l 1,53,-1
 1375 672 l 1,54,-1
 1417 756 l 1,55,-1
 1438 777 l 1,56,-1
 1459 840 l 1,57,-1
 1480 987 l 1,58,-1
 1501 1029 l 1,59,-1
 1522 1071 l 1,60,-1
 1543 1134 l 1,61,-1
 1564 1176 l 1,62,-1
 1585 1239 l 1,63,-1
 1606 1281 l 1,64,-1
 1627 1323 l 1,65,-1
 1648 1365 l 1,66,-1
 1669 1428 l 1,67,-1
 1690 1449 l 1,68,-1
 1711 1491 l 1,69,-1
 1753 1533 l 1,70,-1
 1753 1554 l 1,71,-1
 1837 1575 l 1,72,-1
 1858 1554 l 1,73,-1
 1879 1512 l 1,74,-1
 1879 1428 l 1,75,-1
 1858 1365 l 1,76,-1
 1816 1323 l 1,77,-1
 1795 1281 l 1,78,-1
 1774 1218 l 1,79,-1
 1753 1176 l 1,80,-1
 1732 1134 l 1,81,-1
 1711 1092 l 1,82,-1
 1690 1050 l 1,83,-1
 1669 1008 l 1,84,-1
 1648 966 l 1,85,-1
 1627 819 l 1,86,-1
 1606 756 l 1,87,-1
 1585 693 l 1,88,-1
 1543 651 l 1,89,-1
 1522 609 l 1,90,-1
 1501 567 l 1,91,-1
 1480 504 l 1,92,-1
 1459 462 l 1,93,-1
 1438 420 l 1,94,-1
 1396 378 l 1,95,-1
 1375 315 l 1,96,-1
 1354 273 l 1,97,-1
 1333 231 l 1,98,-1
 1333 210 l 1,99,-1
 1291 168 l 1,100,-1
 1270 126 l 1,101,-1
 1228 84 l 1,102,-1
 1207 63 l 1,103,-1
 1039 63 l 1,104,-1
 997 84 l 1,105,-1
 976 147 l 1,106,-1
 934 168 l 1,107,-1
 913 231 l 1,108,-1
 892 273 l 1,109,-1
 871 357 l 1,110,-1
 850 462 l 1,111,-1
 829 630 l 1,112,-1
 808 756 l 1,113,-1
 808 819 l 1,114,-1
 766 798 l 1,115,-1
 745 756 l 1,116,-1
 724 714 l 1,117,-1
 703 630 l 1,118,-1
 682 525 l 1,119,-1
 661 462 l 1,120,-1
 640 420 l 1,121,-1
 619 336 l 1,122,-1
 598 294 l 1,123,-1
 577 252 l 1,124,-1
 535 210 l 1,125,-1
 514 168 l 1,126,-1
 493 126 l 1,127,-1
 451 105 l 1,128,-1
 388 84 l 1,129,-1
 367 126 l 1,130,-1
 325 147 l 1,131,-1
 304 273 l 1,132,-1
 283 315 l 1,133,-1
 262 441 l 1,134,-1
 241 609 l 1,135,-1
 220 777 l 1,136,-1
 199 1092 l 1,137,-1
 178 1176 l 1,138,-1
 157 1260 l 1,139,-1
 136 1344 l 1,140,-1
 115 1428 l 1,141,-1
 94 1491 l 1,142,-1
 73 1533 l 1,143,-1
 52 1680 l 1,144,-1
 73 1701 l 1,0,-1
EndSplineSet
EndChar

StartChar: X
Encoding: 88 88 57
Width: 1155
Flags: W
LayerCount: 2
Fore
SplineSet
94 336 m 1,0,-1
 115 357 l 1,1,-1
 157 420 l 1,2,-1
 199 441 l 1,3,-1
 241 504 l 1,4,-1
 283 525 l 1,5,-1
 304 567 l 1,6,-1
 346 651 l 1,7,-1
 367 672 l 1,8,-1
 409 735 l 1,9,-1
 430 756 l 1,10,-1
 451 798 l 1,11,-1
 472 840 l 1,12,-1
 493 882 l 1,13,-1
 493 924 l 1,14,-1
 472 966 l 1,15,-1
 451 1008 l 1,16,-1
 430 1071 l 1,17,-1
 409 1113 l 1,18,-1
 388 1176 l 1,19,-1
 346 1197 l 1,20,-1
 325 1302 l 1,21,-1
 283 1323 l 1,22,-1
 262 1386 l 1,23,-1
 241 1428 l 1,24,-1
 220 1512 l 1,25,-1
 178 1533 l 1,26,-1
 157 1575 l 1,27,-1
 136 1638 l 1,28,-1
 115 1680 l 1,29,-1
 94 1722 l 1,30,-1
 73 1764 l 1,31,-1
 94 1869 l 1,32,-1
 136 1890 l 1,33,-1
 178 1869 l 1,34,-1
 199 1827 l 1,35,-1
 241 1764 l 1,36,-1
 262 1722 l 1,37,-1
 283 1638 l 1,38,-1
 304 1617 l 1,39,-1
 325 1575 l 1,40,-1
 367 1512 l 1,41,-1
 388 1470 l 1,42,-1
 409 1428 l 1,43,-1
 430 1365 l 1,44,-1
 451 1323 l 1,45,-1
 493 1281 l 1,46,-1
 514 1239 l 1,47,-1
 535 1197 l 1,48,-1
 577 1155 l 1,49,-1
 598 1134 l 1,50,-1
 640 1197 l 1,51,-1
 661 1218 l 1,52,-1
 682 1260 l 1,53,-1
 703 1323 l 1,54,-1
 724 1365 l 1,55,-1
 745 1407 l 1,56,-1
 766 1449 l 1,57,-1
 787 1491 l 1,58,-1
 808 1533 l 1,59,-1
 829 1554 l 1,60,-1
 850 1596 l 1,61,-1
 871 1659 l 1,62,-1
 913 1722 l 1,63,-1
 913 1743 l 1,64,-1
 934 1764 l 1,65,-1
 1039 1785 l 1,66,-1
 1060 1764 l 1,67,-1
 1060 1680 l 1,68,-1
 1039 1617 l 1,69,-1
 1018 1575 l 1,70,-1
 997 1512 l 1,71,-1
 955 1470 l 1,72,-1
 934 1428 l 1,73,-1
 913 1386 l 1,74,-1
 892 1344 l 1,75,-1
 871 1302 l 1,76,-1
 850 1260 l 1,77,-1
 829 1218 l 1,78,-1
 808 1155 l 1,79,-1
 787 1113 l 1,80,-1
 766 1071 l 1,81,-1
 724 1029 l 1,82,-1
 703 924 l 1,83,-1
 724 903 l 1,84,-1
 745 861 l 1,85,-1
 787 840 l 1,86,-1
 808 798 l 1,87,-1
 829 735 l 1,88,-1
 871 672 l 1,89,-1
 871 630 l 1,90,-1
 913 588 l 1,91,-1
 934 546 l 1,92,-1
 955 483 l 1,93,-1
 976 420 l 1,94,-1
 997 378 l 1,95,-1
 1018 336 l 1,96,-1
 1039 294 l 1,97,-1
 1060 273 l 1,98,-1
 1081 231 l 1,99,-1
 1102 168 l 1,100,-1
 1081 105 l 1,101,-1
 997 105 l 1,102,-1
 913 126 l 1,103,-1
 892 231 l 1,104,-1
 871 273 l 1,105,-1
 850 315 l 1,106,-1
 829 357 l 1,107,-1
 808 483 l 1,108,-1
 766 504 l 1,109,-1
 745 546 l 1,110,-1
 724 588 l 1,111,-1
 703 630 l 1,112,-1
 682 693 l 1,113,-1
 661 756 l 1,114,-1
 598 756 l 1,115,-1
 577 714 l 1,116,-1
 556 672 l 1,117,-1
 514 630 l 1,118,-1
 493 588 l 1,119,-1
 451 546 l 1,120,-1
 430 504 l 1,121,-1
 409 462 l 1,122,-1
 367 420 l 1,123,-1
 346 399 l 1,124,-1
 304 357 l 1,125,-1
 283 336 l 1,126,-1
 241 315 l 1,127,-1
 220 273 l 1,128,-1
 178 231 l 1,129,-1
 157 189 l 1,130,-1
 94 168 l 1,131,-1
 73 189 l 1,132,-1
 52 273 l 1,133,-1
 94 336 l 1,0,-1
EndSplineSet
EndChar

StartChar: Y
Encoding: 89 89 58
Width: 1134
Flags: W
LayerCount: 2
Fore
SplineSet
52 1743 m 1,0,-1
 157 1743 l 1,1,-1
 178 1701 l 1,2,-1
 199 1659 l 1,3,-1
 220 1617 l 1,4,-1
 241 1575 l 1,5,-1
 283 1554 l 1,6,-1
 304 1512 l 1,7,-1
 325 1491 l 1,8,-1
 325 1470 l 1,9,-1
 367 1407 l 1,10,-1
 367 1365 l 1,11,-1
 409 1323 l 1,12,-1
 430 1281 l 1,13,-1
 472 1218 l 1,14,-1
 493 1176 l 1,15,-1
 535 1113 l 1,16,-1
 556 1113 l 1,17,-1
 577 1134 l 1,18,-1
 619 1197 l 1,19,-1
 640 1218 l 1,20,-1
 661 1260 l 1,21,-1
 682 1302 l 1,22,-1
 703 1344 l 1,23,-1
 724 1386 l 1,24,-1
 766 1428 l 1,25,-1
 787 1449 l 1,26,-1
 808 1491 l 1,27,-1
 829 1512 l 1,28,-1
 850 1554 l 1,29,-1
 871 1575 l 1,30,-1
 913 1659 l 1,31,-1
 913 1680 l 1,32,-1
 934 1680 l 1,33,-1
 955 1701 l 1,34,-1
 1018 1722 l 1,35,-1
 1039 1722 l 1,36,-1
 1039 1701 l 1,37,-1
 1081 1596 l 1,38,-1
 1060 1575 l 1,39,-1
 1018 1533 l 1,40,-1
 997 1470 l 1,41,-1
 955 1428 l 1,42,-1
 934 1386 l 1,43,-1
 892 1344 l 1,44,-1
 871 1323 l 1,45,-1
 829 1281 l 1,46,-1
 808 1239 l 1,47,-1
 787 1197 l 1,48,-1
 766 1155 l 1,49,-1
 745 1113 l 1,50,-1
 724 1092 l 1,51,-1
 682 1050 l 1,52,-1
 661 1008 l 1,53,-1
 640 987 l 1,54,-1
 598 945 l 1,55,-1
 577 903 l 1,56,-1
 556 630 l 1,57,-1
 535 588 l 1,58,-1
 514 210 l 1,59,-1
 493 0 l 1,60,-1
 430 -20 l 1,61,-1
 409 -20 l 1,62,-1
 388 252 l 1,63,-1
 388 273 l 1,64,-1
 430 966 l 1,65,-1
 409 987 l 1,66,-1
 388 1092 l 1,67,-1
 367 1113 l 1,68,-1
 325 1134 l 1,69,-1
 304 1176 l 1,70,-1
 283 1218 l 1,71,-1
 283 1260 l 1,72,-1
 241 1281 l 1,73,-1
 220 1365 l 1,74,-1
 199 1386 l 1,75,-1
 178 1449 l 1,76,-1
 136 1470 l 1,77,-1
 115 1512 l 1,78,-1
 73 1533 l 1,79,-1
 52 1722 l 1,80,-1
 52 1743 l 1,0,-1
EndSplineSet
EndChar

StartChar: Z
Encoding: 90 90 59
Width: 1449
Flags: W
LayerCount: 2
Fore
SplineSet
73 483 m 1,0,-1
 94 525 l 1,1,-1
 136 588 l 1,2,-1
 157 609 l 1,3,-1
 178 672 l 1,4,-1
 199 714 l 1,5,-1
 220 756 l 1,6,-1
 241 798 l 1,7,-1
 283 840 l 1,8,-1
 304 861 l 1,9,-1
 325 903 l 1,10,-1
 367 945 l 1,11,-1
 388 966 l 1,12,-1
 430 1008 l 1,13,-1
 451 1029 l 1,14,-1
 493 1071 l 1,15,-1
 514 1092 l 1,16,-1
 535 1134 l 1,17,-1
 577 1176 l 1,18,-1
 598 1197 l 1,19,-1
 640 1239 l 1,20,-1
 682 1260 l 1,21,-1
 724 1302 l 1,22,-1
 766 1323 l 1,23,-1
 808 1365 l 1,24,-1
 892 1386 l 1,25,-1
 934 1449 l 1,26,-1
 955 1470 l 1,27,-1
 997 1512 l 1,28,-1
 1018 1533 l 1,29,-1
 1060 1575 l 1,30,-1
 976 1596 l 1,31,-1
 871 1617 l 1,32,-1
 787 1638 l 1,33,-1
 640 1659 l 1,34,-1
 598 1680 l 1,35,-1
 514 1701 l 1,36,-1
 304 1722 l 1,37,-1
 220 1743 l 1,38,-1
 220 1806 l 1,39,-1
 241 1827 l 1,40,-1
 367 1848 l 1,41,-1
 577 1848 l 1,42,-1
 682 1827 l 1,43,-1
 787 1806 l 1,44,-1
 829 1785 l 1,45,-1
 976 1764 l 1,46,-1
 1060 1743 l 1,47,-1
 1186 1722 l 1,48,-1
 1228 1701 l 1,49,-1
 1249 1659 l 1,50,-1
 1270 1617 l 1,51,-1
 1249 1533 l 1,52,-1
 1186 1491 l 1,53,-1
 1165 1449 l 1,54,-1
 1144 1428 l 1,55,-1
 1081 1386 l 1,56,-1
 1081 1365 l 1,57,-1
 1039 1323 l 1,58,-1
 1018 1281 l 1,59,-1
 976 1260 l 1,60,-1
 934 1239 l 1,61,-1
 892 1218 l 1,62,-1
 829 1176 l 1,63,-1
 808 1155 l 1,64,-1
 745 1113 l 1,65,-1
 724 1071 l 1,66,-1
 661 1029 l 1,67,-1
 640 987 l 1,68,-1
 619 966 l 1,69,-1
 577 924 l 1,70,-1
 556 882 l 1,71,-1
 493 840 l 1,72,-1
 493 819 l 1,73,-1
 451 777 l 1,74,-1
 430 735 l 1,75,-1
 388 693 l 1,76,-1
 367 651 l 1,77,-1
 346 609 l 1,78,-1
 325 567 l 1,79,-1
 304 525 l 1,80,-1
 283 483 l 1,81,-1
 472 441 l 1,82,-1
 283 462 l 1,83,-1
 1081 420 l 1,84,-1
 1165 399 l 1,85,-1
 1165 420 l 1,86,-1
 1270 378 l 1,87,-1
 1312 399 l 1,88,-1
 1333 378 l 1,89,-1
 1354 378 l 1,90,-1
 1396 273 l 1,91,-1
 1354 252 l 1,92,-1
 1102 252 l 1,93,-1
 451 273 l 1,94,-1
 283 273 l 1,95,-1
 199 294 l 1,96,-1
 220 294 l 1,97,-1
 94 315 l 1,98,-1
 73 336 l 1,99,-1
 73 315 l 1,100,-1
 52 441 l 1,101,-1
 73 483 l 1,0,-1
EndSplineSet
EndChar

StartChar: bracketleft
Encoding: 91 91 60
Width: 861
Flags: W
LayerCount: 2
Fore
SplineSet
73 1848 m 1,0,-1
 94 1869 l 1,1,-1
 241 1890 l 1,2,-1
 283 1911 l 1,3,-1
 661 1890 l 1,4,-1
 724 1869 l 1,5,-1
 745 1869 l 1,6,-1
 745 1848 l 1,7,-1
 766 1827 l 1,8,-1
 766 1806 l 1,9,-1
 745 1785 l 1,10,-1
 388 1743 l 1,11,-1
 367 1764 l 1,12,-1
 199 1743 l 1,13,-1
 220 1638 l 1,14,-1
 199 1701 l 1,15,-1
 241 1323 l 1,16,-1
 220 1596 l 1,17,-1
 220 1029 l 1,18,-1
 220 1281 l 1,19,-1
 199 315 l 1,20,-1
 304 273 l 1,21,-1
 199 294 l 1,22,-1
 661 252 l 1,23,-1
 787 231 l 1,24,-1
 808 147 l 1,25,-1
 766 126 l 1,26,-1
 283 126 l 1,27,-1
 136 126 l 1,28,-1
 73 147 l 1,29,-1
 52 1008 l 1,30,-1
 52 1029 l 1,31,-1
 94 1512 l 1,32,-1
 73 1323 l 1,33,-1
 73 1638 l 1,34,-1
 73 1533 l 1,35,-1
 52 1827 l 1,36,-1
 73 1848 l 1,0,-1
EndSplineSet
EndChar

StartChar: backslash
Encoding: 92 92 61
Width: 1029
Flags: W
LayerCount: 2
Fore
SplineSet
94 1911 m 1,0,-1
 136 1890 l 1,1,-1
 178 1848 l 1,2,-1
 199 1806 l 1,3,-1
 220 1743 l 1,4,-1
 241 1701 l 1,5,-1
 262 1638 l 1,6,-1
 283 1554 l 1,7,-1
 304 1470 l 1,8,-1
 325 1407 l 1,9,-1
 346 1365 l 1,10,-1
 367 1302 l 1,11,-1
 388 1260 l 1,12,-1
 409 1218 l 1,13,-1
 451 1113 l 1,14,-1
 451 1071 l 1,15,-1
 493 1029 l 1,16,-1
 514 987 l 1,17,-1
 535 924 l 1,18,-1
 556 840 l 1,19,-1
 598 798 l 1,20,-1
 619 756 l 1,21,-1
 640 693 l 1,22,-1
 640 672 l 1,23,-1
 682 609 l 1,24,-1
 703 567 l 1,25,-1
 745 504 l 1,26,-1
 766 462 l 1,27,-1
 787 420 l 1,28,-1
 808 378 l 1,29,-1
 829 336 l 1,30,-1
 850 294 l 1,31,-1
 892 252 l 1,32,-1
 913 210 l 1,33,-1
 934 168 l 1,34,-1
 976 126 l 1,35,-1
 955 147 l 1,36,-1
 955 63 l 1,37,-1
 871 42 l 1,38,-1
 808 63 l 1,39,-1
 787 105 l 1,40,-1
 787 126 l 1,41,-1
 766 126 l 1,42,-1
 745 210 l 1,43,-1
 703 231 l 1,44,-1
 682 273 l 1,45,-1
 661 315 l 1,46,-1
 640 357 l 1,47,-1
 619 420 l 1,48,-1
 577 441 l 1,49,-1
 556 504 l 1,50,-1
 535 546 l 1,51,-1
 514 588 l 1,52,-1
 493 693 l 1,53,-1
 451 714 l 1,54,-1
 430 756 l 1,55,-1
 409 798 l 1,56,-1
 388 924 l 1,57,-1
 346 945 l 1,58,-1
 325 987 l 1,59,-1
 304 1071 l 1,60,-1
 283 1113 l 1,61,-1
 262 1155 l 1,62,-1
 241 1218 l 1,63,-1
 220 1281 l 1,64,-1
 199 1344 l 1,65,-1
 178 1407 l 1,66,-1
 157 1491 l 1,67,-1
 136 1533 l 1,68,-1
 115 1596 l 1,69,-1
 94 1764 l 1,70,-1
 94 1785 l 1,71,-1
 73 1785 l 1,72,-1
 52 1869 l 1,73,-1
 94 1911 l 1,0,-1
EndSplineSet
EndChar

StartChar: bracketright
Encoding: 93 93 62
Width: 1008
Flags: W
LayerCount: 2
Fore
SplineSet
73 1911 m 1,0,-1
 157 1911 l 1,1,-1
 808 1890 l 1,2,-1
 871 1869 l 1,3,-1
 892 1827 l 1,4,-1
 913 1743 l 1,5,-1
 955 1323 l 1,6,-1
 934 1281 l 1,7,-1
 934 735 l 1,8,-1
 913 168 l 1,9,-1
 892 147 l 1,10,-1
 787 147 l 1,11,-1
 724 168 l 1,12,-1
 577 189 l 1,13,-1
 535 210 l 1,14,-1
 451 210 l 1,15,-1
 325 231 l 1,16,-1
 304 273 l 1,17,-1
 304 294 l 1,18,-1
 325 336 l 1,19,-1
 556 357 l 1,20,-1
 598 357 l 1,21,-1
 640 315 l 1,22,-1
 640 336 l 1,23,-1
 745 294 l 1,24,-1
 787 1302 l 1,25,-1
 787 1323 l 1,26,-1
 787 1722 l 1,27,-1
 745 1743 l 1,28,-1
 703 1743 l 1,29,-1
 703 1764 l 1,30,-1
 94 1764 l 1,31,-1
 73 1764 l 1,32,-1
 52 1890 l 1,33,-1
 73 1911 l 1,0,-1
EndSplineSet
EndChar

StartChar: asciicircum
Encoding: 94 94 63
Width: 798
Flags: W
LayerCount: 2
Fore
SplineSet
73 1302 m 1,0,-1
 94 1344 l 1,1,-1
 115 1407 l 1,2,-1
 157 1470 l 1,3,-1
 178 1491 l 1,4,-1
 199 1533 l 1,5,-1
 220 1575 l 1,6,-1
 241 1659 l 1,7,-1
 262 1701 l 1,8,-1
 304 1764 l 1,9,-1
 325 1785 l 1,10,-1
 346 1827 l 1,11,-1
 451 1848 l 1,12,-1
 472 1827 l 1,13,-1
 493 1785 l 1,14,-1
 514 1743 l 1,15,-1
 535 1701 l 1,16,-1
 556 1638 l 1,17,-1
 577 1596 l 1,18,-1
 598 1491 l 1,19,-1
 619 1428 l 1,20,-1
 640 1386 l 1,21,-1
 661 1344 l 1,22,-1
 682 1302 l 1,23,-1
 703 1239 l 1,24,-1
 724 1197 l 1,25,-1
 724 1176 l 1,26,-1
 745 1071 l 1,27,-1
 745 1050 l 1,28,-1
 640 1008 l 1,29,-1
 619 1029 l 1,30,-1
 598 1071 l 1,31,-1
 577 1113 l 1,32,-1
 556 1197 l 1,33,-1
 535 1260 l 1,34,-1
 514 1302 l 1,35,-1
 493 1344 l 1,36,-1
 472 1428 l 1,37,-1
 472 1386 l 1,38,-1
 451 1554 l 1,39,-1
 409 1575 l 1,40,-1
 388 1659 l 1,41,-1
 367 1596 l 1,42,-1
 346 1554 l 1,43,-1
 325 1512 l 1,44,-1
 304 1470 l 1,45,-1
 283 1428 l 1,46,-1
 241 1386 l 1,47,-1
 220 1344 l 1,48,-1
 199 1302 l 1,49,-1
 178 1260 l 1,50,-1
 157 1218 l 1,51,-1
 136 1197 l 1,52,-1
 73 1155 l 1,53,-1
 52 1281 l 1,54,-1
 73 1302 l 1,0,-1
EndSplineSet
EndChar

StartChar: underscore
Encoding: 95 95 64
Width: 1764
Flags: W
LayerCount: 2
Fore
SplineSet
94 1071 m 1,0,-1
 703 1092 l 1,1,-1
 745 1092 l 1,2,-1
 787 1071 l 1,3,-1
 1648 1029 l 1,4,-1
 1669 1008 l 1,5,-1
 1711 966 l 1,6,-1
 1690 945 l 1,7,-1
 1690 924 l 1,8,-1
 1207 882 l 1,9,-1
 1186 903 l 1,10,-1
 304 924 l 1,11,-1
 283 945 l 1,12,-1
 73 945 l 1,13,-1
 52 1008 l 1,14,-1
 94 1071 l 1,0,-1
EndSplineSet
EndChar

StartChar: a
Encoding: 97 97 65
Width: 945
Flags: W
LayerCount: 2
Fore
SplineSet
430 231 m 1,0,-1
 472 273 l 1,1,-1
 493 294 l 1,2,-1
 535 399 l 1,3,-1
 535 420 l 1,4,-1
 535 756 l 1,5,-1
 388 756 l 1,6,-1
 367 735 l 1,7,-1
 325 693 l 1,8,-1
 304 672 l 1,9,-1
 262 651 l 1,10,-1
 241 609 l 1,11,-1
 220 567 l 1,12,-1
 199 483 l 1,13,-1
 178 420 l 1,14,-1
 178 273 l 1,15,-1
 220 252 l 1,16,-1
 283 231 l 1,17,-1
 409 231 l 1,18,-1
 430 231 l 1,0,-1
73 546 m 1,19,-1
 94 609 l 1,20,-1
 115 630 l 1,21,-1
 157 693 l 1,22,-1
 157 714 l 1,23,-1
 178 735 l 1,24,-1
 199 756 l 1,25,-1
 220 777 l 1,26,-1
 241 798 l 1,27,-1
 262 819 l 1,28,-1
 283 840 l 1,29,-1
 304 861 l 1,30,-1
 535 882 l 1,31,-1
 556 882 l 1,32,-1
 598 819 l 1,33,-1
 619 777 l 1,34,-1
 640 735 l 1,35,-1
 661 441 l 1,36,-1
 682 357 l 1,37,-1
 724 336 l 1,38,-1
 745 294 l 1,39,-1
 787 252 l 1,40,-1
 829 210 l 1,41,-1
 850 210 l 1,42,-1
 892 126 l 1,43,-1
 871 105 l 1,44,-1
 787 105 l 1,45,-1
 724 126 l 1,46,-1
 703 168 l 1,47,-1
 661 189 l 1,48,-1
 661 231 l 1,49,-1
 619 252 l 1,50,-1
 598 210 l 1,51,-1
 556 189 l 1,52,-1
 514 147 l 1,53,-1
 493 126 l 1,54,-1
 451 105 l 1,55,-1
 241 105 l 1,56,-1
 157 126 l 1,57,-1
 94 147 l 1,58,-1
 73 189 l 1,59,-1
 73 168 l 1,60,-1
 52 462 l 1,61,-1
 73 546 l 1,19,-1
EndSplineSet
EndChar

StartChar: b
Encoding: 98 98 66
Width: 735
Flags: W
LayerCount: 2
Fore
SplineSet
325 756 m 1,0,-1
 220 735 l 1,1,-1
 199 462 l 1,2,-1
 199 420 l 1,3,-1
 220 336 l 1,4,-1
 283 315 l 1,5,-1
 325 294 l 1,6,-1
 451 294 l 1,7,-1
 493 315 l 1,8,-1
 514 336 l 1,9,-1
 556 399 l 1,10,-1
 535 357 l 1,11,-1
 577 546 l 1,12,-1
 535 567 l 1,13,-1
 514 609 l 1,14,-1
 493 672 l 1,15,-1
 451 693 l 1,16,-1
 430 714 l 1,17,-1
 346 756 l 1,18,-1
 325 756 l 1,0,-1
73 1743 m 1,19,-1
 136 1743 l 1,20,-1
 157 1554 l 1,21,-1
 178 1029 l 1,22,-1
 199 903 l 1,23,-1
 409 882 l 1,24,-1
 451 861 l 1,25,-1
 493 840 l 1,26,-1
 514 819 l 1,27,-1
 556 798 l 1,28,-1
 598 756 l 1,29,-1
 619 714 l 1,30,-1
 661 672 l 1,31,-1
 682 630 l 1,32,-1
 682 357 l 1,33,-1
 682 336 l 1,34,-1
 661 273 l 1,35,-1
 619 231 l 1,36,-1
 598 210 l 1,37,-1
 556 189 l 1,38,-1
 514 168 l 1,39,-1
 430 147 l 1,40,-1
 220 168 l 1,41,-1
 199 189 l 1,42,-1
 136 210 l 1,43,-1
 115 252 l 1,44,-1
 94 336 l 1,45,-1
 94 294 l 1,46,-1
 73 861 l 1,47,-1
 73 357 l 1,48,-1
 52 1701 l 1,49,-1
 73 1743 l 1,19,-1
EndSplineSet
EndChar

StartChar: c
Encoding: 99 99 67
Width: 777
Flags: W
LayerCount: 2
Fore
SplineSet
73 630 m 1,0,-1
 94 714 l 1,1,-1
 115 756 l 1,2,-1
 136 798 l 1,3,-1
 157 840 l 1,4,-1
 199 924 l 1,5,-1
 241 945 l 1,6,-1
 262 966 l 1,7,-1
 409 987 l 1,8,-1
 451 987 l 1,9,-1
 682 945 l 1,10,-1
 703 924 l 1,11,-1
 703 903 l 1,12,-1
 724 882 l 1,13,-1
 724 861 l 1,14,-1
 640 819 l 1,15,-1
 619 840 l 1,16,-1
 703 840 l 1,17,-1
 577 840 l 1,18,-1
 514 861 l 1,19,-1
 451 861 l 1,20,-1
 367 840 l 1,21,-1
 304 798 l 1,22,-1
 283 735 l 1,23,-1
 262 693 l 1,24,-1
 241 651 l 1,25,-1
 220 609 l 1,26,-1
 199 567 l 1,27,-1
 199 441 l 1,28,-1
 220 378 l 1,29,-1
 241 336 l 1,30,-1
 283 315 l 1,31,-1
 304 294 l 1,32,-1
 346 273 l 1,33,-1
 430 231 l 1,34,-1
 556 252 l 1,35,-1
 619 231 l 1,36,-1
 640 189 l 1,37,-1
 619 126 l 1,38,-1
 577 105 l 1,39,-1
 493 84 l 1,40,-1
 304 105 l 1,41,-1
 283 147 l 1,42,-1
 241 168 l 1,43,-1
 178 189 l 1,44,-1
 157 231 l 1,45,-1
 94 252 l 1,46,-1
 73 294 l 1,47,-1
 73 273 l 1,48,-1
 52 609 l 1,49,-1
 73 630 l 1,0,-1
EndSplineSet
EndChar

StartChar: d
Encoding: 100 100 68
Width: 756
Flags: W
LayerCount: 2
Fore
SplineSet
472 315 m 1,0,-1
 514 693 l 1,1,-1
 472 714 l 1,2,-1
 451 714 l 1,3,-1
 409 672 l 1,4,-1
 388 651 l 1,5,-1
 346 630 l 1,6,-1
 304 588 l 1,7,-1
 283 567 l 1,8,-1
 241 525 l 1,9,-1
 241 504 l 1,10,-1
 199 462 l 1,11,-1
 199 399 l 1,12,-1
 220 357 l 1,13,-1
 262 336 l 1,14,-1
 304 315 l 1,15,-1
 346 294 l 1,16,-1
 451 294 l 1,17,-1
 472 315 l 1,0,-1
73 567 m 1,18,-1
 115 609 l 1,19,-1
 136 630 l 1,20,-1
 178 693 l 1,21,-1
 220 714 l 1,22,-1
 262 756 l 1,23,-1
 304 777 l 1,24,-1
 325 798 l 1,25,-1
 493 819 l 1,26,-1
 535 1155 l 1,27,-1
 535 1176 l 1,28,-1
 577 1323 l 1,29,-1
 556 1197 l 1,30,-1
 598 1533 l 1,31,-1
 598 1554 l 1,32,-1
 682 1575 l 1,33,-1
 703 1554 l 1,34,-1
 703 1281 l 1,35,-1
 682 1134 l 1,36,-1
 661 966 l 1,37,-1
 661 273 l 1,38,-1
 619 231 l 1,39,-1
 598 210 l 1,40,-1
 556 168 l 1,41,-1
 535 147 l 1,42,-1
 262 147 l 1,43,-1
 220 168 l 1,44,-1
 178 189 l 1,45,-1
 136 210 l 1,46,-1
 115 252 l 1,47,-1
 94 252 l 1,48,-1
 94 273 l 1,49,-1
 73 273 l 1,50,-1
 52 546 l 1,51,-1
 73 567 l 1,18,-1
EndSplineSet
EndChar

StartChar: e
Encoding: 101 101 69
Width: 987
Flags: W
LayerCount: 2
Fore
SplineSet
241 588 m 1,0,-1
 346 588 l 1,1,-1
 283 588 l 1,2,-1
 619 609 l 1,3,-1
 640 630 l 1,4,-1
 640 735 l 1,5,-1
 619 777 l 1,6,-1
 598 819 l 1,7,-1
 577 861 l 1,8,-1
 493 861 l 1,9,-1
 367 840 l 1,10,-1
 346 819 l 1,11,-1
 283 798 l 1,12,-1
 241 756 l 1,13,-1
 220 714 l 1,14,-1
 199 630 l 1,15,-1
 199 588 l 1,16,-1
 199 672 l 1,17,-1
 220 567 l 1,18,-1
 241 567 l 1,19,-1
 241 588 l 1,0,-1
73 756 m 1,20,-1
 94 798 l 1,21,-1
 115 861 l 1,22,-1
 157 903 l 1,23,-1
 199 924 l 1,24,-1
 220 924 l 1,25,-1
 262 966 l 1,26,-1
 283 987 l 1,27,-1
 577 1008 l 1,28,-1
 619 1008 l 1,29,-1
 661 987 l 1,30,-1
 703 966 l 1,31,-1
 724 924 l 1,32,-1
 745 882 l 1,33,-1
 766 819 l 1,34,-1
 787 777 l 1,35,-1
 787 567 l 1,36,-1
 766 546 l 1,37,-1
 724 504 l 1,38,-1
 703 483 l 1,39,-1
 430 462 l 1,40,-1
 367 441 l 1,41,-1
 283 399 l 1,42,-1
 283 378 l 1,43,-1
 325 357 l 1,44,-1
 346 315 l 1,45,-1
 388 273 l 1,46,-1
 430 231 l 1,47,-1
 472 210 l 1,48,-1
 598 189 l 1,49,-1
 640 189 l 1,50,-1
 703 210 l 1,51,-1
 724 210 l 1,52,-1
 745 231 l 1,53,-1
 808 252 l 1,54,-1
 850 294 l 1,55,-1
 892 315 l 1,56,-1
 913 294 l 1,57,-1
 934 252 l 1,58,-1
 934 168 l 1,59,-1
 913 147 l 1,60,-1
 871 126 l 1,61,-1
 829 105 l 1,62,-1
 787 84 l 1,63,-1
 724 63 l 1,64,-1
 598 42 l 1,65,-1
 451 42 l 1,66,-1
 409 42 l 1,67,-1
 388 84 l 1,68,-1
 346 105 l 1,69,-1
 304 105 l 1,70,-1
 283 147 l 1,71,-1
 241 168 l 1,72,-1
 220 231 l 1,73,-1
 178 231 l 1,74,-1
 157 294 l 1,75,-1
 115 315 l 1,76,-1
 94 441 l 1,77,-1
 73 525 l 1,78,-1
 73 504 l 1,79,-1
 52 714 l 1,80,-1
 73 756 l 1,20,-1
EndSplineSet
EndChar

StartChar: f
Encoding: 102 102 70
Width: 882
Flags: W
LayerCount: 2
Fore
SplineSet
73 861 m 1,0,-1
 157 861 l 1,1,-1
 178 840 l 1,2,-1
 199 1050 l 1,3,-1
 220 1092 l 1,4,-1
 241 1155 l 1,5,-1
 262 1197 l 1,6,-1
 304 1260 l 1,7,-1
 325 1281 l 1,8,-1
 409 1302 l 1,9,-1
 556 1323 l 1,10,-1
 682 1302 l 1,11,-1
 724 1281 l 1,12,-1
 766 1260 l 1,13,-1
 787 1218 l 1,14,-1
 808 1197 l 1,15,-1
 808 1176 l 1,16,-1
 829 1134 l 1,17,-1
 829 1113 l 1,18,-1
 724 1071 l 1,19,-1
 703 1113 l 1,20,-1
 661 1134 l 1,21,-1
 640 1176 l 1,22,-1
 598 1197 l 1,23,-1
 493 1197 l 1,24,-1
 409 1176 l 1,25,-1
 388 1134 l 1,26,-1
 367 1092 l 1,27,-1
 346 1029 l 1,28,-1
 325 987 l 1,29,-1
 325 840 l 1,30,-1
 598 819 l 1,31,-1
 619 777 l 1,32,-1
 619 714 l 1,33,-1
 598 693 l 1,34,-1
 325 672 l 1,35,-1
 325 357 l 1,36,-1
 346 294 l 1,37,-1
 346 0 l 1,38,-1
 304 -20 l 1,39,-1
 283 -20 l 1,40,-1
 262 189 l 1,41,-1
 241 210 l 1,42,-1
 220 315 l 1,43,-1
 220 252 l 1,44,-1
 199 714 l 1,45,-1
 94 714 l 1,46,-1
 94 735 l 1,47,-1
 73 735 l 1,48,-1
 52 840 l 1,49,-1
 73 861 l 1,0,-1
EndSplineSet
EndChar

StartChar: g
Encoding: 103 103 71
Width: 840
Flags: W
LayerCount: 2
Fore
SplineSet
472 231 m 1,0,-1
 535 252 l 1,1,-1
 577 315 l 1,2,-1
 598 336 l 1,3,-1
 619 378 l 1,4,-1
 640 462 l 1,5,-1
 640 672 l 1,6,-1
 619 735 l 1,7,-1
 619 819 l 1,8,-1
 535 819 l 1,9,-1
 493 798 l 1,10,-1
 430 777 l 1,11,-1
 409 756 l 1,12,-1
 367 714 l 1,13,-1
 346 672 l 1,14,-1
 325 651 l 1,15,-1
 283 609 l 1,16,-1
 262 546 l 1,17,-1
 241 504 l 1,18,-1
 220 441 l 1,19,-1
 199 399 l 1,20,-1
 199 273 l 1,21,-1
 220 231 l 1,22,-1
 367 210 l 1,23,-1
 430 210 l 1,24,-1
 472 231 l 1,0,-1
73 483 m 1,25,-1
 94 525 l 1,26,-1
 115 567 l 1,27,-1
 136 630 l 1,28,-1
 157 672 l 1,29,-1
 178 693 l 1,30,-1
 199 735 l 1,31,-1
 241 777 l 1,32,-1
 262 798 l 1,33,-1
 304 840 l 1,34,-1
 325 861 l 1,35,-1
 367 903 l 1,36,-1
 409 924 l 1,37,-1
 472 945 l 1,38,-1
 661 945 l 1,39,-1
 703 924 l 1,40,-1
 724 924 l 1,41,-1
 766 924 l 1,42,-1
 787 903 l 1,43,-1
 787 483 l 1,44,-1
 766 84 l 1,45,-1
 745 -20 l 1,46,-1
 724 -209 l 1,47,-1
 703 -293 l 1,48,-1
 682 -419 l 1,49,-1
 682 -440 l 1,50,-1
 640 -461 l 1,51,-1
 598 -482 l 1,52,-1
 535 -503 l 1,53,-1
 283 -524 l 1,54,-1
 262 -482 l 1,55,-1
 220 -461 l 1,56,-1
 178 -440 l 1,57,-1
 136 -419 l 1,58,-1
 115 -377 l 1,59,-1
 136 -314 l 1,60,-1
 115 -251 l 1,61,-1
 115 -230 l 1,62,-1
 115 -272 l 1,63,-1
 136 -209 l 1,64,-1
 178 -188 l 1,65,-1
 199 -209 l 1,66,-1
 220 -209 l 1,67,-1
 220 -230 l 1,68,-1
 262 -293 l 1,69,-1
 283 -335 l 1,70,-1
 304 -335 l 1,71,-1
 325 -335 l 1,72,-1
 409 -377 l 1,73,-1
 346 -356 l 1,74,-1
 514 -356 l 1,75,-1
 535 -335 l 1,76,-1
 556 -293 l 1,77,-1
 577 -188 l 1,78,-1
 598 -146 l 1,79,-1
 619 42 l 1,80,-1
 640 105 l 1,81,-1
 556 105 l 1,82,-1
 514 84 l 1,83,-1
 304 84 l 1,84,-1
 157 84 l 1,85,-1
 136 126 l 1,86,-1
 115 126 l 1,87,-1
 115 147 l 1,88,-1
 94 147 l 1,89,-1
 73 231 l 1,90,-1
 73 168 l 1,91,-1
 52 441 l 1,92,-1
 73 483 l 1,25,-1
EndSplineSet
EndChar

StartChar: h
Encoding: 104 104 72
Width: 735
Flags: W
LayerCount: 2
Fore
SplineSet
73 1764 m 1,0,-1
 94 1785 l 1,1,-1
 136 1785 l 1,2,-1
 94 1785 l 1,3,-1
 136 1764 l 1,4,-1
 178 777 l 1,5,-1
 178 756 l 1,6,-1
 199 798 l 1,7,-1
 220 840 l 1,8,-1
 262 882 l 1,9,-1
 472 882 l 1,10,-1
 514 861 l 1,11,-1
 535 819 l 1,12,-1
 556 756 l 1,13,-1
 577 714 l 1,14,-1
 598 672 l 1,15,-1
 619 609 l 1,16,-1
 640 399 l 1,17,-1
 661 126 l 1,18,-1
 682 84 l 1,19,-1
 682 42 l 1,20,-1
 661 21 l 1,21,-1
 598 0 l 1,22,-1
 577 42 l 1,23,-1
 535 63 l 1,24,-1
 514 336 l 1,25,-1
 493 546 l 1,26,-1
 472 630 l 1,27,-1
 451 714 l 1,28,-1
 451 735 l 1,29,-1
 325 756 l 1,30,-1
 304 714 l 1,31,-1
 283 672 l 1,32,-1
 262 609 l 1,33,-1
 241 588 l 1,34,-1
 241 567 l 1,35,-1
 220 546 l 1,36,-1
 199 420 l 1,37,-1
 199 525 l 1,38,-1
 178 126 l 1,39,-1
 178 84 l 1,40,-1
 178 21 l 1,41,-1
 94 -20 l 1,42,-1
 73 0 l 1,43,-1
 73 -20 l 1,44,-1
 52 1407 l 1,45,-1
 73 1764 l 1,0,-1
EndSplineSet
EndChar

StartChar: i
Encoding: 105 105 73
Width: 336
Flags: W
LayerCount: 2
Fore
SplineSet
136 798 m 1,0,-1
 178 798 l 1,1,-1
 199 756 l 1,2,-1
 220 21 l 1,3,-1
 178 -20 l 1,4,-1
 136 -41 l 1,5,-1
 115 -41 l 1,6,-1
 94 756 l 1,7,-1
 136 798 l 1,0,-1
73 1197 m 1,8,-1
 94 1218 l 1,9,-1
 178 1239 l 1,10,-1
 241 1218 l 1,11,-1
 262 1218 l 1,12,-1
 262 1197 l 1,13,-1
 283 1050 l 1,14,-1
 283 1029 l 1,15,-1
 73 987 l 1,16,-1
 52 1176 l 1,17,-1
 73 1197 l 1,8,-1
EndSplineSet
EndChar

StartChar: j
Encoding: 106 106 74
Width: 630
Flags: W
LayerCount: 2
Fore
SplineSet
409 1323 m 1,0,-1
 451 1344 l 1,1,-1
 514 1323 l 1,2,-1
 556 1302 l 1,3,-1
 577 1260 l 1,4,-1
 577 1176 l 1,5,-1
 556 1155 l 1,6,-1
 472 1155 l 1,7,-1
 430 1155 l 1,8,-1
 430 1176 l 1,9,-1
 409 1176 l 1,10,-1
 388 1260 l 1,11,-1
 409 1323 l 1,0,-1
52 378 m 1,12,-1
 115 378 l 1,13,-1
 136 357 l 1,14,-1
 157 315 l 1,15,-1
 178 273 l 1,16,-1
 199 231 l 1,17,-1
 241 210 l 1,18,-1
 346 168 l 1,19,-1
 388 252 l 1,20,-1
 367 168 l 1,21,-1
 409 672 l 1,22,-1
 430 924 l 1,23,-1
 451 945 l 1,24,-1
 493 945 l 1,25,-1
 514 924 l 1,26,-1
 535 819 l 1,27,-1
 535 252 l 1,28,-1
 514 210 l 1,29,-1
 493 105 l 1,30,-1
 472 63 l 1,31,-1
 241 42 l 1,32,-1
 220 84 l 1,33,-1
 178 105 l 1,34,-1
 136 105 l 1,35,-1
 115 147 l 1,36,-1
 73 168 l 1,37,-1
 52 357 l 1,38,-1
 52 378 l 1,12,-1
EndSplineSet
EndChar

StartChar: k
Encoding: 107 107 75
Width: 945
Flags: W
LayerCount: 2
Fore
SplineSet
178 861 m 1,0,-1
 199 861 l 1,1,-1
 178 861 l 1,0,-1
94 1785 m 1,2,-1
 157 1785 l 1,3,-1
 178 1743 l 1,4,-1
 199 882 l 1,5,-1
 220 882 l 1,6,-1
 262 924 l 1,7,-1
 304 945 l 1,8,-1
 346 966 l 1,9,-1
 388 1008 l 1,10,-1
 430 1029 l 1,11,-1
 451 1050 l 1,12,-1
 493 1092 l 1,13,-1
 514 1113 l 1,14,-1
 556 1155 l 1,15,-1
 598 1176 l 1,16,-1
 619 1197 l 1,17,-1
 661 1239 l 1,18,-1
 682 1260 l 1,19,-1
 703 1260 l 1,20,-1
 724 1281 l 1,21,-1
 745 1302 l 1,22,-1
 808 1323 l 1,23,-1
 892 1302 l 1,24,-1
 892 1218 l 1,25,-1
 871 1197 l 1,26,-1
 808 1176 l 1,27,-1
 787 1155 l 1,28,-1
 745 1134 l 1,29,-1
 703 1092 l 1,30,-1
 682 1071 l 1,31,-1
 640 1050 l 1,32,-1
 640 987 l 1,33,-1
 661 861 l 1,34,-1
 682 819 l 1,35,-1
 703 420 l 1,36,-1
 703 399 l 1,37,-1
 724 126 l 1,38,-1
 724 105 l 1,39,-1
 619 63 l 1,40,-1
 598 105 l 1,41,-1
 598 84 l 1,42,-1
 577 336 l 1,43,-1
 577 126 l 1,44,-1
 556 672 l 1,45,-1
 556 693 l 1,46,-1
 556 945 l 1,47,-1
 514 945 l 1,48,-1
 493 924 l 1,49,-1
 472 903 l 1,50,-1
 409 861 l 1,51,-1
 388 840 l 1,52,-1
 346 819 l 1,53,-1
 325 798 l 1,54,-1
 283 777 l 1,55,-1
 262 756 l 1,56,-1
 220 735 l 1,57,-1
 178 693 l 1,58,-1
 157 546 l 1,59,-1
 136 63 l 1,60,-1
 136 21 l 1,61,-1
 94 -20 l 1,62,-1
 73 0 l 1,63,-1
 73 -20 l 1,64,-1
 52 189 l 1,65,-1
 73 819 l 1,66,-1
 52 609 l 1,67,-1
 52 1722 l 1,68,-1
 94 1785 l 1,2,-1
EndSplineSet
EndChar

StartChar: l
Encoding: 108 108 76
Width: 661
Flags: W
LayerCount: 2
Fore
SplineSet
267 1743 m 1,0,-1
 309 1722 l 1,1,-1
 330 1680 l 1,2,-1
 351 1260 l 1,3,-1
 372 1218 l 1,4,-1
 393 1071 l 1,5,-1
 414 1029 l 1,6,-1
 435 588 l 1,7,-1
 414 714 l 1,8,-1
 456 105 l 1,9,-1
 372 63 l 1,10,-1
 351 84 l 1,11,-1
 351 63 l 1,12,-1
 330 441 l 1,13,-1
 309 462 l 1,14,-1
 288 777 l 1,15,-1
 267 1155 l 1,16,-1
 267 1029 l 1,17,-1
 246 1407 l 1,18,-1
 225 1722 l 1,19,-1
 267 1743 l 1,0,-1
EndSplineSet
EndChar

StartChar: m
Encoding: 109 109 77
Width: 1260
Flags: W
LayerCount: 2
Fore
SplineSet
94 987 m 1,0,-1
 115 987 l 1,1,-1
 136 966 l 1,2,-1
 178 924 l 1,3,-1
 157 924 l 1,4,-1
 199 798 l 1,5,-1
 220 798 l 1,6,-1
 241 819 l 1,7,-1
 283 861 l 1,8,-1
 325 882 l 1,9,-1
 346 903 l 1,10,-1
 493 924 l 1,11,-1
 556 903 l 1,12,-1
 598 882 l 1,13,-1
 619 840 l 1,14,-1
 640 819 l 1,15,-1
 661 777 l 1,16,-1
 682 756 l 1,17,-1
 703 756 l 1,18,-1
 703 777 l 1,19,-1
 724 798 l 1,20,-1
 745 819 l 1,21,-1
 766 840 l 1,22,-1
 787 861 l 1,23,-1
 934 882 l 1,24,-1
 976 882 l 1,25,-1
 1018 861 l 1,26,-1
 1039 819 l 1,27,-1
 1081 798 l 1,28,-1
 1102 756 l 1,29,-1
 1123 714 l 1,30,-1
 1144 651 l 1,31,-1
 1165 546 l 1,32,-1
 1186 378 l 1,33,-1
 1186 357 l 1,34,-1
 1207 -20 l 1,35,-1
 1207 -41 l 1,36,-1
 1102 -83 l 1,37,-1
 1081 -62 l 1,38,-1
 1060 315 l 1,39,-1
 1039 483 l 1,40,-1
 1018 672 l 1,41,-1
 955 693 l 1,42,-1
 934 735 l 1,43,-1
 871 756 l 1,44,-1
 850 735 l 1,45,-1
 808 693 l 1,46,-1
 787 588 l 1,47,-1
 766 84 l 1,48,-1
 766 63 l 1,49,-1
 703 42 l 1,50,-1
 682 42 l 1,51,-1
 661 252 l 1,52,-1
 661 63 l 1,53,-1
 640 525 l 1,54,-1
 598 546 l 1,55,-1
 577 651 l 1,56,-1
 577 693 l 1,57,-1
 535 714 l 1,58,-1
 514 756 l 1,59,-1
 493 798 l 1,60,-1
 409 798 l 1,61,-1
 367 756 l 1,62,-1
 346 735 l 1,63,-1
 304 693 l 1,64,-1
 283 651 l 1,65,-1
 262 609 l 1,66,-1
 241 546 l 1,67,-1
 220 462 l 1,68,-1
 220 378 l 1,69,-1
 241 189 l 1,70,-1
 262 42 l 1,71,-1
 241 -20 l 1,72,-1
 157 -62 l 1,73,-1
 136 -41 l 1,74,-1
 136 -62 l 1,75,-1
 115 105 l 1,76,-1
 94 420 l 1,77,-1
 94 315 l 1,78,-1
 73 756 l 1,79,-1
 52 945 l 1,80,-1
 94 987 l 1,0,-1
EndSplineSet
EndChar

StartChar: n
Encoding: 110 110 78
Width: 756
Flags: W
LayerCount: 2
Fore
SplineSet
94 441 m 1,0,-1
 73 399 l 1,1,-1
 115 924 l 1,2,-1
 136 987 l 1,3,-1
 157 1008 l 1,4,-1
 178 1008 l 1,5,-1
 220 840 l 1,6,-1
 241 819 l 1,7,-1
 283 861 l 1,8,-1
 304 882 l 1,9,-1
 325 882 l 1,10,-1
 346 903 l 1,11,-1
 451 924 l 1,12,-1
 493 945 l 1,13,-1
 514 945 l 1,14,-1
 556 924 l 1,15,-1
 598 903 l 1,16,-1
 619 861 l 1,17,-1
 640 819 l 1,18,-1
 661 735 l 1,19,-1
 682 693 l 1,20,-1
 703 252 l 1,21,-1
 703 42 l 1,22,-1
 682 21 l 1,23,-1
 619 21 l 1,24,-1
 577 42 l 1,25,-1
 556 210 l 1,26,-1
 535 651 l 1,27,-1
 514 714 l 1,28,-1
 493 777 l 1,29,-1
 451 777 l 1,30,-1
 388 756 l 1,31,-1
 346 714 l 1,32,-1
 325 672 l 1,33,-1
 304 630 l 1,34,-1
 283 588 l 1,35,-1
 262 546 l 1,36,-1
 241 441 l 1,37,-1
 220 210 l 1,38,-1
 220 105 l 1,39,-1
 178 63 l 1,40,-1
 94 42 l 1,41,-1
 73 42 l 1,42,-1
 52 294 l 1,43,-1
 94 441 l 1,0,-1
EndSplineSet
EndChar

StartChar: o
Encoding: 111 111 79
Width: 819
Flags: W
LayerCount: 2
Fore
SplineSet
451 231 m 1,0,-1
 472 231 l 1,1,-1
 493 294 l 1,2,-1
 535 357 l 1,3,-1
 556 378 l 1,4,-1
 577 441 l 1,5,-1
 598 525 l 1,6,-1
 619 819 l 1,7,-1
 577 840 l 1,8,-1
 535 861 l 1,9,-1
 493 882 l 1,10,-1
 430 882 l 1,11,-1
 388 840 l 1,12,-1
 367 798 l 1,13,-1
 346 777 l 1,14,-1
 304 735 l 1,15,-1
 283 693 l 1,16,-1
 262 630 l 1,17,-1
 241 588 l 1,18,-1
 241 567 l 1,19,-1
 241 546 l 1,20,-1
 220 441 l 1,21,-1
 199 399 l 1,22,-1
 199 357 l 1,23,-1
 241 273 l 1,24,-1
 283 231 l 1,25,-1
 325 210 l 1,26,-1
 409 210 l 1,27,-1
 451 231 l 1,0,-1
73 546 m 1,28,-1
 94 672 l 1,29,-1
 115 714 l 1,30,-1
 136 756 l 1,31,-1
 157 798 l 1,32,-1
 199 840 l 1,33,-1
 220 861 l 1,34,-1
 241 903 l 1,35,-1
 283 966 l 1,36,-1
 325 987 l 1,37,-1
 367 1029 l 1,38,-1
 409 1050 l 1,39,-1
 535 1050 l 1,40,-1
 556 1029 l 1,41,-1
 598 1008 l 1,42,-1
 640 987 l 1,43,-1
 682 945 l 1,44,-1
 724 924 l 1,45,-1
 745 882 l 1,46,-1
 766 840 l 1,47,-1
 766 504 l 1,48,-1
 766 483 l 1,49,-1
 745 462 l 1,50,-1
 724 336 l 1,51,-1
 682 294 l 1,52,-1
 661 252 l 1,53,-1
 640 210 l 1,54,-1
 619 168 l 1,55,-1
 598 147 l 1,56,-1
 556 105 l 1,57,-1
 535 84 l 1,58,-1
 493 63 l 1,59,-1
 262 63 l 1,60,-1
 220 84 l 1,61,-1
 178 105 l 1,62,-1
 115 126 l 1,63,-1
 94 168 l 1,64,-1
 73 252 l 1,65,-1
 73 231 l 1,66,-1
 52 483 l 1,67,-1
 73 546 l 1,28,-1
EndSplineSet
EndChar

StartChar: p
Encoding: 112 112 80
Width: 882
Flags: W
LayerCount: 2
Fore
SplineSet
346 588 m 1,0,-1
 325 483 l 1,1,-1
 325 567 l 1,2,-1
 304 189 l 1,3,-1
 388 147 l 1,4,-1
 451 126 l 1,5,-1
 514 147 l 1,6,-1
 556 231 l 1,7,-1
 598 252 l 1,8,-1
 619 294 l 1,9,-1
 640 315 l 1,10,-1
 661 357 l 1,11,-1
 682 399 l 1,12,-1
 682 483 l 1,13,-1
 661 588 l 1,14,-1
 640 672 l 1,15,-1
 598 693 l 1,16,-1
 619 693 l 1,17,-1
 451 714 l 1,18,-1
 430 630 l 1,19,-1
 409 609 l 1,20,-1
 367 588 l 1,21,-1
 346 588 l 1,0,-1
73 -461 m 1,22,-1
 94 -377 l 1,23,-1
 115 -272 l 1,24,-1
 136 -188 l 1,25,-1
 157 147 l 1,26,-1
 199 651 l 1,27,-1
 220 672 l 1,28,-1
 220 798 l 1,29,-1
 262 819 l 1,30,-1
 241 819 l 1,31,-1
 640 840 l 1,32,-1
 682 819 l 1,33,-1
 724 777 l 1,34,-1
 745 735 l 1,35,-1
 766 693 l 1,36,-1
 787 651 l 1,37,-1
 808 609 l 1,38,-1
 829 525 l 1,39,-1
 829 357 l 1,40,-1
 808 315 l 1,41,-1
 787 294 l 1,42,-1
 787 273 l 1,43,-1
 787 252 l 1,44,-1
 766 231 l 1,45,-1
 745 168 l 1,46,-1
 682 126 l 1,47,-1
 661 63 l 1,48,-1
 619 21 l 1,49,-1
 598 0 l 1,50,-1
 346 0 l 1,51,-1
 283 21 l 1,52,-1
 262 -230 l 1,53,-1
 241 -293 l 1,54,-1
 220 -377 l 1,55,-1
 199 -440 l 1,56,-1
 178 -524 l 1,57,-1
 157 -566 l 1,58,-1
 94 -587 l 1,59,-1
 94 -566 l 1,60,-1
 73 -566 l 1,61,-1
 52 -482 l 1,62,-1
 73 -461 l 1,22,-1
EndSplineSet
EndChar

StartChar: q
Encoding: 113 113 81
Width: 1050
Flags: W
LayerCount: 2
Fore
SplineSet
472 189 m 1,0,-1
 514 231 l 1,1,-1
 535 252 l 1,2,-1
 556 294 l 1,3,-1
 598 357 l 1,4,-1
 619 378 l 1,5,-1
 619 609 l 1,6,-1
 619 651 l 1,7,-1
 577 672 l 1,8,-1
 577 735 l 1,9,-1
 430 735 l 1,10,-1
 388 714 l 1,11,-1
 325 672 l 1,12,-1
 304 651 l 1,13,-1
 262 609 l 1,14,-1
 241 546 l 1,15,-1
 199 504 l 1,16,-1
 178 420 l 1,17,-1
 178 252 l 1,18,-1
 199 168 l 1,19,-1
 451 168 l 1,20,-1
 472 189 l 1,0,-1
94 588 m 1,21,-1
 115 609 l 1,22,-1
 157 672 l 1,23,-1
 178 693 l 1,24,-1
 220 735 l 1,25,-1
 241 756 l 1,26,-1
 283 798 l 1,27,-1
 304 819 l 1,28,-1
 577 840 l 1,29,-1
 619 798 l 1,30,-1
 661 777 l 1,31,-1
 703 735 l 1,32,-1
 724 693 l 1,33,-1
 745 651 l 1,34,-1
 766 567 l 1,35,-1
 787 525 l 1,36,-1
 787 294 l 1,37,-1
 766 147 l 1,38,-1
 745 0 l 1,39,-1
 724 -83 l 1,40,-1
 703 -125 l 1,41,-1
 682 -314 l 1,42,-1
 661 -377 l 1,43,-1
 661 -503 l 1,44,-1
 703 -461 l 1,45,-1
 724 -440 l 1,46,-1
 766 -398 l 1,47,-1
 787 -377 l 1,48,-1
 829 -335 l 1,49,-1
 850 -314 l 1,50,-1
 892 -272 l 1,51,-1
 934 -251 l 1,52,-1
 955 -251 l 1,53,-1
 997 -293 l 1,54,-1
 997 -377 l 1,55,-1
 976 -398 l 1,56,-1
 934 -419 l 1,57,-1
 892 -461 l 1,58,-1
 871 -503 l 1,59,-1
 808 -545 l 1,60,-1
 787 -566 l 1,61,-1
 745 -608 l 1,62,-1
 577 -629 l 1,63,-1
 556 -629 l 1,64,-1
 535 -356 l 1,65,-1
 535 -335 l 1,66,-1
 577 -83 l 1,67,-1
 598 -62 l 1,68,-1
 619 42 l 1,69,-1
 619 147 l 1,70,-1
 598 126 l 1,71,-1
 556 84 l 1,72,-1
 535 42 l 1,73,-1
 283 21 l 1,74,-1
 94 42 l 1,75,-1
 73 84 l 1,76,-1
 73 63 l 1,77,-1
 52 462 l 1,78,-1
 94 588 l 1,21,-1
EndSplineSet
EndChar

StartChar: r
Encoding: 114 114 82
Width: 756
Flags: W
LayerCount: 2
Fore
SplineSet
73 966 m 1,0,-1
 115 987 l 1,1,-1
 136 987 l 1,2,-1
 157 945 l 1,3,-1
 178 756 l 1,4,-1
 178 735 l 1,5,-1
 199 756 l 1,6,-1
 220 777 l 1,7,-1
 241 798 l 1,8,-1
 262 819 l 1,9,-1
 472 840 l 1,10,-1
 535 819 l 1,11,-1
 577 798 l 1,12,-1
 640 777 l 1,13,-1
 661 735 l 1,14,-1
 682 735 l 1,15,-1
 682 714 l 1,16,-1
 703 714 l 1,17,-1
 682 630 l 1,18,-1
 619 630 l 1,19,-1
 577 651 l 1,20,-1
 514 672 l 1,21,-1
 514 714 l 1,22,-1
 367 714 l 1,23,-1
 325 672 l 1,24,-1
 304 630 l 1,25,-1
 262 588 l 1,26,-1
 241 525 l 1,27,-1
 220 399 l 1,28,-1
 199 294 l 1,29,-1
 199 63 l 1,30,-1
 157 21 l 1,31,-1
 94 0 l 1,32,-1
 73 0 l 1,33,-1
 52 630 l 1,34,-1
 73 966 l 1,0,-1
EndSplineSet
EndChar

StartChar: s
Encoding: 115 115 83
Width: 714
Flags: W
LayerCount: 2
Fore
SplineSet
73 294 m 1,0,-1
 136 294 l 1,1,-1
 178 273 l 1,2,-1
 199 252 l 1,3,-1
 220 210 l 1,4,-1
 241 168 l 1,5,-1
 283 147 l 1,6,-1
 325 147 l 1,7,-1
 367 168 l 1,8,-1
 409 210 l 1,9,-1
 388 189 l 1,10,-1
 430 357 l 1,11,-1
 409 378 l 1,12,-1
 388 441 l 1,13,-1
 367 441 l 1,14,-1
 367 462 l 1,15,-1
 283 483 l 1,16,-1
 262 525 l 1,17,-1
 262 567 l 1,18,-1
 220 588 l 1,19,-1
 157 609 l 1,20,-1
 157 819 l 1,21,-1
 178 903 l 1,22,-1
 220 945 l 1,23,-1
 241 966 l 1,24,-1
 304 987 l 1,25,-1
 451 987 l 1,26,-1
 493 966 l 1,27,-1
 577 924 l 1,28,-1
 619 903 l 1,29,-1
 640 861 l 1,30,-1
 661 819 l 1,31,-1
 661 798 l 1,32,-1
 640 735 l 1,33,-1
 598 714 l 1,34,-1
 577 735 l 1,35,-1
 577 798 l 1,36,-1
 535 819 l 1,37,-1
 472 840 l 1,38,-1
 430 861 l 1,39,-1
 367 861 l 1,40,-1
 304 819 l 1,41,-1
 283 714 l 1,42,-1
 325 672 l 1,43,-1
 367 630 l 1,44,-1
 409 609 l 1,45,-1
 430 588 l 1,46,-1
 472 567 l 1,47,-1
 493 525 l 1,48,-1
 514 462 l 1,49,-1
 535 420 l 1,50,-1
 535 168 l 1,51,-1
 535 147 l 1,52,-1
 493 105 l 1,53,-1
 472 84 l 1,54,-1
 430 42 l 1,55,-1
 409 21 l 1,56,-1
 346 0 l 1,57,-1
 241 0 l 1,58,-1
 199 21 l 1,59,-1
 157 42 l 1,60,-1
 115 63 l 1,61,-1
 115 126 l 1,62,-1
 73 147 l 1,63,-1
 73 126 l 1,64,-1
 52 273 l 1,65,-1
 73 294 l 1,0,-1
EndSplineSet
EndChar

StartChar: t
Encoding: 116 116 84
Width: 798
Flags: W
LayerCount: 2
Fore
SplineSet
73 1071 m 1,0,-1
 220 1092 l 1,1,-1
 262 1260 l 1,2,-1
 241 1092 l 1,3,-1
 283 1512 l 1,4,-1
 304 1533 l 1,5,-1
 346 1491 l 1,6,-1
 325 1533 l 1,7,-1
 367 1113 l 1,8,-1
 703 1071 l 1,9,-1
 724 1050 l 1,10,-1
 724 1029 l 1,11,-1
 745 1008 l 1,12,-1
 745 987 l 1,13,-1
 367 945 l 1,14,-1
 346 798 l 1,15,-1
 346 756 l 1,16,-1
 367 126 l 1,17,-1
 346 63 l 1,18,-1
 304 42 l 1,19,-1
 262 42 l 1,20,-1
 241 63 l 1,21,-1
 220 84 l 1,22,-1
 241 924 l 1,23,-1
 241 945 l 1,24,-1
 94 966 l 1,25,-1
 73 987 l 1,26,-1
 52 1050 l 1,27,-1
 73 1071 l 1,0,-1
EndSplineSet
EndChar

StartChar: u
Encoding: 117 117 85
Width: 945
Flags: W
LayerCount: 2
Fore
SplineSet
73 672 m 1,0,-1
 94 903 l 1,1,-1
 136 945 l 1,2,-1
 157 966 l 1,3,-1
 199 966 l 1,4,-1
 157 966 l 1,5,-1
 199 945 l 1,6,-1
 241 903 l 1,7,-1
 220 882 l 1,8,-1
 199 840 l 1,9,-1
 220 630 l 1,10,-1
 199 588 l 1,11,-1
 199 315 l 1,12,-1
 220 273 l 1,13,-1
 241 231 l 1,14,-1
 262 189 l 1,15,-1
 304 189 l 1,16,-1
 367 147 l 1,17,-1
 409 189 l 1,18,-1
 430 210 l 1,19,-1
 472 294 l 1,20,-1
 493 315 l 1,21,-1
 514 357 l 1,22,-1
 535 420 l 1,23,-1
 556 504 l 1,24,-1
 577 588 l 1,25,-1
 598 630 l 1,26,-1
 619 861 l 1,27,-1
 640 966 l 1,28,-1
 682 987 l 1,29,-1
 724 987 l 1,30,-1
 745 966 l 1,31,-1
 766 462 l 1,32,-1
 787 336 l 1,33,-1
 808 273 l 1,34,-1
 829 231 l 1,35,-1
 850 168 l 1,36,-1
 871 126 l 1,37,-1
 892 84 l 1,38,-1
 871 0 l 1,39,-1
 787 0 l 1,40,-1
 745 21 l 1,41,-1
 724 63 l 1,42,-1
 703 147 l 1,43,-1
 682 168 l 1,44,-1
 661 273 l 1,45,-1
 640 252 l 1,46,-1
 598 210 l 1,47,-1
 577 168 l 1,48,-1
 556 147 l 1,49,-1
 514 105 l 1,50,-1
 493 63 l 1,51,-1
 451 42 l 1,52,-1
 304 42 l 1,53,-1
 220 63 l 1,54,-1
 178 84 l 1,55,-1
 136 105 l 1,56,-1
 115 210 l 1,57,-1
 94 210 l 1,58,-1
 94 231 l 1,59,-1
 73 231 l 1,60,-1
 52 588 l 1,61,-1
 73 672 l 1,0,-1
EndSplineSet
EndChar

StartChar: v
Encoding: 118 118 86
Width: 777
Flags: W
LayerCount: 2
Fore
SplineSet
73 1008 m 1,0,-1
 136 1008 l 1,1,-1
 157 966 l 1,2,-1
 178 861 l 1,3,-1
 199 756 l 1,4,-1
 220 672 l 1,5,-1
 241 630 l 1,6,-1
 262 504 l 1,7,-1
 283 420 l 1,8,-1
 304 315 l 1,9,-1
 325 210 l 1,10,-1
 346 252 l 1,11,-1
 367 336 l 1,12,-1
 388 399 l 1,13,-1
 409 441 l 1,14,-1
 430 483 l 1,15,-1
 451 525 l 1,16,-1
 472 567 l 1,17,-1
 493 630 l 1,18,-1
 514 693 l 1,19,-1
 535 735 l 1,20,-1
 556 777 l 1,21,-1
 577 819 l 1,22,-1
 619 882 l 1,23,-1
 619 903 l 1,24,-1
 682 924 l 1,25,-1
 703 903 l 1,26,-1
 724 861 l 1,27,-1
 724 777 l 1,28,-1
 703 735 l 1,29,-1
 682 693 l 1,30,-1
 661 651 l 1,31,-1
 640 588 l 1,32,-1
 619 483 l 1,33,-1
 577 441 l 1,34,-1
 556 399 l 1,35,-1
 535 336 l 1,36,-1
 514 273 l 1,37,-1
 493 231 l 1,38,-1
 472 168 l 1,39,-1
 451 126 l 1,40,-1
 430 84 l 1,41,-1
 409 42 l 1,42,-1
 388 -20 l 1,43,-1
 367 -41 l 1,44,-1
 283 -41 l 1,45,-1
 241 -20 l 1,46,-1
 220 21 l 1,47,-1
 199 84 l 1,48,-1
 178 147 l 1,49,-1
 157 336 l 1,50,-1
 136 357 l 1,51,-1
 115 588 l 1,52,-1
 94 609 l 1,53,-1
 73 798 l 1,54,-1
 73 714 l 1,55,-1
 52 966 l 1,56,-1
 73 1008 l 1,0,-1
EndSplineSet
EndChar

StartChar: w
Encoding: 119 119 87
Width: 1323
Flags: W
LayerCount: 2
Fore
SplineSet
73 987 m 1,0,-1
 157 1008 l 1,1,-1
 178 966 l 1,2,-1
 199 903 l 1,3,-1
 220 756 l 1,4,-1
 220 714 l 1,5,-1
 262 462 l 1,6,-1
 283 420 l 1,7,-1
 304 315 l 1,8,-1
 325 273 l 1,9,-1
 346 273 l 1,10,-1
 367 315 l 1,11,-1
 388 378 l 1,12,-1
 430 441 l 1,13,-1
 451 462 l 1,14,-1
 493 546 l 1,15,-1
 472 525 l 1,16,-1
 514 651 l 1,17,-1
 535 672 l 1,18,-1
 577 714 l 1,19,-1
 661 714 l 1,20,-1
 682 672 l 1,21,-1
 724 630 l 1,22,-1
 745 588 l 1,23,-1
 766 546 l 1,24,-1
 787 525 l 1,25,-1
 808 483 l 1,26,-1
 850 441 l 1,27,-1
 871 399 l 1,28,-1
 892 378 l 1,29,-1
 913 336 l 1,30,-1
 934 378 l 1,31,-1
 955 399 l 1,32,-1
 997 567 l 1,33,-1
 1018 588 l 1,34,-1
 1039 672 l 1,35,-1
 1060 714 l 1,36,-1
 1081 798 l 1,37,-1
 1123 861 l 1,38,-1
 1123 882 l 1,39,-1
 1144 903 l 1,40,-1
 1228 924 l 1,41,-1
 1270 882 l 1,42,-1
 1249 924 l 1,43,-1
 1249 798 l 1,44,-1
 1207 756 l 1,45,-1
 1186 651 l 1,46,-1
 1165 609 l 1,47,-1
 1144 546 l 1,48,-1
 1123 504 l 1,49,-1
 1102 462 l 1,50,-1
 1102 441 l 1,51,-1
 1081 357 l 1,52,-1
 1060 252 l 1,53,-1
 1018 210 l 1,54,-1
 997 147 l 1,55,-1
 976 126 l 1,56,-1
 829 105 l 1,57,-1
 808 147 l 1,58,-1
 787 231 l 1,59,-1
 766 294 l 1,60,-1
 745 336 l 1,61,-1
 703 357 l 1,62,-1
 703 399 l 1,63,-1
 661 420 l 1,64,-1
 661 483 l 1,65,-1
 619 504 l 1,66,-1
 598 441 l 1,67,-1
 577 399 l 1,68,-1
 556 357 l 1,69,-1
 514 315 l 1,70,-1
 514 273 l 1,71,-1
 472 231 l 1,72,-1
 451 189 l 1,73,-1
 430 147 l 1,74,-1
 409 126 l 1,75,-1
 241 84 l 1,76,-1
 220 147 l 1,77,-1
 178 168 l 1,78,-1
 157 357 l 1,79,-1
 136 378 l 1,80,-1
 115 609 l 1,81,-1
 94 672 l 1,82,-1
 73 756 l 1,83,-1
 73 735 l 1,84,-1
 52 966 l 1,85,-1
 73 987 l 1,0,-1
EndSplineSet
EndChar

StartChar: x
Encoding: 120 120 88
Width: 987
Flags: W
LayerCount: 2
Fore
SplineSet
73 1050 m 1,0,-1
 136 1050 l 1,1,-1
 157 1008 l 1,2,-1
 199 966 l 1,3,-1
 241 924 l 1,4,-1
 262 882 l 1,5,-1
 304 861 l 1,6,-1
 325 819 l 1,7,-1
 346 777 l 1,8,-1
 388 756 l 1,9,-1
 430 735 l 1,10,-1
 451 693 l 1,11,-1
 493 672 l 1,12,-1
 514 630 l 1,13,-1
 556 609 l 1,14,-1
 577 588 l 1,15,-1
 619 651 l 1,16,-1
 640 672 l 1,17,-1
 682 735 l 1,18,-1
 703 756 l 1,19,-1
 745 819 l 1,20,-1
 766 840 l 1,21,-1
 808 903 l 1,22,-1
 829 924 l 1,23,-1
 913 903 l 1,24,-1
 913 756 l 1,25,-1
 892 735 l 1,26,-1
 850 693 l 1,27,-1
 829 672 l 1,28,-1
 787 630 l 1,29,-1
 766 588 l 1,30,-1
 745 567 l 1,31,-1
 724 546 l 1,32,-1
 724 525 l 1,33,-1
 703 504 l 1,34,-1
 682 441 l 1,35,-1
 703 399 l 1,36,-1
 724 357 l 1,37,-1
 766 315 l 1,38,-1
 787 273 l 1,39,-1
 808 231 l 1,40,-1
 850 189 l 1,41,-1
 871 147 l 1,42,-1
 892 63 l 1,43,-1
 913 42 l 1,44,-1
 913 21 l 1,45,-1
 934 -41 l 1,46,-1
 934 -62 l 1,47,-1
 829 -104 l 1,48,-1
 808 -41 l 1,49,-1
 766 -20 l 1,50,-1
 745 84 l 1,51,-1
 724 105 l 1,52,-1
 682 126 l 1,53,-1
 661 189 l 1,54,-1
 640 231 l 1,55,-1
 619 294 l 1,56,-1
 556 315 l 1,57,-1
 535 294 l 1,58,-1
 514 273 l 1,59,-1
 472 231 l 1,60,-1
 451 210 l 1,61,-1
 409 168 l 1,62,-1
 388 147 l 1,63,-1
 346 105 l 1,64,-1
 325 84 l 1,65,-1
 283 42 l 1,66,-1
 262 0 l 1,67,-1
 157 -41 l 1,68,-1
 136 21 l 1,69,-1
 136 -41 l 1,70,-1
 157 84 l 1,71,-1
 178 105 l 1,72,-1
 199 147 l 1,73,-1
 241 189 l 1,74,-1
 262 210 l 1,75,-1
 304 273 l 1,76,-1
 325 294 l 1,77,-1
 367 336 l 1,78,-1
 388 357 l 1,79,-1
 430 399 l 1,80,-1
 451 420 l 1,81,-1
 472 462 l 1,82,-1
 472 504 l 1,83,-1
 430 525 l 1,84,-1
 409 567 l 1,85,-1
 367 588 l 1,86,-1
 346 630 l 1,87,-1
 304 630 l 1,88,-1
 283 672 l 1,89,-1
 241 693 l 1,90,-1
 220 756 l 1,91,-1
 178 777 l 1,92,-1
 157 840 l 1,93,-1
 115 861 l 1,94,-1
 94 903 l 1,95,-1
 73 945 l 1,96,-1
 52 1008 l 1,97,-1
 73 1050 l 1,0,-1
EndSplineSet
EndChar

StartChar: y
Encoding: 121 121 89
Width: 1008
Flags: W
LayerCount: 2
Fore
SplineSet
94 -146 m 1,0,-1
 115 -125 l 1,1,-1
 157 -83 l 1,2,-1
 178 -62 l 1,3,-1
 220 -20 l 1,4,-1
 241 0 l 1,5,-1
 283 42 l 1,6,-1
 304 63 l 1,7,-1
 325 105 l 1,8,-1
 367 168 l 1,9,-1
 388 189 l 1,10,-1
 388 315 l 1,11,-1
 367 378 l 1,12,-1
 367 420 l 1,13,-1
 325 441 l 1,14,-1
 304 546 l 1,15,-1
 283 567 l 1,16,-1
 262 630 l 1,17,-1
 241 630 l 1,18,-1
 241 651 l 1,19,-1
 220 651 l 1,20,-1
 199 777 l 1,21,-1
 199 798 l 1,22,-1
 262 819 l 1,23,-1
 304 819 l 1,24,-1
 325 777 l 1,25,-1
 346 735 l 1,26,-1
 388 672 l 1,27,-1
 409 630 l 1,28,-1
 430 588 l 1,29,-1
 451 525 l 1,30,-1
 472 483 l 1,31,-1
 514 462 l 1,32,-1
 535 420 l 1,33,-1
 556 462 l 1,34,-1
 577 504 l 1,35,-1
 598 567 l 1,36,-1
 619 588 l 1,37,-1
 640 630 l 1,38,-1
 661 672 l 1,39,-1
 682 714 l 1,40,-1
 703 735 l 1,41,-1
 724 777 l 1,42,-1
 745 819 l 1,43,-1
 787 861 l 1,44,-1
 787 882 l 1,45,-1
 808 903 l 1,46,-1
 829 924 l 1,47,-1
 892 945 l 1,48,-1
 913 945 l 1,49,-1
 955 819 l 1,50,-1
 913 777 l 1,51,-1
 892 735 l 1,52,-1
 850 693 l 1,53,-1
 829 630 l 1,54,-1
 787 588 l 1,55,-1
 766 546 l 1,56,-1
 745 504 l 1,57,-1
 724 441 l 1,58,-1
 682 399 l 1,59,-1
 661 336 l 1,60,-1
 640 273 l 1,61,-1
 598 231 l 1,62,-1
 577 189 l 1,63,-1
 535 147 l 1,64,-1
 514 105 l 1,65,-1
 472 63 l 1,66,-1
 451 21 l 1,67,-1
 430 -20 l 1,68,-1
 409 -41 l 1,69,-1
 367 -83 l 1,70,-1
 346 -104 l 1,71,-1
 304 -146 l 1,72,-1
 283 -167 l 1,73,-1
 241 -188 l 1,74,-1
 220 -230 l 1,75,-1
 178 -251 l 1,76,-1
 73 -272 l 1,77,-1
 52 -209 l 1,78,-1
 94 -146 l 1,0,-1
EndSplineSet
EndChar

StartChar: z
Encoding: 122 122 90
Width: 861
Flags: W
LayerCount: 2
Fore
SplineSet
52 966 m 1,0,-1
 94 966 l 1,1,-1
 73 966 l 1,2,-1
 367 987 l 1,3,-1
 493 966 l 1,4,-1
 577 945 l 1,5,-1
 577 966 l 1,6,-1
 703 924 l 1,7,-1
 724 924 l 1,8,-1
 766 819 l 1,9,-1
 724 777 l 1,10,-1
 703 756 l 1,11,-1
 661 714 l 1,12,-1
 640 693 l 1,13,-1
 598 651 l 1,14,-1
 577 630 l 1,15,-1
 535 609 l 1,16,-1
 514 567 l 1,17,-1
 472 525 l 1,18,-1
 451 504 l 1,19,-1
 409 462 l 1,20,-1
 388 441 l 1,21,-1
 367 420 l 1,22,-1
 367 399 l 1,23,-1
 346 378 l 1,24,-1
 325 357 l 1,25,-1
 304 273 l 1,26,-1
 703 231 l 1,27,-1
 745 252 l 1,28,-1
 766 252 l 1,29,-1
 787 231 l 1,30,-1
 808 189 l 1,31,-1
 808 126 l 1,32,-1
 787 105 l 1,33,-1
 262 105 l 1,34,-1
 220 126 l 1,35,-1
 178 147 l 1,36,-1
 115 147 l 1,37,-1
 115 168 l 1,38,-1
 94 168 l 1,39,-1
 73 168 l 1,40,-1
 52 294 l 1,41,-1
 73 315 l 1,42,-1
 115 336 l 1,43,-1
 136 357 l 1,44,-1
 178 399 l 1,45,-1
 199 420 l 1,46,-1
 220 462 l 1,47,-1
 241 483 l 1,48,-1
 283 546 l 1,49,-1
 304 567 l 1,50,-1
 346 609 l 1,51,-1
 388 630 l 1,52,-1
 409 672 l 1,53,-1
 430 714 l 1,54,-1
 472 735 l 1,55,-1
 493 756 l 1,56,-1
 535 819 l 1,57,-1
 451 840 l 1,58,-1
 94 840 l 1,59,-1
 94 861 l 1,60,-1
 73 861 l 1,61,-1
 52 945 l 1,62,-1
 52 966 l 1,0,-1
EndSplineSet
EndChar

StartChar: braceleft
Encoding: 123 123 91
Width: 861
Flags: W
LayerCount: 2
Fore
SplineSet
94 1050 m 1,0,-1
 157 1071 l 1,1,-1
 199 1113 l 1,2,-1
 241 1134 l 1,3,-1
 283 1176 l 1,4,-1
 241 1197 l 1,5,-1
 220 1239 l 1,6,-1
 199 1281 l 1,7,-1
 178 1323 l 1,8,-1
 157 1449 l 1,9,-1
 157 1407 l 1,10,-1
 136 1617 l 1,11,-1
 136 1638 l 1,12,-1
 157 1722 l 1,13,-1
 178 1743 l 1,14,-1
 199 1785 l 1,15,-1
 220 1827 l 1,16,-1
 241 1869 l 1,17,-1
 283 1911 l 1,18,-1
 325 1932 l 1,19,-1
 367 1953 l 1,20,-1
 409 1974 l 1,21,-1
 640 1974 l 1,22,-1
 682 1932 l 1,23,-1
 682 1869 l 1,24,-1
 661 1848 l 1,25,-1
 472 1827 l 1,26,-1
 430 1806 l 1,27,-1
 388 1785 l 1,28,-1
 346 1764 l 1,29,-1
 325 1701 l 1,30,-1
 304 1659 l 1,31,-1
 283 1617 l 1,32,-1
 262 1575 l 1,33,-1
 262 1554 l 1,34,-1
 304 1512 l 1,35,-1
 283 1512 l 1,36,-1
 325 1386 l 1,37,-1
 346 1344 l 1,38,-1
 367 1281 l 1,39,-1
 388 1239 l 1,40,-1
 409 1197 l 1,41,-1
 430 1176 l 1,42,-1
 409 1050 l 1,43,-1
 367 1029 l 1,44,-1
 325 1008 l 1,45,-1
 262 966 l 1,46,-1
 283 945 l 1,47,-1
 304 903 l 1,48,-1
 325 861 l 1,49,-1
 346 420 l 1,50,-1
 367 357 l 1,51,-1
 388 336 l 1,52,-1
 409 294 l 1,53,-1
 451 273 l 1,54,-1
 514 252 l 1,55,-1
 766 231 l 1,56,-1
 808 189 l 1,57,-1
 808 126 l 1,58,-1
 787 105 l 1,59,-1
 640 84 l 1,60,-1
 388 105 l 1,61,-1
 367 147 l 1,62,-1
 325 168 l 1,63,-1
 283 189 l 1,64,-1
 262 231 l 1,65,-1
 241 273 l 1,66,-1
 220 336 l 1,67,-1
 220 315 l 1,68,-1
 199 693 l 1,69,-1
 178 819 l 1,70,-1
 136 840 l 1,71,-1
 115 882 l 1,72,-1
 94 882 l 1,73,-1
 94 903 l 1,74,-1
 73 903 l 1,75,-1
 52 1008 l 1,76,-1
 94 1050 l 1,0,-1
EndSplineSet
EndChar

StartChar: braceright
Encoding: 125 125 92
Width: 777
Flags: W
LayerCount: 2
Fore
SplineSet
73 147 m 1,0,-1
 157 147 l 1,1,-1
 199 189 l 1,2,-1
 220 189 l 1,3,-1
 262 231 l 1,4,-1
 283 252 l 1,5,-1
 304 294 l 1,6,-1
 325 336 l 1,7,-1
 346 378 l 1,8,-1
 388 462 l 1,9,-1
 388 483 l 1,10,-1
 388 777 l 1,11,-1
 409 840 l 1,12,-1
 430 861 l 1,13,-1
 472 903 l 1,14,-1
 514 924 l 1,15,-1
 514 966 l 1,16,-1
 493 1008 l 1,17,-1
 472 1008 l 1,18,-1
 472 1029 l 1,19,-1
 451 1029 l 1,20,-1
 430 1176 l 1,21,-1
 451 1239 l 1,22,-1
 472 1260 l 1,23,-1
 514 1323 l 1,24,-1
 535 1344 l 1,25,-1
 556 1449 l 1,26,-1
 556 1680 l 1,27,-1
 535 1722 l 1,28,-1
 514 1764 l 1,29,-1
 493 1806 l 1,30,-1
 451 1827 l 1,31,-1
 409 1848 l 1,32,-1
 346 1869 l 1,33,-1
 262 1890 l 1,34,-1
 241 1932 l 1,35,-1
 241 1995 l 1,36,-1
 262 2016 l 1,37,-1
 388 2016 l 1,38,-1
 430 1995 l 1,39,-1
 493 1974 l 1,40,-1
 556 1953 l 1,41,-1
 577 1911 l 1,42,-1
 619 1890 l 1,43,-1
 640 1848 l 1,44,-1
 661 1806 l 1,45,-1
 682 1743 l 1,46,-1
 703 1701 l 1,47,-1
 724 1428 l 1,48,-1
 682 1386 l 1,49,-1
 661 1281 l 1,50,-1
 640 1239 l 1,51,-1
 598 1197 l 1,52,-1
 577 1134 l 1,53,-1
 598 1113 l 1,54,-1
 619 1071 l 1,55,-1
 640 1071 l 1,56,-1
 640 1050 l 1,57,-1
 682 882 l 1,58,-1
 640 840 l 1,59,-1
 619 819 l 1,60,-1
 577 798 l 1,61,-1
 556 777 l 1,62,-1
 514 735 l 1,63,-1
 514 693 l 1,64,-1
 514 420 l 1,65,-1
 493 378 l 1,66,-1
 472 336 l 1,67,-1
 451 294 l 1,68,-1
 430 231 l 1,69,-1
 409 189 l 1,70,-1
 388 168 l 1,71,-1
 346 147 l 1,72,-1
 304 105 l 1,73,-1
 283 84 l 1,74,-1
 241 63 l 1,75,-1
 73 42 l 1,76,-1
 52 105 l 1,77,-1
 73 147 l 1,0,-1
EndSplineSet
EndChar

StartChar: asciitilde
Encoding: 126 126 93
Width: 1092
Flags: W
LayerCount: 2
Fore
SplineSet
73 1281 m 1,0,-1
 94 1302 l 1,1,-1
 115 1344 l 1,2,-1
 136 1365 l 1,3,-1
 157 1407 l 1,4,-1
 199 1449 l 1,5,-1
 199 1470 l 1,6,-1
 220 1491 l 1,7,-1
 241 1512 l 1,8,-1
 262 1533 l 1,9,-1
 283 1554 l 1,10,-1
 472 1575 l 1,11,-1
 514 1575 l 1,12,-1
 535 1533 l 1,13,-1
 577 1512 l 1,14,-1
 598 1470 l 1,15,-1
 619 1407 l 1,16,-1
 640 1365 l 1,17,-1
 682 1344 l 1,18,-1
 724 1323 l 1,19,-1
 808 1323 l 1,20,-1
 829 1344 l 1,21,-1
 850 1344 l 1,22,-1
 871 1365 l 1,23,-1
 913 1533 l 1,24,-1
 913 1554 l 1,25,-1
 976 1575 l 1,26,-1
 997 1554 l 1,27,-1
 1018 1512 l 1,28,-1
 1039 1407 l 1,29,-1
 1018 1344 l 1,30,-1
 976 1302 l 1,31,-1
 955 1281 l 1,32,-1
 913 1239 l 1,33,-1
 892 1218 l 1,34,-1
 850 1197 l 1,35,-1
 829 1176 l 1,36,-1
 724 1155 l 1,37,-1
 724 1176 l 1,38,-1
 703 1176 l 1,39,-1
 640 1197 l 1,40,-1
 619 1239 l 1,41,-1
 577 1260 l 1,42,-1
 556 1302 l 1,43,-1
 514 1323 l 1,44,-1
 493 1407 l 1,45,-1
 472 1407 l 1,46,-1
 472 1428 l 1,47,-1
 388 1449 l 1,48,-1
 451 1449 l 1,49,-1
 325 1428 l 1,50,-1
 304 1365 l 1,51,-1
 262 1344 l 1,52,-1
 241 1302 l 1,53,-1
 220 1281 l 1,54,-1
 199 1260 l 1,55,-1
 199 1239 l 1,56,-1
 178 1218 l 1,57,-1
 157 1155 l 1,58,-1
 94 1113 l 1,59,-1
 73 1134 l 1,60,-1
 73 1113 l 1,61,-1
 52 1239 l 1,62,-1
 73 1281 l 1,0,-1
EndSplineSet
EndChar

StartChar: quotesingle.001
Encoding: 39 39 97
Width: 252
Flags: W
LayerCount: 2
Fore
SplineSet
62 1400 m 1,0,-1
 83 1526 l 1,1,-1
 83 1547 l 1,2,-1
 146 1568 l 1,3,-1
 167 1547 l 1,4,-1
 188 1505 l 1,5,-1
 188 1169 l 1,6,-1
 167 1106 l 1,7,-1
 167 1085 l 1,8,-1
 83 1064 l 1,9,-1
 62 1064 l 1,10,-1
 41 1211 l 1,11,-1
 62 1400 l 1,0,-1
EndSplineSet
EndChar

StartChar: quotedbl
Encoding: 34 34 99
Width: 651
Flags: W
LayerCount: 2
Fore
SplineSet
483 1512 m 1,0,-1
 567 1512 l 1,1,-1
 588 1470 l 1,2,-1
 609 1197 l 1,3,-1
 588 1071 l 1,4,-1
 525 1050 l 1,5,-1
 525 1071 l 1,6,-1
 504 1071 l 1,7,-1
 483 1491 l 1,8,-1
 483 1512 l 1,0,-1
73 1542 m 1,9,-1
 115 1584 l 1,10,-1
 136 1584 l 1,11,-1
 157 1563 l 1,12,-1
 178 1521 l 1,13,-1
 178 1290 l 1,14,-1
 178 1227 l 1,15,-1
 157 1101 l 1,16,-1
 115 1080 l 1,17,-1
 94 1059 l 1,18,-1
 94 1080 l 1,19,-1
 73 1080 l 1,20,-1
 52 1332 l 1,21,-1
 73 1542 l 1,9,-1
EndSplineSet
EndChar

StartChar: hyphen
Encoding: 45 45 100
Width: 903
Flags: W
LayerCount: 2
Fore
SplineSet
38 426 m 1,0,-1
 248 426 l 1,1,-1
 563 447 l 1,2,-1
 647 426 l 1,3,-1
 647 447 l 1,4,-1
 794 405 l 1,5,-1
 815 405 l 1,6,-1
 815 384 l 1,7,-1
 836 321 l 1,8,-1
 836 300 l 1,9,-1
 605 258 l 1,10,-1
 584 279 l 1,11,-1
 164 279 l 1,12,-1
 164 300 l 1,13,-1
 80 300 l 1,14,-1
 59 300 l 1,15,-1
 38 405 l 1,16,-1
 38 426 l 1,0,-1
EndSplineSet
EndChar

